<svg xmlns="http://www.w3.org/2000/svg" width="1800" height="550" version="1.1" viewPort="0 0 550 1800"><![CDATA[
Created with CSVtoSVG 2.31
]]><defs><radialGradient id="radialGradient1" r="65%" fx="50%" fy="50%" spreadMethod="pad"><stop offset="0%" stop-color="#505050" stop-opacity="1"/><stop offset="100%" stop-color="#101010" stop-opacity="1"/></radialGradient><linearGradient id="linearGradient1" x1="0%" x2="100%" y1="0%" y2="100%"><stop offset="0%" stop-color="#000"/><stop offset="100%" stop-color="#fff"/></linearGradient><clipPath id="graphArea"><rect width="1700" height="435" x="50" y="42"/></clipPath><filter id="dropShadowFilter" width="130%" height="130%" x="-20%"><feOffset dx="-2" dy="2" in="SourceAlpha" result="offOut"/><feGaussianBlur in="offOut" result="blurOut" stdDeviation="1.1"/><feBlend in="SourceGraphic" in2="blurOut" mode="normal"/></filter></defs><rect width="1800" height="550" x="0" y="0" fill="#101010" stroke="#101010" stroke-width="1" style="fill:url(#radialGradient1)"/><g id="graphArea"><g id="gridLines_decomp_matinee_pc"><line x1="50" x2="1750" y1="477" y2="477" stroke="#606060" style="fill:none;stroke-width:.25"/><line x1="50" x2="1750" y1="468.3" y2="468.3" stroke="#606060" style="fill:none;stroke-width:.25"/><line x1="50" x2="1750" y1="459.6" y2="459.6" stroke="#606060" style="fill:none;stroke-width:.25"/><line x1="50" x2="1750" y1="450.9" y2="450.9" stroke="#606060" style="fill:none;stroke-width:.25"/><line x1="50" x2="1750" y1="442.2" y2="442.2" stroke="#606060" style="fill:none;stroke-width:.25"/><line x1="50" x2="1750" y1="433.5" y2="433.5" stroke="#606060" style="fill:none;stroke-width:.25"/><line x1="50" x2="1750" y1="424.8" y2="424.8" stroke="#606060" style="fill:none;stroke-width:.25"/><line x1="50" x2="1750" y1="416.1" y2="416.1" stroke="#606060" style="fill:none;stroke-width:.25"/><line x1="50" x2="1750" y1="407.4" y2="407.4" stroke="#606060" style="fill:none;stroke-width:.25"/><line x1="50" x2="1750" y1="398.7" y2="398.7" stroke="#606060" style="fill:none;stroke-width:.25"/><line x1="50" x2="1750" y1="390" y2="390" stroke="#606060" style="fill:none;stroke-width:.25"/><line x1="50" x2="1750" y1="381.3" y2="381.3" stroke="#606060" style="fill:none;stroke-width:.25"/><line x1="50" x2="1750" y1="372.6" y2="372.6" stroke="#606060" style="fill:none;stroke-width:.25"/><line x1="50" x2="1750" y1="363.9" y2="363.9" stroke="#606060" style="fill:none;stroke-width:.25"/><line x1="50" x2="1750" y1="355.2" y2="355.2" stroke="#606060" style="fill:none;stroke-width:.25"/><line x1="50" x2="1750" y1="346.5" y2="346.5" stroke="#606060" style="fill:none;stroke-width:.25"/><line x1="50" x2="1750" y1="337.8" y2="337.8" stroke="#606060" style="fill:none;stroke-width:.25"/><line x1="50" x2="1750" y1="329.1" y2="329.1" stroke="#606060" style="fill:none;stroke-width:.25"/><line x1="50" x2="1750" y1="320.4" y2="320.4" stroke="#606060" style="fill:none;stroke-width:.25"/><line x1="50" x2="1750" y1="311.7" y2="311.7" stroke="#606060" style="fill:none;stroke-width:.25"/><line x1="50" x2="1750" y1="303" y2="303" stroke="#606060" style="fill:none;stroke-width:.25"/><line x1="50" x2="1750" y1="294.3" y2="294.3" stroke="#606060" style="fill:none;stroke-width:.25"/><line x1="50" x2="1750" y1="285.6" y2="285.6" stroke="#606060" style="fill:none;stroke-width:.25"/><line x1="50" x2="1750" y1="276.9" y2="276.9" stroke="#606060" style="fill:none;stroke-width:.25"/><line x1="50" x2="1750" y1="268.2" y2="268.2" stroke="#606060" style="fill:none;stroke-width:.25"/><line x1="50" x2="1750" y1="259.5" y2="259.5" stroke="#606060" style="fill:none;stroke-width:.25"/><line x1="50" x2="1750" y1="250.8" y2="250.8" stroke="#606060" style="fill:none;stroke-width:.25"/><line x1="50" x2="1750" y1="242.1" y2="242.1" stroke="#606060" style="fill:none;stroke-width:.25"/><line x1="50" x2="1750" y1="233.4" y2="233.4" stroke="#606060" style="fill:none;stroke-width:.25"/><line x1="50" x2="1750" y1="224.7" y2="224.7" stroke="#606060" style="fill:none;stroke-width:.25"/><line x1="50" x2="1750" y1="216" y2="216" stroke="#606060" style="fill:none;stroke-width:.25"/><line x1="50" x2="1750" y1="207.3" y2="207.3" stroke="#606060" style="fill:none;stroke-width:.25"/><line x1="50" x2="1750" y1="198.6" y2="198.6" stroke="#606060" style="fill:none;stroke-width:.25"/><line x1="50" x2="1750" y1="189.9" y2="189.9" stroke="#606060" style="fill:none;stroke-width:.25"/><line x1="50" x2="1750" y1="181.2" y2="181.2" stroke="#606060" style="fill:none;stroke-width:.25"/><line x1="50" x2="1750" y1="172.5" y2="172.5" stroke="#606060" style="fill:none;stroke-width:.25"/><line x1="50" x2="1750" y1="163.8" y2="163.8" stroke="#606060" style="fill:none;stroke-width:.25"/><line x1="50" x2="1750" y1="155.1" y2="155.1" stroke="#606060" style="fill:none;stroke-width:.25"/><line x1="50" x2="1750" y1="146.4" y2="146.4" stroke="#606060" style="fill:none;stroke-width:.25"/><line x1="50" x2="1750" y1="137.7" y2="137.7" stroke="#606060" style="fill:none;stroke-width:.25"/><line x1="50" x2="1750" y1="129" y2="129" stroke="#606060" style="fill:none;stroke-width:.25"/><line x1="50" x2="1750" y1="120.3" y2="120.3" stroke="#606060" style="fill:none;stroke-width:.25"/><line x1="50" x2="1750" y1="111.6" y2="111.6" stroke="#606060" style="fill:none;stroke-width:.25"/><line x1="50" x2="1750" y1="102.9" y2="102.9" stroke="#606060" style="fill:none;stroke-width:.25"/><line x1="50" x2="1750" y1="94.2" y2="94.2" stroke="#606060" style="fill:none;stroke-width:.25"/><line x1="50" x2="1750" y1="85.5" y2="85.5" stroke="#606060" style="fill:none;stroke-width:.25"/><line x1="50" x2="1750" y1="76.8" y2="76.8" stroke="#606060" style="fill:none;stroke-width:.25"/><line x1="50" x2="1750" y1="68.1" y2="68.1" stroke="#606060" style="fill:none;stroke-width:.25"/><line x1="50" x2="1750" y1="59.4" y2="59.4" stroke="#606060" style="fill:none;stroke-width:.25"/><line x1="50" x2="1750" y1="50.7" y2="50.7" stroke="#606060" style="fill:none;stroke-width:.25"/><line x1="50" x2="1750" y1="42" y2="42" stroke="#606060" style="fill:none;stroke-width:.25"/><line x1="50" x2="1750" y1="477" y2="477" stroke="gray" style="fill:none;stroke-width:.25"/><line x1="50" x2="1750" y1="433.5" y2="433.5" stroke="gray" style="fill:none;stroke-width:.25"/><line x1="50" x2="1750" y1="390" y2="390" stroke="gray" style="fill:none;stroke-width:.25"/><line x1="50" x2="1750" y1="346.5" y2="346.5" stroke="gray" style="fill:none;stroke-width:.25"/><line x1="50" x2="1750" y1="303" y2="303" stroke="gray" style="fill:none;stroke-width:.25"/><line x1="50" x2="1750" y1="259.5" y2="259.5" stroke="gray" style="fill:none;stroke-width:.25"/><line x1="50" x2="1750" y1="216" y2="216" stroke="gray" style="fill:none;stroke-width:.25"/><line x1="50" x2="1750" y1="172.5" y2="172.5" stroke="gray" style="fill:none;stroke-width:.25"/><line x1="50" x2="1750" y1="129" y2="129" stroke="gray" style="fill:none;stroke-width:.25"/><line x1="50" x2="1750" y1="85.5" y2="85.5" stroke="gray" style="fill:none;stroke-width:.25"/><line x1="50" x2="1750" y1="42" y2="42" stroke="gray" style="fill:none;stroke-width:.25"/></g><g id="xAxis_decomp_matinee_pc"><text x="487" y="-46" fill="#FFF" font-family="Helvetica" font-size="10" transform="rotate(90)">0</text><text x="487" y="-88.5" fill="#FFF" font-family="Helvetica" font-size="10" transform="rotate(90)">50</text><text x="487" y="-131" fill="#FFF" font-family="Helvetica" font-size="10" transform="rotate(90)">100</text><text x="487" y="-173.5" fill="#FFF" font-family="Helvetica" font-size="10" transform="rotate(90)">150</text><text x="487" y="-216" fill="#FFF" font-family="Helvetica" font-size="10" transform="rotate(90)">200</text><text x="487" y="-258.5" fill="#FFF" font-family="Helvetica" font-size="10" transform="rotate(90)">250</text><text x="487" y="-301" fill="#FFF" font-family="Helvetica" font-size="10" transform="rotate(90)">300</text><text x="487" y="-343.5" fill="#FFF" font-family="Helvetica" font-size="10" transform="rotate(90)">350</text><text x="487" y="-386" fill="#FFF" font-family="Helvetica" font-size="10" transform="rotate(90)">400</text><text x="487" y="-428.5" fill="#FFF" font-family="Helvetica" font-size="10" transform="rotate(90)">450</text><text x="487" y="-471" fill="#FFF" font-family="Helvetica" font-size="10" transform="rotate(90)">500</text><text x="487" y="-513.5" fill="#FFF" font-family="Helvetica" font-size="10" transform="rotate(90)">550</text><text x="487" y="-556" fill="#FFF" font-family="Helvetica" font-size="10" transform="rotate(90)">600</text><text x="487" y="-598.5" fill="#FFF" font-family="Helvetica" font-size="10" transform="rotate(90)">650</text><text x="487" y="-641" fill="#FFF" font-family="Helvetica" font-size="10" transform="rotate(90)">700</text><text x="487" y="-683.5" fill="#FFF" font-family="Helvetica" font-size="10" transform="rotate(90)">750</text><text x="487" y="-726" fill="#FFF" font-family="Helvetica" font-size="10" transform="rotate(90)">800</text><text x="487" y="-768.5" fill="#FFF" font-family="Helvetica" font-size="10" transform="rotate(90)">850</text><text x="487" y="-811" fill="#FFF" font-family="Helvetica" font-size="10" transform="rotate(90)">900</text><text x="487" y="-853.5" fill="#FFF" font-family="Helvetica" font-size="10" transform="rotate(90)">950</text><text x="487" y="-896" fill="#FFF" font-family="Helvetica" font-size="10" transform="rotate(90)">1000</text><text x="487" y="-938.5" fill="#FFF" font-family="Helvetica" font-size="10" transform="rotate(90)">1050</text><text x="487" y="-981" fill="#FFF" font-family="Helvetica" font-size="10" transform="rotate(90)">1100</text><text x="487" y="-1023.5" fill="#FFF" font-family="Helvetica" font-size="10" transform="rotate(90)">1150</text><text x="487" y="-1066" fill="#FFF" font-family="Helvetica" font-size="10" transform="rotate(90)">1200</text><text x="487" y="-1108.5" fill="#FFF" font-family="Helvetica" font-size="10" transform="rotate(90)">1250</text><text x="487" y="-1151" fill="#FFF" font-family="Helvetica" font-size="10" transform="rotate(90)">1300</text><text x="487" y="-1193.5" fill="#FFF" font-family="Helvetica" font-size="10" transform="rotate(90)">1350</text><text x="487" y="-1236" fill="#FFF" font-family="Helvetica" font-size="10" transform="rotate(90)">1400</text><text x="487" y="-1278.5" fill="#FFF" font-family="Helvetica" font-size="10" transform="rotate(90)">1450</text><text x="487" y="-1321" fill="#FFF" font-family="Helvetica" font-size="10" transform="rotate(90)">1500</text><text x="487" y="-1363.5" fill="#FFF" font-family="Helvetica" font-size="10" transform="rotate(90)">1550</text><text x="487" y="-1406" fill="#FFF" font-family="Helvetica" font-size="10" transform="rotate(90)">1600</text><text x="487" y="-1448.5" fill="#FFF" font-family="Helvetica" font-size="10" transform="rotate(90)">1650</text><text x="487" y="-1491" fill="#FFF" font-family="Helvetica" font-size="10" transform="rotate(90)">1700</text><text x="487" y="-1533.5" fill="#FFF" font-family="Helvetica" font-size="10" transform="rotate(90)">1750</text><text x="487" y="-1576" fill="#FFF" font-family="Helvetica" font-size="10" transform="rotate(90)">1800</text><text x="487" y="-1618.5" fill="#FFF" font-family="Helvetica" font-size="10" transform="rotate(90)">1850</text><text x="487" y="-1661" fill="#FFF" font-family="Helvetica" font-size="10" transform="rotate(90)">1900</text><text x="487" y="-1703.5" fill="#FFF" font-family="Helvetica" font-size="10" transform="rotate(90)">1950</text><text x="487" y="-1746" fill="#FFF" font-family="Helvetica" font-size="10" transform="rotate(90)">2000</text></g><g id="yAxis_decomp_matinee_pc"><text x="40" y="481" fill="#FFF" font-family="Helvetica" font-size="10" style="text-anchor:end">0</text>&gt;<line x1="47.5" x2="50" y1="477" y2="477" stroke="#FFF" style="fill:none;stroke-width:.25"/><text x="40" y="437.5" fill="#FFF" font-family="Helvetica" font-size="10" style="text-anchor:end">50</text>&gt;<line x1="47.5" x2="50" y1="433.5" y2="433.5" stroke="#FFF" style="fill:none;stroke-width:.25"/><text x="40" y="394" fill="#FFF" font-family="Helvetica" font-size="10" style="text-anchor:end">100</text>&gt;<line x1="47.5" x2="50" y1="390" y2="390" stroke="#FFF" style="fill:none;stroke-width:.25"/><text x="40" y="350.5" fill="#FFF" font-family="Helvetica" font-size="10" style="text-anchor:end">150</text>&gt;<line x1="47.5" x2="50" y1="346.5" y2="346.5" stroke="#FFF" style="fill:none;stroke-width:.25"/><text x="40" y="307" fill="#FFF" font-family="Helvetica" font-size="10" style="text-anchor:end">200</text>&gt;<line x1="47.5" x2="50" y1="303" y2="303" stroke="#FFF" style="fill:none;stroke-width:.25"/><text x="40" y="263.5" fill="#FFF" font-family="Helvetica" font-size="10" style="text-anchor:end">250</text>&gt;<line x1="47.5" x2="50" y1="259.5" y2="259.5" stroke="#FFF" style="fill:none;stroke-width:.25"/><text x="40" y="220" fill="#FFF" font-family="Helvetica" font-size="10" style="text-anchor:end">300</text>&gt;<line x1="47.5" x2="50" y1="216" y2="216" stroke="#FFF" style="fill:none;stroke-width:.25"/><text x="40" y="176.5" fill="#FFF" font-family="Helvetica" font-size="10" style="text-anchor:end">350</text>&gt;<line x1="47.5" x2="50" y1="172.5" y2="172.5" stroke="#FFF" style="fill:none;stroke-width:.25"/><text x="40" y="133" fill="#FFF" font-family="Helvetica" font-size="10" style="text-anchor:end">400</text>&gt;<line x1="47.5" x2="50" y1="129" y2="129" stroke="#FFF" style="fill:none;stroke-width:.25"/><text x="40" y="89.5" fill="#FFF" font-family="Helvetica" font-size="10" style="text-anchor:end">450</text>&gt;<line x1="47.5" x2="50" y1="85.5" y2="85.5" stroke="#FFF" style="fill:none;stroke-width:.25"/><text x="40" y="46" fill="#FFF" font-family="Helvetica" font-size="10" style="text-anchor:end">500</text>&gt;<line x1="47.5" x2="50" y1="42" y2="42" stroke="#FFF" style="fill:none;stroke-width:.25"/></g><line x1="50" x2="50" y1="42" y2="477" stroke="gray" style="fill:none;stroke-width:.5"/><line x1="50" x2="1750" y1="477" y2="477" stroke="gray" style="fill:none;stroke-width:.5"/><polyline id="Stat_0_Animation/Total/ExtractPoseFromAnimData_decomp_matinee_pc" stroke="#66CDFF" points="50 477 50.85 477 51.7 396.873 52.55 416.448 53.4 413.403 54.25 410.793 55.1 371.469 55.95 405.138 56.8 383.214 57.65 402.354 58.5 390.261 59.35 389.913 60.2 379.995 61.05 374.775 61.9 403.572 62.75 398.613 63.6 384.519 64.45 406.356 65.3 398.613 66.15 416.796 67 414.534 67.85 413.577 68.7 397.743 69.55 417.405 70.4 407.835 71.25 408.009 72.1 405.486 72.95 407.835 73.8 408.009 74.65 391.218 75.5 406.878 76.35 405.051 77.2 413.142 78.05 415.578 78.9 420.015 79.75 418.623 80.6 417.231 81.45 413.664 82.3 378.777 83.15 384.78 84 413.229 84.85 412.794 85.7 403.137 86.55 407.835 87.4 414.447 88.25 415.404 89.1 409.314 89.95 410.184 90.8 417.405 91.65 414.882 92.5 404.79 93.35 420.363 94.2 415.056 95.05 419.841 95.9 418.014 96.75 417.927 97.6 399.657 98.45 407.4 99.3 410.184 100.15 419.58 101 419.145 101.85 420.537 102.7 417.057 103.55 407.835 104.4 411.054 105.25 380.691 106.1 382.17 106.95 381.3 107.8 402.354 108.65 415.752 109.5 415.491 110.35 413.751 111.2 409.662 112.05 416.796 112.9 413.403 113.75 414.447 114.6 414.36 115.45 416.796 116.3 408.009 117.15 411.924 118 412.446 118.85 401.136 119.7 415.665 120.55 411.837 121.4 401.484 122.25 410.967 123.1 407.574 123.95 416.535 124.8 415.404 125.65 413.751 126.5 409.227 127.35 406.53 128.2 387.129 129.05 406.791 129.9 408.792 130.75 414.186 131.6 412.62 132.45 411.402 133.3 414.969 134.15 413.925 135 409.488 135.85 395.133 136.7 398.961 137.55 407.574 138.4 409.575 139.25 418.188 140.1 417.231 140.95 414.447 141.8 413.403 142.65 411.924 143.5 413.49 144.35 411.837 145.2 401.745 146.05 411.837 146.9 411.924 147.75 417.753 148.6 418.275 149.45 415.839 150.3 419.493 151.15 413.577 152 412.359 152.85 411.576 153.7 412.533 154.55 401.919 155.4 412.881 156.25 413.49 157.1 398.961 157.95 411.402 158.8 409.314 159.65 414.273 160.5 414.882 161.35 410.01 162.2 415.839 163.05 413.925 163.9 410.445 164.75 412.968 165.6 412.881 166.45 418.884 167.3 416.883 168.15 399.222 169 415.491 169.85 420.45 170.7 413.751 171.55 402.006 172.4 414.882 173.25 416.883 174.1 417.318 174.95 410.01 175.8 416.361 176.65 411.663 177.5 414.273 178.35 410.184 179.2 414.273 180.05 414.012 180.9 408.531 181.75 411.663 182.6 416.361 183.45 418.536 184.3 413.49 185.15 414.36 186 416.796 186.85 413.403 187.7 414.882 188.55 416.187 189.4 411.837 190.25 417.405 191.1 414.882 191.95 416.1 192.8 416.361 193.65 418.275 194.5 402.441 195.35 398.613 196.2 413.925 197.05 417.492 197.9 415.839 198.75 414.708 199.6 415.317 200.45 415.143 201.3 414.012 202.15 400.005 203 415.665 203.85 414.36 204.7 406.182 205.55 415.926 206.4 414.882 207.25 412.098 208.1 411.924 208.95 412.707 209.8 414.621 210.65 398.613 211.5 412.359 212.35 393.219 213.2 416.535 214.05 411.141 214.9 416.448 215.75 399.657 216.6 415.23 217.45 417.405 218.3 416.274 219.15 414.708 220 408.966 220.85 412.62 221.7 415.752 222.55 418.536 223.4 398.352 224.25 394.524 225.1 395.481 225.95 415.143 226.8 415.404 227.65 411.663 228.5 414.447 229.35 391.827 230.2 393.741 231.05 416.361 231.9 394.263 232.75 414.534 233.6 411.663 234.45 398.265 235.3 416.361 236.15 401.397 237 404.355 237.85 395.307 238.7 413.925 239.55 412.185 240.4 417.492 241.25 410.358 242.1 404.094 242.95 415.752 243.8 411.228 244.65 407.487 245.5 394.35 246.35 414.36 247.2 414.099 248.05 415.23 248.9 414.012 249.75 414.969 250.6 410.532 251.45 417.579 252.3 403.311 253.15 401.049 254 413.925 254.85 394.263 255.7 410.967 256.55 415.578 257.4 419.406 258.25 415.056 259.1 419.841 259.95 415.143 260.8 416.1 261.65 412.185 262.5 414.708 263.35 416.622 264.2 415.23 265.05 413.142 265.9 414.882 266.75 410.532 267.6 417.753 268.45 409.314 269.3 413.229 270.15 414.708 271 394.437 271.85 410.445 272.7 412.794 273.55 414.621 274.4 416.622 275.25 415.404 276.1 393.132 276.95 411.75 277.8 413.925 278.65 413.925 279.5 413.055 280.35 412.881 281.2 402.789 282.05 417.405 282.9 414.882 283.75 409.923 284.6 402.441 285.45 415.839 286.3 410.793 287.15 409.923 288 405.66 288.85 413.055 289.7 412.272 290.55 414.621 291.4 416.709 292.25 397.047 293.1 416.448 293.95 417.492 294.8 408.792 295.65 415.143 296.5 406.965 297.35 412.62 298.2 413.838 299.05 413.49 299.9 411.315 300.75 412.968 301.6 412.011 302.45 413.838 303.3 394.872 304.15 414.099 305 395.829 305.85 420.189 306.7 412.098 307.55 395.568 308.4 418.101 309.25 415.926 310.1 416.796 310.95 416.535 311.8 400.266 312.65 416.535 313.5 416.883 314.35 415.839 315.2 419.232 316.05 415.056 316.9 401.919 317.75 413.577 318.6 399.657 319.45 416.448 320.3 416.535 321.15 416.448 322 419.058 322.85 417.492 323.7 398.961 324.55 415.056 325.4 416.1 326.25 418.449 327.1 419.232 327.95 414.795 328.8 416.013 329.65 413.229 330.5 399.483 331.35 416.448 332.2 414.534 333.05 419.145 333.9 399.222 334.75 416.187 335.6 415.578 336.45 413.664 337.3 416.709 338.15 412.272 339 395.742 339.85 413.838 340.7 407.4 341.55 416.013 342.4 414.534 343.25 414.795 344.1 413.664 344.95 412.011 345.8 400.092 346.65 418.275 347.5 412.968 348.35 396.09 349.2 398.439 350.05 416.883 350.9 414.708 351.75 397.743 352.6 413.229 353.45 414.273 354.3 413.142 355.15 415.752 356 397.221 356.85 411.228 357.7 414.795 358.55 410.793 359.4 400.353 360.25 395.655 361.1 396.177 361.95 405.138 362.8 415.143 363.65 413.925 364.5 417.492 365.35 415.143 366.2 403.485 367.05 418.797 367.9 416.796 368.75 403.92 369.6 417.753 370.45 397.134 371.3 392.61 372.15 413.577 373 412.794 373.85 413.577 374.7 414.36 375.55 413.838 376.4 414.882 377.25 414.273 378.1 400.614 378.95 416.97 379.8 416.361 380.65 411.141 381.5 417.753 382.35 418.014 383.2 398.787 384.05 413.142 384.9 399.744 385.75 415.143 386.6 413.577 387.45 412.62 388.3 414.447 389.15 412.446 390 417.492 390.85 418.188 391.7 415.317 392.55 413.664 393.4 414.708 394.25 401.397 395.1 415.665 395.95 397.221 396.8 412.446 397.65 415.665 398.5 413.229 399.35 416.361 400.2 416.709 401.05 415.839 401.9 414.708 402.75 415.665 403.6 411.402 404.45 411.141 405.3 412.968 406.15 397.308 407 414.621 407.85 415.578 408.7 413.751 409.55 415.143 410.4 411.75 411.25 412.62 412.1 412.011 412.95 414.882 413.8 414.882 414.65 411.837 415.5 413.229 416.35 414.012 417.2 416.013 418.05 398.178 418.9 394.263 419.75 415.926 420.6 419.145 421.45 416.796 422.3 412.272 423.15 396.525 424 411.75 424.85 413.403 425.7 396.96 426.55 409.14 427.4 398.787 428.25 413.055 429.1 411.837 429.95 401.397 430.8 412.62 431.65 414.099 432.5 399.309 433.35 382.344 434.2 416.883 435.05 412.62 435.9 396.09 436.75 395.22 437.6 414.882 438.45 398.178 439.3 413.229 440.15 413.49 441 410.793 441.85 398.091 442.7 402.006 443.55 393.393 444.4 395.394 445.25 392.958 446.1 395.916 446.95 413.925 447.8 413.751 448.65 414.969 449.5 409.14 450.35 412.533 451.2 396.438 452.05 416.361 452.9 414.012 453.75 394.437 454.6 412.881 455.45 414.882 456.3 414.012 457.15 392.61 458 412.62 458.85 415.665 459.7 414.012 460.55 417.666 461.4 400.005 462.25 395.394 463.1 413.577 463.95 413.49 464.8 416.97 465.65 413.49 466.5 392.436 467.35 411.75 468.2 413.142 469.05 415.491 469.9 398.091 470.75 413.838 471.6 409.488 472.45 412.707 473.3 412.968 474.15 411.924 475 399.048 475.85 409.662 476.7 411.228 477.55 393.306 478.4 395.916 479.25 403.833 480.1 408.27 480.95 393.48 481.8 414.708 482.65 411.663 483.5 412.359 484.35 394.698 485.2 409.227 486.05 413.403 486.9 410.184 487.75 398.004 488.6 408.618 489.45 415.317 490.3 411.315 491.15 410.88 492 415.23 492.85 412.533 493.7 413.403 494.55 415.926 495.4 417.579 496.25 394.959 497.1 411.663 497.95 416.883 498.8 405.312 499.65 412.968 500.5 414.534 501.35 416.709 502.2 414.186 503.05 395.742 503.9 415.056 504.75 416.013 505.6 411.141 506.45 415.317 507.3 413.142 508.15 418.71 509 413.49 509.85 414.099 510.7 415.23 511.55 412.968 512.4 403.92 513.25 416.97 514.1 405.399 514.95 394.524 515.8 388.173 516.65 413.664 517.5 411.489 518.35 400.788 519.2 400.701 520.05 415.317 520.9 413.577 521.75 415.578 522.6 414.795 523.45 398.265 524.3 398.961 525.15 410.271 526 412.098 526.85 396.699 527.7 398.787 528.55 402.093 529.4 392.088 530.25 411.837 531.1 411.402 531.95 413.577 532.8 396.96 533.65 411.141 534.5 412.881 535.35 409.14 536.2 413.316 537.05 414.012 537.9 409.227 538.75 400.614 539.6 396.264 540.45 414.882 541.3 416.709 542.15 413.664 543 415.404 543.85 409.488 544.7 395.742 545.55 415.752 546.4 397.221 547.25 413.142 548.1 410.88 548.95 412.794 549.8 407.4 550.65 416.187 551.5 399.918 552.35 397.047 553.2 413.142 554.05 411.054 554.9 411.837 555.75 406.791 556.6 398.265 557.45 413.49 558.3 412.62 559.15 411.141 560 416.448 560.85 418.188 561.7 411.141 562.55 399.657 563.4 414.186 564.25 413.055 565.1 414.447 565.95 414.012 566.8 408.444 567.65 413.664 568.5 412.707 569.35 411.837 570.2 412.359 571.05 415.752 571.9 414.708 572.75 409.314 573.6 416.796 574.45 404.442 575.3 413.664 576.15 395.916 577 411.663 577.85 394.263 578.7 414.621 579.55 412.098 580.4 416.622 581.25 400.179 582.1 415.056 582.95 412.533 583.8 398.439 584.65 396.96 585.5 412.707 586.35 419.058 587.2 413.142 588.05 415.056 588.9 415.839 589.75 401.223 590.6 417.579 591.45 416.1 592.3 412.359 593.15 397.395 594 395.568 594.85 394.437 595.7 397.917 596.55 415.578 597.4 414.708 598.25 397.134 599.1 410.793 599.95 415.056 600.8 397.134 601.65 396.612 602.5 415.665 603.35 416.013 604.2 416.883 605.05 398.091 605.9 414.534 606.75 414.273 607.6 411.837 608.45 410.88 609.3 399.918 610.15 401.223 611 412.794 611.85 415.752 612.7 411.141 613.55 414.273 614.4 412.272 615.25 418.188 616.1 397.656 616.95 412.707 617.8 416.97 618.65 418.884 619.5 416.361 620.35 416.97 621.2 396.699 622.05 394.959 622.9 397.917 623.75 401.31 624.6 411.489 625.45 391.218 626.3 401.049 627.15 414.882 628 397.308 628.85 395.829 629.7 400.353 630.55 412.185 631.4 413.229 632.25 415.404 633.1 398.961 633.95 413.925 634.8 414.099 635.65 414.795 636.5 414.186 637.35 411.75 638.2 398.178 639.05 398.787 639.9 415.578 640.75 401.136 641.6 420.102 642.45 397.395 643.3 419.841 644.15 415.23 645 394.524 645.85 415.752 646.7 415.317 647.55 411.837 648.4 419.319 649.25 397.395 650.1 416.796 650.95 394.872 651.8 414.186 652.65 416.1 653.5 398.265 654.35 416.883 655.2 417.405 656.05 399.222 656.9 398.439 657.75 417.579 658.6 400.701 659.45 397.047 660.3 414.882 661.15 397.047 662 414.099 662.85 417.927 663.7 400.701 664.55 415.056 665.4 395.22 666.25 416.709 667.1 400.005 667.95 397.917 668.8 400.266 669.65 416.187 670.5 400.527 671.35 418.623 672.2 416.187 673.05 394.785 673.9 394.959 674.75 414.099 675.6 398.004 676.45 398.787 677.3 415.665 678.15 399.396 679 406.965 679.85 419.232 680.7 417.144 681.55 400.353 682.4 398.091 683.25 411.663 684.1 409.575 684.95 414.969 685.8 415.926 686.65 416.535 687.5 417.144 688.35 399.309 689.2 416.622 690.05 414.099 690.9 411.489 691.75 413.403 692.6 414.447 693.45 414.882 694.3 415.752 695.15 414.099 696 412.533 696.85 411.489 697.7 413.055 698.55 415.23 699.4 414.36 700.25 397.83 701.1 397.917 701.95 398.961 702.8 415.404 703.65 416.187 704.5 415.23 705.35 403.746 706.2 415.143 707.05 413.403 707.9 399.483 708.75 414.273 709.6 411.054 710.45 416.883 711.3 414.534 712.15 420.363 713 422.364 713.85 399.657 714.7 412.446 715.55 398.265 716.4 402.441 717.25 407.661 718.1 412.794 718.95 415.752 719.8 404.268 720.65 413.229 721.5 412.62 722.35 415.23 723.2 410.097 724.05 400.701 724.9 399.222 725.75 414.534 726.6 398.178 727.45 416.187 728.3 416.187 729.15 412.098 730 411.489 730.85 398.613 731.7 395.133 732.55 414.795 733.4 413.403 734.25 416.361 735.1 398.352 735.95 397.917 736.8 413.055 737.65 402.528 738.5 415.578 739.35 418.275 740.2 415.926 741.05 398.7 741.9 415.404 742.75 400.179 743.6 395.307 744.45 414.36 745.3 396.873 746.15 397.482 747 416.97 747.85 396.177 748.7 397.221 749.55 400.179 750.4 417.492 751.25 394.698 752.1 398.439 752.95 402.18 753.8 407.487 754.65 409.053 755.5 398.091 756.35 414.708 757.2 401.745 758.05 400.701 758.9 418.71 759.75 396.525 760.6 413.577 761.45 398.526 762.3 414.447 763.15 410.619 764 391.827 764.85 410.01 765.7 398.004 766.55 418.449 767.4 413.577 768.25 398.526 769.1 381.039 769.95 396.525 770.8 396.438 771.65 414.969 772.5 418.101 773.35 414.621 774.2 401.049 775.05 415.752 775.9 413.664 776.75 412.533 777.6 411.576 778.45 399.831 779.3 415.665 780.15 416.1 781 413.838 781.85 414.099 782.7 417.84 783.55 393.828 784.4 407.139 785.25 411.663 786.1 398.526 786.95 408.792 787.8 416.448 788.65 396.699 789.5 396.699 790.35 417.84 791.2 417.144 792.05 398.874 792.9 398.613 793.75 414.621 794.6 412.011 795.45 415.317 796.3 398.961 797.15 413.925 798 416.187 798.85 395.655 799.7 414.969 800.55 395.655 801.4 413.229 802.25 407.922 803.1 411.054 803.95 415.491 804.8 415.404 805.65 416.187 806.5 417.144 807.35 416.883 808.2 413.055 809.05 415.839 809.9 411.576 810.75 415.665 811.6 397.569 812.45 416.1 813.3 398.439 814.15 396.525 815 416.187 815.85 417.057 816.7 418.536 817.55 395.742 818.4 411.924 819.25 413.142 820.1 412.707 820.95 413.838 821.8 410.619 822.65 393.567 823.5 394.524 824.35 395.394 825.2 398.7 826.05 412.533 826.9 412.62 827.75 413.664 828.6 399.222 829.45 398.7 830.3 414.186 831.15 415.23 832 394.437 832.85 416.448 833.7 410.445 834.55 395.829 835.4 397.221 836.25 411.837 837.1 414.447 837.95 413.316 838.8 415.23 839.65 411.315 840.5 414.882 841.35 415.578 842.2 400.962 843.05 409.053 843.9 399.483 844.75 415.143 845.6 412.011 846.45 391.479 847.3 396.264 848.15 396.525 849 413.925 849.85 413.751 850.7 414.795 851.55 416.274 852.4 410.01 853.25 396.264 854.1 415.317 854.95 411.228 855.8 411.663 856.65 398.874 857.5 414.447 858.35 416.361 859.2 412.794 860.05 415.317 860.9 416.448 861.75 414.186 862.6 418.449 863.45 396.525 864.3 413.925 865.15 415.404 866 416.97 866.85 413.142 867.7 412.62 868.55 407.748 869.4 396.09 870.25 413.316 871.1 413.403 871.95 413.316 872.8 413.316 873.65 415.491 874.5 414.36 875.35 415.143 876.2 414.447 877.05 415.926 877.9 414.621 878.75 401.31 879.6 394.611 880.45 413.925 881.3 390.435 882.15 416.274 883 416.709 883.85 413.925 884.7 414.186 885.55 414.882 886.4 399.396 887.25 419.058 888.1 411.576 888.95 414.882 889.8 393.219 890.65 398.439 891.5 412.794 892.35 411.75 893.2 414.273 894.05 394.437 894.9 403.224 895.75 414.795 896.6 414.882 897.45 395.481 898.3 409.836 899.15 413.142 900 410.532 900.85 413.229 901.7 415.578 902.55 413.751 903.4 414.795 904.25 414.969 905.1 398.874 905.95 416.187 906.8 414.621 907.65 412.533 908.5 398.265 909.35 399.048 910.2 414.447 911.05 399.831 911.9 416.622 912.75 414.36 913.6 414.012 914.45 415.491 915.3 412.359 916.15 413.751 917 395.481 917.85 415.578 918.7 414.36 919.55 415.143 920.4 407.226 921.25 414.186 922.1 414.708 922.95 416.1 923.8 413.055 924.65 410.88 925.5 400.527 926.35 398.787 927.2 409.053 928.05 415.056 928.9 403.05 929.75 397.395 930.6 413.751 931.45 416.013 932.3 412.62 933.15 416.187 934 392.523 934.85 415.404 935.7 414.012 936.55 397.134 937.4 410.358 938.25 410.358 939.1 415.056 939.95 417.927 940.8 392.61 941.65 412.794 942.5 406.617 943.35 410.793 944.2 411.054 945.05 410.01 945.9 397.308 946.75 410.184 947.6 413.751 948.45 414.186 949.3 396.699 950.15 418.623 951 414.273 951.85 415.143 952.7 411.402 953.55 399.57 954.4 415.404 955.25 400.788 956.1 418.275 956.95 416.361 957.8 415.056 958.65 392.001 959.5 415.143 960.35 394.002 961.2 411.489 962.05 413.316 962.9 415.056 963.75 397.83 964.6 411.141 965.45 399.222 966.3 409.749 967.15 397.743 968 416.709 968.85 415.578 969.7 399.135 970.55 398.874 971.4 416.274 972.25 397.134 973.1 412.881 973.95 417.84 974.8 393.306 975.65 394.176 976.5 416.97 977.35 414.186 978.2 417.579 979.05 414.708 979.9 416.187 980.75 417.492 981.6 414.708 982.45 414.447 983.3 414.273 984.15 415.491 985 411.141 985.85 413.316 986.7 415.23 987.55 417.927 988.4 417.144 989.25 415.578 990.1 416.535 990.95 414.36 991.8 394.263 992.65 398.526 993.5 411.315 994.35 413.577 995.2 413.838 996.05 409.314 996.9 408.531 997.75 416.187 998.6 414.012 999.45 414.708 1000.3 414.273 1001.15 413.664 1002 396.438 1002.85 395.481 1003.7 412.62 1004.55 414.186 1005.4 416.361 1006.25 411.837 1007.1 415.491 1007.95 409.488 1008.8 410.967 1009.65 412.011 1010.5 411.663 1011.35 414.186 1012.2 409.401 1013.05 411.75 1013.9 406.704 1014.75 412.707 1015.6 409.14 1016.45 398.265 1017.3 418.014 1018.15 415.926 1019 416.796 1019.85 413.664 1020.7 398.874 1021.55 396.438 1022.4 394.872 1023.25 415.839 1024.1 414.621 1024.95 398.874 1025.8 415.491 1026.65 416.1 1027.5 399.222 1028.35 415.404 1029.2 393.306 1030.05 413.577 1030.9 415.926 1031.75 419.058 1032.6 393.132 1033.45 415.926 1034.3 414.099 1035.15 395.568 1036 406.878 1036.85 362.073 1037.7 416.796 1038.55 411.054 1039.4 415.317 1040.25 411.315 1041.1 412.794 1041.95 404.616 1042.8 413.403 1043.65 416.1 1044.5 415.317 1045.35 415.404 1046.2 410.88 1047.05 414.273 1047.9 399.483 1048.75 416.274 1049.6 416.274 1050.45 415.143 1051.3 416.796 1052.15 413.751 1053 411.75 1053.85 416.448 1054.7 417.927 1055.55 415.578 1056.4 416.1 1057.25 415.317 1058.1 416.187 1058.95 414.447 1059.8 413.664 1060.65 416.013 1061.5 416.448 1062.35 414.534 1063.2 416.535 1064.05 381.387 1064.9 414.969 1065.75 417.405 1066.6 417.492 1067.45 400.179 1068.3 413.229 1069.15 414.273 1070 410.358 1070.85 416.535 1071.7 415.491 1072.55 416.1 1073.4 409.401 1074.25 417.666 1075.1 400.788 1075.95 411.141 1076.8 414.621 1077.65 399.048 1078.5 411.837 1079.35 414.534 1080.2 416.1 1081.05 416.796 1081.9 412.62 1082.75 413.055 1083.6 408.183 1084.45 418.797 1085.3 407.313 1086.15 409.836 1087 415.317 1087.85 412.272 1088.7 401.31 1089.55 411.837 1090.4 414.882 1091.25 399.57 1092.1 416.187 1092.95 415.056 1093.8 397.917 1094.65 414.882 1095.5 399.657 1096.35 400.701 1097.2 415.143 1098.05 414.795 1098.9 410.967 1099.75 416.187 1100.6 416.187 1101.45 407.313 1102.3 416.448 1103.15 395.655 1104 411.576 1104.85 418.014 1105.7 397.917 1106.55 419.58 1107.4 412.968 1108.25 415.752 1109.1 398.352 1109.95 399.309 1110.8 399.222 1111.65 415.317 1112.5 401.223 1113.35 413.229 1114.2 405.834 1115.05 411.75 1115.9 411.75 1116.75 408.705 1117.6 412.272 1118.45 415.143 1119.3 413.055 1120.15 412.359 1121 398.004 1121.85 410.445 1122.7 413.403 1123.55 416.013 1124.4 391.479 1125.25 404.355 1126.1 416.1 1126.95 414.882 1127.8 412.446 1128.65 414.186 1129.5 408.705 1130.35 395.046 1131.2 413.838 1132.05 413.142 1132.9 414.795 1133.75 417.579 1134.6 413.316 1135.45 397.917 1136.3 396.09 1137.15 414.969 1138 415.665 1138.85 400.962 1139.7 413.055 1140.55 414.447 1141.4 412.62 1142.25 415.056 1143.1 414.795 1143.95 412.098 1144.8 414.708 1145.65 414.273 1146.5 412.794 1147.35 415.143 1148.2 414.099 1149.05 413.49 1149.9 401.223 1150.75 417.057 1151.6 416.622 1152.45 412.881 1153.3 414.708 1154.15 416.448 1155 412.881 1155.85 409.923 1156.7 416.709 1157.55 396.96 1158.4 415.752 1159.25 413.838 1160.1 412.185 1160.95 414.621 1161.8 413.142 1162.65 408.444 1163.5 395.742 1164.35 416.796 1165.2 411.402 1166.05 399.483 1166.9 412.359 1167.75 416.1 1168.6 416.274 1169.45 403.659 1170.3 395.481 1171.15 398.439 1172 416.883 1172.85 394.263 1173.7 414.969 1174.55 409.923 1175.4 415.23 1176.25 418.797 1177.1 414.36 1177.95 396.699 1178.8 416.448 1179.65 412.62 1180.5 415.578 1181.35 412.359 1182.2 416.709 1183.05 400.353 1183.9 416.535 1184.75 415.317 1185.6 413.316 1186.45 413.229 1187.3 415.665 1188.15 416.622 1189 410.706 1189.85 412.446 1190.7 416.187 1191.55 409.923 1192.4 413.316 1193.25 414.099 1194.1 416.274 1194.95 414.534 1195.8 400.44 1196.65 411.75 1197.5 416.622 1198.35 414.36 1199.2 413.838 1200.05 413.229 1200.9 415.926 1201.75 412.446 1202.6 415.143 1203.45 414.099 1204.3 418.188 1205.15 416.622 1206 417.144 1206.85 408.096 1207.7 401.223 1208.55 399.048 1209.4 418.449 1210.25 410.619 1211.1 414.012 1211.95 412.446 1212.8 412.011 1213.65 414.708 1214.5 413.751 1215.35 413.838 1216.2 417.579 1217.05 414.969 1217.9 416.013 1218.75 415.317 1219.6 413.055 1220.45 396.438 1221.3 412.707 1222.15 394.263 1223 404.268 1223.85 409.575 1224.7 417.666 1225.55 398.265 1226.4 411.663 1227.25 413.751 1228.1 408.183 1228.95 415.839 1229.8 417.84 1230.65 415.665 1231.5 403.746 1232.35 398.7 1233.2 415.752 1234.05 395.829 1234.9 415.839 1235.75 397.917 1236.6 414.708 1237.45 412.881 1238.3 402.702 1239.15 414.012 1240 415.926 1240.85 416.1 1241.7 412.881 1242.55 414.534 1243.4 414.099 1244.25 416.361 1245.1 413.316 1245.95 392.523 1246.8 399.222 1247.65 410.706 1248.5 414.012 1249.35 413.751 1250.2 412.185 1251.05 399.918 1251.9 414.534 1252.75 394.35 1253.6 415.752 1254.45 412.446 1255.3 412.707 1256.15 411.924 1257 406.008 1257.85 391.914 1258.7 396.003 1259.55 415.23 1260.4 416.274 1261.25 412.968 1262.1 414.186 1262.95 415.23 1263.8 415.404 1264.65 415.926 1265.5 414.012 1266.35 413.751 1267.2 413.838 1268.05 413.838 1268.9 397.743 1269.75 416.97 1270.6 417.492 1271.45 411.924 1272.3 417.231 1273.15 410.445 1274 394.437 1274.85 397.047 1275.7 395.22 1276.55 414.447 1277.4 417.579 1278.25 412.272 1279.1 398.439 1279.95 400.092 1280.8 395.22 1281.65 394.089 1282.5 415.143 1283.35 415.23 1284.2 412.185 1285.05 412.794 1285.9 415.056 1286.75 416.1 1287.6 415.926 1288.45 412.62 1289.3 417.318 1290.15 415.578 1291 413.403 1291.85 414.186 1292.7 414.534 1293.55 415.056 1294.4 414.099 1295.25 405.573 1296.1 414.795 1296.95 410.01 1297.8 414.708 1298.65 411.663 1299.5 412.185 1300.35 417.144 1301.2 400.266 1302.05 416.535 1302.9 413.925 1303.75 409.053 1304.6 413.142 1305.45 412.533 1306.3 417.492 1307.15 410.619 1308 397.917 1308.85 416.274 1309.7 406.704 1310.55 398.265 1311.4 417.753 1312.25 413.664 1313.1 414.708 1313.95 415.404 1314.8 414.186 1315.65 415.317 1316.5 412.185 1317.35 419.058 1318.2 416.1 1319.05 367.815 1319.9 413.142 1320.75 411.228 1321.6 416.883 1322.45 417.057 1323.3 415.839 1324.15 413.925 1325 422.799 1325.85 416.1 1326.7 407.4 1327.55 419.754 1328.4 417.405 1329.25 395.046 1330.1 412.185 1330.95 413.49 1331.8 394.872 1332.65 398.004 1333.5 414.012 1334.35 417.318 1335.2 416.361 1336.05 414.186 1336.9 417.666 1337.75 396.612 1338.6 415.839 1339.45 415.056 1340.3 419.145 1341.15 400.092 1342 416.274 1342.85 396.612 1343.7 416.535 1344.55 414.621 1345.4 416.796 1346.25 414.969 1347.1 417.84 1347.95 415.665 1348.8 397.917 1349.65 413.142 1350.5 415.752 1351.35 410.097 1352.2 414.099 1353.05 418.71 1353.9 415.926 1354.75 413.229 1355.6 416.1 1356.45 410.967 1357.3 398.439 1358.15 407.661 1359 397.482 1359.85 415.056 1360.7 412.707 1361.55 416.709 1362.4 416.274 1363.25 412.968 1364.1 418.275 1364.95 398.265 1365.8 400.092 1366.65 413.229 1367.5 411.837 1368.35 396.09 1369.2 398.439 1370.05 401.049 1370.9 395.742 1371.75 414.621 1372.6 414.012 1373.45 416.1 1374.3 416.448 1375.15 397.221 1376 375.123 1376.85 415.665 1377.7 416.448 1378.55 401.31 1379.4 408.357 1380.25 416.535 1381.1 413.838 1381.95 398.178 1382.8 412.62 1383.65 416.013 1384.5 411.402 1385.35 394.611 1386.2 413.055 1387.05 418.014 1387.9 412.011 1388.75 416.883 1389.6 395.916 1390.45 399.57 1391.3 407.574 1392.15 411.402 1393 414.534 1393.85 416.187 1394.7 418.797 1395.55 417.492 1396.4 415.404 1397.25 413.055 1398.1 400.092 1398.95 413.055 1399.8 416.622 1400.65 412.011 1401.5 415.926 1402.35 415.578 1403.2 416.361 1404.05 412.446 1404.9 416.361 1405.75 413.49 1406.6 400.179 1407.45 415.578 1408.3 399.918 1409.15 398.613 1410 410.358 1410.85 414.708 1411.7 415.578 1412.55 396.525 1413.4 418.449 1414.25 412.881 1415.1 403.485 1415.95 415.839 1416.8 404.442 1417.65 419.319 1418.5 417.057 1419.35 419.319 1420.2 418.449 1421.05 415.839 1421.9 399.483 1422.75 396.351 1423.6 420.015 1424.45 414.099 1425.3 407.574 1426.15 415.23 1427 417.492 1427.85 418.014 1428.7 417.492 1429.55 415.23 1430.4 414.447 1431.25 411.489 1432.1 399.396 1432.95 415.23 1433.8 416.535 1434.65 412.707 1435.5 417.492 1436.35 414.795 1437.2 415.491 1438.05 410.706 1438.9 416.1 1439.75 413.403 1440.6 414.012 1441.45 416.97 1442.3 417.318 1443.15 419.58 1444 418.884 1444.85 416.448 1445.7 414.708 1446.55 413.49 1447.4 396.699 1448.25 417.405 1449.1 415.839 1449.95 416.709 1450.8 416.448 1451.65 416.622 1452.5 412.968 1453.35 415.056 1454.2 413.838 1455.05 413.403 1455.9 414.795 1456.75 411.228 1457.6 414.621 1458.45 412.359 1459.3 416.274 1460.15 410.532 1461 414.534 1461.85 412.533 1462.7 413.055 1463.55 414.012 1464.4 415.926 1465.25 414.36 1466.1 417.144 1466.95 414.186 1467.8 417.84 1468.65 416.622 1469.5 414.36 1470.35 417.492 1471.2 415.317 1472.05 416.187 1472.9 414.447 1473.75 417.144 1474.6 415.143 1475.45 416.796 1476.3 415.665 1477.15 413.403 1478 409.836 1478.85 416.883 1479.7 417.753 1480.55 416.013 1481.4 414.534 1482.25 417.231 1483.1 412.272 1483.95 414.969 1484.8 417.231 1485.65 412.359 1486.5 406.008 1487.35 414.969 1488.2 416.535 1489.05 413.751 1489.9 414.099 1490.75 417.057 1491.6 411.75 1492.45 415.23 1493.3 405.66 1494.15 416.1 1495 413.751 1495.85 414.795 1496.7 415.926 1497.55 417.666 1498.4 416.97 1499.25 398.265 1500.1 403.572 1500.95 415.926 1501.8 416.535 1502.65 411.489 1503.5 414.273 1504.35 415.926 1505.2 410.793 1506.05 413.403 1506.9 410.619 1507.75 412.446 1508.6 414.36 1509.45 404.616 1510.3 415.404 1511.15 417.666 1512 417.927 1512.85 414.447 1513.7 416.97 1514.55 415.839 1515.4 417.753 1516.25 419.406 1517.1 401.658 1517.95 414.969 1518.8 418.971 1519.65 417.057 1520.5 416.361 1521.35 418.014 1522.2 418.449 1523.05 400.701 1523.9 416.187 1524.75 418.623 1525.6 417.144 1526.45 419.058 1527.3 416.448 1528.15 415.404 1529 420.276 1529.85 418.362 1530.7 418.014 1531.55 412.446 1532.4 414.273 1533.25 419.841 1534.1 411.054 1534.95 413.316 1535.8 417.231 1536.65 414.447 1537.5 417.405 1538.35 416.709 1539.2 416.709 1540.05 418.188 1540.9 401.049 1541.75 416.535 1542.6 413.403 1543.45 416.448 1544.3 401.484 1545.15 412.968 1546 414.534 1546.85 418.449 1547.7 418.797 1548.55 420.45 1549.4 415.752 1550.25 404.094 1551.1 418.71 1551.95 419.58 1552.8 418.449 1553.65 419.232 1554.5 415.926 1555.35 415.752 1556.2 416.187 1557.05 409.401 1557.9 415.752 1558.75 397.221 1559.6 416.1 1560.45 415.926 1561.3 412.707 1562.15 416.535 1563 411.924 1563.85 412.707 1564.7 412.185 1565.55 417.927 1566.4 418.797 1567.25 399.657 1568.1 410.793 1568.95 417.753 1569.8 415.404 1570.65 416.013 1571.5 416.448 1572.35 419.319 1573.2 417.318 1574.05 415.926 1574.9 416.709 1575.75 417.579 1576.6 414.099 1577.45 415.056 1578.3 416.97 1579.15 413.229 1580 399.831 1580.85 413.229 1581.7 411.837 1582.55 411.663 1583.4 415.317 1584.25 415.665 1585.1 408.531 1585.95 412.359 1586.8 416.013 1587.65 414.099 1588.5 411.141 1589.35 408.27 1590.2 408.966 1591.05 409.314 1591.9 414.36 1592.75 414.708 1593.6 411.315 1594.45 412.707 1595.3 409.401 1596.15 414.099 1597 392.349 1597.85 404.181 1598.7 413.403 1599.55 412.62 1600.4 415.143 1601.25 414.447 1602.1 395.046 1602.95 410.706 1603.8 410.706 1604.65 413.925 1605.5 414.36 1606.35 412.794 1607.2 416.1 1608.05 395.046 1608.9 395.916 1609.75 414.882 1610.6 415.665 1611.45 415.926 1612.3 396.699 1613.15 416.97 1614 413.229 1614.85 421.059 1615.7 418.449 1616.55 416.883 1617.4 413.403 1618.25 415.23 1619.1 416.274 1619.95 418.362 1620.8 417.318 1621.65 419.406 1622.5 415.491 1623.35 414.882 1624.2 414.36 1625.05 412.185 1625.9 388.086 1626.75 414.447 1627.6 415.839 1628.45 418.623 1629.3 417.144 1630.15 414.099 1631 417.579 1631.85 390.957 1632.7 418.536 1633.55 413.229 1634.4 414.534 1635.25 417.927 1636.1 416.1 1636.95 419.754 1637.8 417.057 1638.65 417.579 1639.5 395.481 1640.35 417.753 1641.2 416.622 1642.05 417.579 1642.9 415.665 1643.75 418.884 1644.6 416.97 1645.45 418.623 1646.3 417.753 1647.15 415.143 1648 415.404 1648.85 417.492 1649.7 416.883 1650.55 390.435 1651.4 419.232 1652.25 415.839 1653.1 415.056 1653.95 417.231 1654.8 416.883 1655.65 415.665 1656.5 418.536 1657.35 418.362 1658.2 416.883 1659.05 417.579 1659.9 414.099 1660.75 418.884 1661.6 414.795 1662.45 419.319 1663.3 415.404 1664.15 413.664 1665 416.883 1665.85 416.448 1666.7 412.707 1667.55 413.316 1668.4 414.447 1669.25 416.361 1670.1 418.362 1670.95 415.752 1671.8 415.056 1672.65 401.745 1673.5 417.231 1674.35 418.71 1675.2 416.274 1676.05 417.405 1676.9 415.491 1677.75 400.962 1678.6 417.666 1679.45 414.36 1680.3 413.838 1681.15 416.448 1682 414.273 1682.85 415.23 1683.7 416.187 1684.55 415.317 1685.4 411.663 1686.25 415.578 1687.1 415.578 1687.95 416.883 1688.8 416.883 1689.65 415.665 1690.5 413.316 1691.35 417.318 1692.2 420.015 1693.05 416.796 1693.9 418.71 1694.75 411.054 1695.6 415.143 1696.45 416.97 1697.3 414.273 1698.15 414.36 1699 416.361 1699.85 415.752 1700.7 411.141 1701.55 416.709 1702.4 414.186 1703.25 413.055 1704.1 413.751 1704.95 417.492 1705.8 418.71 1706.65 414.012 1707.5 414.708 1708.35 416.274 1709.2 417.666 1710.05 413.229 1710.9 412.794 1711.75 416.013 1712.6 413.403 1713.45 414.969 1714.3 399.396 1715.15 414.882 1716 416.1 1716.85 411.663 1717.7 415.317 1718.55 416.622 1719.4 416.448 1720.25 414.621 1721.1 415.143 1721.95 418.014 1722.8 417.057 1723.65 407.139 1724.5 413.751 1725.35 415.752 1726.2 417.144 1727.05 415.23 1727.9 399.222 1728.75 415.23 1729.6 414.882 1730.45 415.404 1731.3 418.797 1732.15 414.795 1733 417.84 1733.85 415.404 1734.7 417.405 1735.55 413.751 1736.4 416.448 1737.25 412.272 1738.1 416.1 1738.95 415.752 1739.8 410.271 1740.65 414.534 1741.5 407.4 1742.35 418.884 1743.2 416.796 1744.05 399.309 1744.9 416.1 1745.75 419.145 1746.6 420.102 1747.45 418.971 1748.3 418.971" style="fill:none;stroke-width:1.5;clip-path:url(#graphArea)"/><polyline id="Stat_1_Animation/Total/ExtractPoseFromAnimData_decomp_matinee_pc" stroke="#F60" points="50 477 50.85 477 51.7 117.429 52.55 294.735 53.4 259.5 54.25 289.254 55.1 284.556 55.95 253.671 56.8 247.233 57.65 246.798 58.5 268.635 59.35 263.937 60.2 301.434 61.05 298.215 61.9 285.6 62.75 190.509 63.6 249.582 64.45 271.68 65.3 268.2 66.15 296.562 67 300.39 67.85 264.72 68.7 256.455 69.55 260.109 70.4 257.412 71.25 269.94 72.1 270.897 72.95 294.648 73.8 302.304 74.65 111.513 75.5 246.015 76.35 249.147 77.2 239.664 78.05 264.372 78.9 279.771 79.75 274.551 80.6 259.326 81.45 282.816 82.3 279.945 83.15 307.437 84 294.474 84.85 316.137 85.7 272.637 86.55 261.327 87.4 268.026 88.25 218.871 89.1 249.582 89.95 221.742 90.8 279.597 91.65 279.945 92.5 215.739 93.35 258.108 94.2 263.676 95.05 275.595 95.9 318.573 96.75 337.017 97.6 289.428 98.45 190.161 99.3 281.076 100.15 277.944 101 279.162 101.85 254.628 102.7 316.224 103.55 275.769 104.4 246.015 105.25 260.283 106.1 285.252 106.95 310.917 107.8 258.021 108.65 277.509 109.5 275.073 110.35 278.64 111.2 295.083 112.05 270.375 112.9 282.555 113.75 247.407 114.6 296.562 115.45 277.857 116.3 262.284 117.15 297.867 118 292.299 118.85 288.645 119.7 304.131 120.55 286.209 121.4 285.861 122.25 247.494 123.1 277.509 123.95 291.864 124.8 267.504 125.65 249.843 126.5 279.684 127.35 268.983 128.2 216.435 129.05 244.623 129.9 271.419 130.75 284.295 131.6 290.298 132.45 266.112 133.3 262.719 134.15 197.904 135 291.603 135.85 287.427 136.7 289.515 137.55 259.239 138.4 254.802 139.25 320.748 140.1 271.941 140.95 293.604 141.8 295.083 142.65 296.127 143.5 268.2 144.35 244.101 145.2 285.687 146.05 245.754 146.9 265.503 147.75 274.812 148.6 284.034 149.45 256.542 150.3 254.367 151.15 285.339 152 270.027 152.85 283.686 153.7 261.24 154.55 270.462 155.4 262.632 156.25 270.549 157.1 280.902 157.95 250.017 158.8 272.463 159.65 285.687 160.5 272.811 161.35 280.032 162.2 315.528 163.05 250.452 163.9 253.671 164.75 265.764 165.6 293.604 166.45 276.639 167.3 286.47 168.15 255.063 169 248.886 169.85 251.061 170.7 247.146 171.55 273.072 172.4 259.5 173.25 260.805 174.1 262.893 174.95 273.246 175.8 292.908 176.65 266.199 177.5 264.372 178.35 261.501 179.2 262.023 180.05 282.816 180.9 295.344 181.75 260.457 182.6 270.375 183.45 260.544 184.3 255.498 185.15 274.203 186 267.939 186.85 253.671 187.7 240.882 188.55 253.062 189.4 272.637 190.25 266.547 191.1 238.533 191.95 292.212 192.8 261.24 193.65 277.422 194.5 227.571 195.35 281.946 196.2 227.745 197.05 229.224 197.9 255.063 198.75 274.812 199.6 269.244 200.45 260.544 201.3 219.306 202.15 239.316 203 288.123 203.85 239.316 204.7 252.279 205.55 272.463 206.4 244.449 207.25 259.935 208.1 233.835 208.95 223.395 209.8 268.635 210.65 268.809 211.5 287.514 212.35 263.328 213.2 284.643 214.05 271.419 214.9 275.16 215.75 255.237 216.6 212.259 217.45 271.854 218.3 269.418 219.15 234.444 220 259.239 220.85 268.113 221.7 238.794 222.55 241.665 223.4 257.151 224.25 278.031 225.1 256.803 225.95 244.101 226.8 251.496 227.65 270.288 228.5 286.47 229.35 88.284 230.2 249.06 231.05 263.241 231.9 251.496 232.75 215.217 233.6 235.836 234.45 251.235 235.3 272.463 236.15 257.934 237 220.176 237.85 262.893 238.7 258.978 239.55 243.927 240.4 272.289 241.25 268.374 242.1 231.486 242.95 264.981 243.8 269.331 244.65 271.158 245.5 246.189 246.35 248.625 247.2 259.674 248.05 239.229 248.9 266.286 249.75 229.398 250.6 244.188 251.45 254.28 252.3 256.716 253.15 256.281 254 243.057 254.85 257.847 255.7 266.373 256.55 231.66 257.4 266.547 258.25 259.848 259.1 261.066 259.95 224.439 260.8 204.255 261.65 240.447 262.5 248.364 263.35 264.285 264.2 263.328 265.05 271.506 265.9 258.282 266.75 255.063 267.6 258.021 268.45 247.668 269.3 278.292 270.15 273.333 271 242.361 271.85 261.501 272.7 265.764 273.55 269.157 274.4 207.474 275.25 234.096 276.1 203.298 276.95 229.311 277.8 251.409 278.65 267.243 279.5 196.425 280.35 245.319 281.2 225.831 282.05 238.533 282.9 248.277 283.75 250.626 284.6 251.148 285.45 241.926 286.3 262.284 287.15 259.587 288 260.892 288.85 259.239 289.7 241.056 290.55 267.852 291.4 267.765 292.25 229.833 293.1 250.974 293.95 250.191 294.8 234.618 295.65 257.151 296.5 244.101 297.35 270.462 298.2 257.673 299.05 219.48 299.9 259.239 300.75 268.983 301.6 247.059 302.45 262.806 303.3 210.954 304.15 294.126 305 198.948 305.85 248.277 306.7 238.707 307.55 197.904 308.4 282.903 309.25 254.889 310.1 273.768 310.95 226.005 311.8 250.191 312.65 246.972 313.5 246.45 314.35 205.821 315.2 258.804 316.05 225.831 316.9 217.479 317.75 279.423 318.6 262.545 319.45 273.681 320.3 269.94 321.15 222.177 322 231.921 322.85 258.195 323.7 242.622 324.55 262.98 325.4 261.327 326.25 262.545 327.1 194.598 327.95 282.294 328.8 276.987 329.65 255.846 330.5 235.14 331.35 236.706 332.2 272.289 333.05 255.933 333.9 222.873 334.75 267.852 335.6 252.192 336.45 261.24 337.3 251.757 338.15 259.413 339 274.029 339.85 239.49 340.7 217.566 341.55 216.174 342.4 283.686 343.25 232.443 344.1 250.191 344.95 227.049 345.8 226.179 346.65 215.391 347.5 225.918 348.35 223.656 349.2 258.108 350.05 244.623 350.9 290.82 351.75 242.883 352.6 251.061 353.45 250.713 354.3 247.494 355.15 226.266 356 226.875 356.85 223.569 357.7 224.439 358.55 246.711 359.4 241.752 360.25 216.174 361.1 228.789 361.95 204.777 362.8 225.309 363.65 214.695 364.5 243.057 365.35 236.445 366.2 255.15 367.05 217.653 367.9 240.534 368.75 248.364 369.6 210.432 370.45 263.241 371.3 232.008 372.15 240.273 373 229.572 373.85 269.157 374.7 260.979 375.55 222.177 376.4 242.448 377.25 226.962 378.1 248.886 378.95 222.351 379.8 237.75 380.65 220.698 381.5 234.531 382.35 243.405 383.2 272.637 384.05 272.724 384.9 270.897 385.75 262.806 386.6 226.005 387.45 240.621 388.3 253.41 389.15 271.071 390 278.031 390.85 242.535 391.7 271.071 392.55 247.929 393.4 245.406 394.25 234.27 395.1 236.097 395.95 251.322 396.8 236.706 397.65 258.456 398.5 260.283 399.35 255.411 400.2 259.761 401.05 259.674 401.9 251.409 402.75 261.849 403.6 236.358 404.45 247.842 405.3 252.366 406.15 258.456 407 247.32 407.85 251.844 408.7 232.269 409.55 275.334 410.4 243.057 411.25 243.405 412.1 243.144 412.95 222.873 413.8 231.486 414.65 237.576 415.5 244.362 416.35 258.195 417.2 227.745 418.05 260.109 418.9 238.881 419.75 221.307 420.6 223.482 421.45 278.814 422.3 222.96 423.15 221.307 424 224.439 424.85 237.837 425.7 250.365 426.55 236.184 427.4 242.709 428.25 220.002 429.1 234.705 429.95 254.193 430.8 244.449 431.65 266.895 432.5 250.887 433.35 254.541 434.2 191.901 435.05 224.874 435.9 220.524 436.75 254.193 437.6 247.407 438.45 247.668 439.3 254.715 440.15 223.308 441 221.916 441.85 203.994 442.7 238.446 443.55 201.297 444.4 217.392 445.25 244.536 446.1 219.393 446.95 212.085 447.8 247.494 448.65 243.753 449.5 237.489 450.35 241.404 451.2 224.526 452.05 229.746 452.9 237.489 453.75 228.702 454.6 215.478 455.45 246.363 456.3 237.489 457.15 213.303 458 248.886 458.85 239.229 459.7 239.925 460.55 234.531 461.4 223.83 462.25 264.633 463.1 244.362 463.95 267.852 464.8 270.288 465.65 243.492 466.5 259.5 467.35 236.706 468.2 257.847 469.05 256.368 469.9 225.309 470.75 259.587 471.6 249.408 472.45 262.893 473.3 233.139 474.15 247.233 475 252.714 475.85 242.796 476.7 255.585 477.55 230.877 478.4 229.833 479.25 226.527 480.1 235.575 480.95 229.224 481.8 227.571 482.65 207.735 483.5 198.252 484.35 208.518 485.2 228.963 486.05 218.61 486.9 224.178 487.75 223.569 488.6 225.135 489.45 234.27 490.3 200.253 491.15 219.915 492 239.142 492.85 251.322 493.7 235.14 494.55 215.565 495.4 228.006 496.25 245.928 497.1 241.056 497.95 244.449 498.8 234.009 499.65 235.14 500.5 231.921 501.35 240.186 502.2 237.576 503.05 230.79 503.9 233.226 504.75 222.351 505.6 215.826 506.45 241.578 507.3 225.483 508.15 234.531 509 215.391 509.85 215.13 510.7 235.836 511.55 239.142 512.4 176.415 513.25 228.528 514.1 154.665 514.95 207.996 515.8 205.212 516.65 196.512 517.5 190.074 518.35 223.569 519.2 239.403 520.05 250.887 520.9 212.694 521.75 219.48 522.6 234.096 523.45 196.251 524.3 232.356 525.15 239.49 526 216.087 526.85 238.011 527.7 251.757 528.55 262.806 529.4 230.529 530.25 219.045 531.1 191.64 531.95 181.896 532.8 212.52 533.65 226.353 534.5 232.791 535.35 238.533 536.2 231.747 537.05 227.571 537.9 207.996 538.75 210.78 539.6 206.43 540.45 201.384 541.3 207.039 542.15 198.426 543 204.777 543.85 240.447 544.7 238.098 545.55 252.453 546.4 242.622 547.25 219.132 548.1 243.84 548.95 232.269 549.8 235.227 550.65 225.222 551.5 209.997 552.35 180.591 553.2 230.268 554.05 223.047 554.9 245.232 555.75 248.625 556.6 228.876 557.45 243.579 558.3 240.969 559.15 228.963 560 236.184 560.85 234.096 561.7 245.058 562.55 245.928 563.4 225.483 564.25 183.027 565.1 216.957 565.95 197.904 566.8 203.646 567.65 232.182 568.5 237.054 569.35 222.351 570.2 240.447 571.05 218.61 571.9 228.876 572.75 220.089 573.6 232.095 574.45 190.596 575.3 201.732 576.15 210.519 577 216.522 577.85 199.731 578.7 196.947 579.55 254.367 580.4 204.951 581.25 225.918 582.1 227.049 582.95 219.567 583.8 216.261 584.65 204.777 585.5 222.09 586.35 215.304 587.2 191.814 588.05 218.436 588.9 221.481 589.75 204.951 590.6 222.177 591.45 221.568 592.3 214.434 593.15 225.396 594 212.955 594.85 214.173 595.7 217.305 596.55 221.046 597.4 227.658 598.25 190.335 599.1 189.378 599.95 230.094 600.8 227.223 601.65 202.341 602.5 202.689 603.35 220.959 604.2 220.263 605.05 228.963 605.9 235.053 606.75 232.965 607.6 235.836 608.45 225.396 609.3 225.222 610.15 116.037 611 194.25 611.85 183.81 612.7 208.779 613.55 189.291 614.4 147.27 615.25 199.47 616.1 221.481 616.95 182.766 617.8 224.613 618.65 225.048 619.5 238.011 620.35 222.612 621.2 222.873 622.05 196.947 622.9 158.493 623.75 222.264 624.6 213.303 625.45 214.608 626.3 196.512 627.15 228.963 628 229.224 628.85 234.531 629.7 220.872 630.55 201.993 631.4 221.742 632.25 213.477 633.1 197.034 633.95 211.128 634.8 184.593 635.65 199.47 636.5 218.349 637.35 203.385 638.2 221.22 639.05 224.265 639.9 215.217 640.75 206.169 641.6 198.774 642.45 194.163 643.3 220.959 644.15 202.254 645 207.909 645.85 230.268 646.7 208.692 647.55 204.429 648.4 222.699 649.25 212.346 650.1 215.913 650.95 211.389 651.8 221.655 652.65 206.691 653.5 195.555 654.35 226.701 655.2 198.513 656.05 180.156 656.9 195.468 657.75 199.557 658.6 220.002 659.45 226.962 660.3 209.214 661.15 219.654 662 240.882 662.85 226.701 663.7 227.745 664.55 219.567 665.4 234.705 666.25 229.833 667.1 253.584 667.95 248.712 668.8 239.751 669.65 239.316 670.5 206.604 671.35 203.82 672.2 221.481 673.05 222.003 673.9 219.48 674.75 208.779 675.6 225.048 676.45 226.266 677.3 211.65 678.15 203.211 679 211.128 679.85 218.349 680.7 231.834 681.55 216.174 682.4 206.865 683.25 217.305 684.1 189.291 684.95 212.781 685.8 226.788 686.65 210.867 687.5 226.701 688.35 152.316 689.2 216.087 690.05 188.334 690.9 226.788 691.75 213.477 692.6 221.829 693.45 191.727 694.3 226.614 695.15 160.407 696 203.646 696.85 209.04 697.7 195.729 698.55 220.176 699.4 202.863 700.25 203.994 701.1 216 701.95 187.203 702.8 212.172 703.65 227.919 704.5 180.069 705.35 190.509 706.2 209.127 707.05 195.729 707.9 175.371 708.75 210.432 709.6 211.476 710.45 193.989 711.3 196.86 712.15 216.87 713 209.127 713.85 236.358 714.7 259.152 715.55 237.315 716.4 228.789 717.25 219.567 718.1 206.604 718.95 177.111 719.8 202.428 720.65 195.642 721.5 242.796 722.35 228.789 723.2 172.326 724.05 188.16 724.9 185.637 725.75 194.511 726.6 179.982 727.45 183.549 728.3 209.04 729.15 244.797 730 223.83 730.85 231.051 731.7 206.604 732.55 217.74 733.4 186.42 734.25 210.606 735.1 201.906 735.95 201.558 736.8 203.559 737.65 206.343 738.5 172.935 739.35 220.785 740.2 208.17 741.05 225.918 741.9 224.091 742.75 215.217 743.6 224.004 744.45 211.563 745.3 229.137 746.15 238.62 747 241.926 747.85 208.866 748.7 218.871 749.55 195.642 750.4 196.686 751.25 204.951 752.1 189.378 752.95 189.378 753.8 225.657 754.65 222.177 755.5 236.01 756.35 213.912 757.2 220.698 758.05 219.567 758.9 232.791 759.75 252.54 760.6 222.612 761.45 201.645 762.3 192.684 763.15 141.006 764 205.908 764.85 207.126 765.7 244.536 766.55 229.137 767.4 232.965 768.25 259.5 769.1 210.606 769.95 188.769 770.8 195.816 771.65 204.342 772.5 226.614 773.35 232.878 774.2 223.656 775.05 201.645 775.9 202.95 776.75 189.987 777.6 205.647 778.45 209.736 779.3 245.319 780.15 218.697 781 183.114 781.85 179.373 782.7 207.822 783.55 207.387 784.4 207.126 785.25 170.151 786.1 227.484 786.95 226.092 787.8 251.496 788.65 205.038 789.5 236.88 790.35 217.131 791.2 241.23 792.05 201.123 792.9 226.44 793.75 223.395 794.6 189.726 795.45 219.48 796.3 247.32 797.15 208.692 798 212.868 798.85 218.001 799.7 198.6 800.55 239.577 801.4 219.567 802.25 193.38 803.1 208.866 803.95 222.003 804.8 161.103 805.65 229.05 806.5 272.115 807.35 249.321 808.2 225.744 809.05 189.117 809.9 222.612 810.75 213.39 811.6 234.357 812.45 223.917 813.3 180.069 814.15 183.201 815 215.652 815.85 253.062 816.7 239.49 817.55 215.217 818.4 214.434 819.25 201.906 820.1 217.218 820.95 180.156 821.8 185.463 822.65 231.747 823.5 236.358 824.35 240.795 825.2 226.614 826.05 224.004 826.9 216.174 827.75 222.003 828.6 224.787 829.45 202.515 830.3 223.221 831.15 236.793 832 218.175 832.85 252.453 833.7 194.337 834.55 194.25 835.4 241.143 836.25 248.886 837.1 218.088 837.95 238.098 838.8 200.688 839.65 225.57 840.5 239.055 841.35 227.658 842.2 230.355 843.05 218.784 843.9 218.436 844.75 236.88 845.6 203.472 846.45 207.648 847.3 208.866 848.15 223.656 849 221.046 849.85 176.241 850.7 229.659 851.55 220.002 852.4 233.574 853.25 195.642 854.1 223.743 854.95 199.644 855.8 228.093 856.65 221.568 857.5 222.351 858.35 210.78 859.2 224.961 860.05 218.088 860.9 210.78 861.75 218.436 862.6 208.344 863.45 187.986 864.3 213.912 865.15 238.533 866 200.688 866.85 198.339 867.7 243.492 868.55 238.968 869.4 209.649 870.25 166.149 871.1 197.295 871.95 210.345 872.8 212.259 873.65 228.354 874.5 208.866 875.35 190.596 876.2 224.787 877.05 253.584 877.9 212.172 878.75 221.829 879.6 227.484 880.45 218.958 881.3 213.303 882.15 231.399 883 220.785 883.85 203.646 884.7 215.13 885.55 232.704 886.4 226.179 887.25 222.177 888.1 231.921 888.95 197.556 889.8 220.35 890.65 213.912 891.5 229.398 892.35 223.134 893.2 169.542 894.05 204.951 894.9 220.698 895.75 217.74 896.6 251.67 897.45 234.357 898.3 242.187 899.15 237.489 900 224.004 900.85 226.701 901.7 234.792 902.55 211.476 903.4 227.049 904.25 211.476 905.1 228.441 905.95 221.655 906.8 240.708 907.65 222.612 908.5 225.831 909.35 222.96 910.2 189.03 911.05 222.438 911.9 238.011 912.75 230.007 913.6 224.874 914.45 227.658 915.3 221.394 916.15 199.644 917 215.913 917.85 185.811 918.7 225.57 919.55 228.615 920.4 187.986 921.25 234.357 922.1 227.397 922.95 239.055 923.8 217.479 924.65 225.309 925.5 231.747 926.35 219.567 927.2 212.346 928.05 203.646 928.9 200.427 929.75 219.828 930.6 197.643 931.45 213.999 932.3 225.135 933.15 187.29 934 205.995 934.85 191.64 935.7 230.877 936.55 196.338 937.4 225.309 938.25 212.955 939.1 236.184 939.95 229.311 940.8 213.39 941.65 213.477 942.5 227.049 943.35 216.435 944.2 224.874 945.05 201.036 945.9 221.22 946.75 234.966 947.6 231.921 948.45 228.876 949.3 192.249 950.15 200.253 951 226.179 951.85 230.007 952.7 226.353 953.55 205.038 954.4 193.206 955.25 231.834 956.1 231.747 956.95 237.402 957.8 175.11 958.65 187.377 959.5 207.387 960.35 230.268 961.2 231.573 962.05 230.442 962.9 213.564 963.75 221.742 964.6 235.749 965.45 233.313 966.3 235.836 967.15 221.394 968 232.008 968.85 245.058 969.7 223.134 970.55 200.427 971.4 226.527 972.25 219.045 973.1 198.513 973.95 204.342 974.8 192.162 975.65 194.946 976.5 204.516 977.35 178.59 978.2 191.64 979.05 208.779 979.9 201.297 980.75 235.053 981.6 235.314 982.45 242.013 983.3 232.704 984.15 227.049 985 230.355 985.85 245.232 986.7 236.793 987.55 219.915 988.4 202.341 989.25 229.398 990.1 220.002 990.95 218.784 991.8 206.517 992.65 200.514 993.5 216.087 994.35 171.63 995.2 201.645 996.05 205.734 996.9 192.684 997.75 218.958 998.6 228.615 999.45 207.561 1000.3 230.616 1001.15 217.305 1002 224.178 1002.85 215.565 1003.7 207.996 1004.55 228.963 1005.4 206.343 1006.25 211.302 1007.1 194.163 1007.95 247.059 1008.8 197.382 1009.65 224.352 1010.5 233.313 1011.35 201.732 1012.2 220.785 1013.05 211.998 1013.9 221.568 1014.75 210.78 1015.6 202.428 1016.45 191.205 1017.3 218.697 1018.15 207.996 1019 210.084 1019.85 232.878 1020.7 199.557 1021.55 233.748 1022.4 219.915 1023.25 239.142 1024.1 191.118 1024.95 119.256 1025.8 211.302 1026.65 235.314 1027.5 225.57 1028.35 230.877 1029.2 198.513 1030.05 218.175 1030.9 191.031 1031.75 208.083 1032.6 214.956 1033.45 230.877 1034.3 223.482 1035.15 226.266 1036 172.935 1036.85 168.063 1037.7 178.242 1038.55 201.21 1039.4 218.001 1040.25 199.035 1041.1 219.48 1041.95 224.439 1042.8 224.091 1043.65 218.523 1044.5 225.57 1045.35 237.837 1046.2 215.739 1047.05 204.603 1047.9 232.965 1048.75 228.441 1049.6 229.05 1050.45 230.268 1051.3 211.389 1052.15 199.209 1053 228.267 1053.85 234.444 1054.7 217.131 1055.55 237.315 1056.4 180.852 1057.25 212.868 1058.1 222.351 1058.95 188.682 1059.8 237.054 1060.65 213.042 1061.5 216.348 1062.35 220.524 1063.2 225.135 1064.05 229.05 1064.9 220.872 1065.75 219.915 1066.6 233.922 1067.45 211.737 1068.3 199.818 1069.15 229.05 1070 250.017 1070.85 205.299 1071.7 212.433 1072.55 229.746 1073.4 224.526 1074.25 172.848 1075.1 228.354 1075.95 223.395 1076.8 205.734 1077.65 238.098 1078.5 245.928 1079.35 238.533 1080.2 218.175 1081.05 221.916 1081.9 225.918 1082.75 221.742 1083.6 227.31 1084.45 210.693 1085.3 226.788 1086.15 229.137 1087 226.353 1087.85 234.792 1088.7 241.404 1089.55 222.873 1090.4 243.231 1091.25 224.178 1092.1 230.964 1092.95 219.654 1093.8 218.523 1094.65 221.655 1095.5 228.615 1096.35 210.693 1097.2 223.308 1098.05 209.823 1098.9 234.966 1099.75 206.256 1100.6 205.212 1101.45 201.906 1102.3 220.959 1103.15 199.296 1104 239.577 1104.85 215.304 1105.7 203.994 1106.55 226.179 1107.4 217.392 1108.25 218.001 1109.1 219.567 1109.95 201.21 1110.8 212.694 1111.65 170.325 1112.5 240.795 1113.35 212.085 1114.2 214.782 1115.05 237.315 1115.9 213.912 1116.75 207.561 1117.6 228.441 1118.45 238.794 1119.3 222.786 1120.15 236.01 1121 227.31 1121.85 177.807 1122.7 231.051 1123.55 214.26 1124.4 220.35 1125.25 229.398 1126.1 225.57 1126.95 223.134 1127.8 228.702 1128.65 229.659 1129.5 205.734 1130.35 221.481 1131.2 245.232 1132.05 245.58 1132.9 232.704 1133.75 235.314 1134.6 219.48 1135.45 189.639 1136.3 182.07 1137.15 220.002 1138 230.355 1138.85 255.237 1139.7 235.488 1140.55 239.316 1141.4 233.835 1142.25 253.41 1143.1 235.401 1143.95 224.004 1144.8 232.095 1145.65 231.747 1146.5 219.48 1147.35 237.837 1148.2 229.833 1149.05 207.3 1149.9 241.056 1150.75 223.917 1151.6 228.18 1152.45 226.005 1153.3 213.912 1154.15 219.567 1155 222.873 1155.85 208.779 1156.7 209.127 1157.55 236.184 1158.4 226.962 1159.25 231.051 1160.1 241.665 1160.95 248.277 1161.8 232.878 1162.65 222.873 1163.5 200.427 1164.35 177.633 1165.2 205.386 1166.05 191.379 1166.9 222.438 1167.75 229.05 1168.6 252.975 1169.45 235.662 1170.3 227.658 1171.15 245.058 1172 252.627 1172.85 212.955 1173.7 230.703 1174.55 244.884 1175.4 236.967 1176.25 244.101 1177.1 243.144 1177.95 228.267 1178.8 226.527 1179.65 262.719 1180.5 248.19 1181.35 241.23 1182.2 236.619 1183.05 225.048 1183.9 230.703 1184.75 229.311 1185.6 218.784 1186.45 211.911 1187.3 214.521 1188.15 233.052 1189 234.096 1189.85 243.666 1190.7 235.14 1191.55 234.357 1192.4 241.752 1193.25 218.001 1194.1 233.922 1194.95 234.357 1195.8 241.056 1196.65 252.366 1197.5 243.057 1198.35 210.519 1199.2 205.473 1200.05 222.177 1200.9 217.653 1201.75 224.265 1202.6 258.63 1203.45 240.012 1204.3 251.844 1205.15 238.881 1206 212.781 1206.85 240.099 1207.7 222.786 1208.55 238.707 1209.4 237.75 1210.25 210.519 1211.1 194.685 1211.95 226.875 1212.8 213.39 1213.65 226.962 1214.5 240.969 1215.35 127.434 1216.2 242.883 1217.05 237.75 1217.9 247.32 1218.75 239.664 1219.6 207.039 1220.45 249.843 1221.3 265.677 1222.15 247.581 1223 216.609 1223.85 233.922 1224.7 247.059 1225.55 241.752 1226.4 262.458 1227.25 246.276 1228.1 242.709 1228.95 243.318 1229.8 230.703 1230.65 226.353 1231.5 262.023 1232.35 247.842 1233.2 237.489 1234.05 247.668 1234.9 248.712 1235.75 232.878 1236.6 252.192 1237.45 249.234 1238.3 260.37 1239.15 249.582 1240 239.229 1240.85 223.569 1241.7 212.085 1242.55 242.274 1243.4 223.308 1244.25 250.191 1245.1 241.839 1245.95 258.282 1246.8 254.454 1247.65 240.447 1248.5 256.977 1249.35 248.19 1250.2 232.095 1251.05 234.705 1251.9 213.39 1252.75 255.585 1253.6 261.762 1254.45 245.319 1255.3 254.019 1256.15 228.702 1257 227.484 1257.85 253.932 1258.7 251.496 1259.55 253.932 1260.4 238.359 1261.25 245.493 1262.1 243.318 1262.95 251.583 1263.8 260.283 1264.65 248.538 1265.5 257.238 1266.35 270.549 1267.2 264.372 1268.05 222.699 1268.9 224.352 1269.75 252.018 1270.6 259.848 1271.45 242.883 1272.3 246.711 1273.15 247.233 1274 244.971 1274.85 250.017 1275.7 242.796 1276.55 241.926 1277.4 232.008 1278.25 259.935 1279.1 255.933 1279.95 240.969 1280.8 223.917 1281.65 214.521 1282.5 234.27 1283.35 241.926 1284.2 231.921 1285.05 270.636 1285.9 262.371 1286.75 259.326 1287.6 261.414 1288.45 260.283 1289.3 277.161 1290.15 270.288 1291 261.153 1291.85 248.712 1292.7 243.84 1293.55 242.535 1294.4 273.333 1295.25 236.793 1296.1 244.623 1296.95 210.954 1297.8 258.891 1298.65 275.856 1299.5 277.944 1300.35 276.9 1301.2 270.375 1302.05 236.967 1302.9 253.758 1303.75 222.525 1304.6 246.624 1305.45 261.327 1306.3 262.023 1307.15 259.326 1308 253.41 1308.85 267.069 1309.7 262.545 1310.55 266.373 1311.4 262.458 1312.25 270.636 1313.1 232.791 1313.95 257.673 1314.8 241.839 1315.65 261.24 1316.5 245.058 1317.35 264.546 1318.2 272.289 1319.05 239.925 1319.9 248.799 1320.75 261.588 1321.6 237.402 1322.45 250.104 1323.3 248.538 1324.15 267.417 1325 248.799 1325.85 241.752 1326.7 252.888 1327.55 235.923 1328.4 266.199 1329.25 228.963 1330.1 264.546 1330.95 276.726 1331.8 266.721 1332.65 252.888 1333.5 223.569 1334.35 260.544 1335.2 264.546 1336.05 263.589 1336.9 266.982 1337.75 260.457 1338.6 277.074 1339.45 282.468 1340.3 272.724 1341.15 252.279 1342 246.189 1342.85 246.624 1343.7 261.414 1344.55 242.535 1345.4 251.061 1346.25 262.197 1347.1 241.578 1347.95 240.186 1348.8 260.718 1349.65 224.526 1350.5 258.456 1351.35 252.279 1352.2 252.105 1353.05 282.294 1353.9 211.563 1354.75 232.617 1355.6 262.284 1356.45 256.194 1357.3 243.753 1358.15 236.271 1359 247.755 1359.85 255.672 1360.7 247.32 1361.55 248.799 1362.4 255.585 1363.25 251.67 1364.1 262.023 1364.95 244.884 1365.8 256.977 1366.65 272.115 1367.5 252.54 1368.35 265.068 1369.2 248.538 1370.05 252.54 1370.9 256.455 1371.75 267.765 1372.6 266.982 1373.45 256.107 1374.3 272.289 1375.15 232.443 1376 254.715 1376.85 255.15 1377.7 240.012 1378.55 248.973 1379.4 256.977 1380.25 274.464 1381.1 266.286 1381.95 255.933 1382.8 278.64 1383.65 281.859 1384.5 275.16 1385.35 208.083 1386.2 271.332 1387.05 286.818 1387.9 243.666 1388.75 261.501 1389.6 268.809 1390.45 250.887 1391.3 223.743 1392.15 259.587 1393 233.313 1393.85 239.49 1394.7 252.888 1395.55 248.277 1396.4 286.905 1397.25 283.077 1398.1 268.635 1398.95 264.894 1399.8 281.424 1400.65 284.034 1401.5 280.38 1402.35 298.128 1403.2 269.592 1404.05 241.752 1404.9 271.332 1405.75 275.334 1406.6 254.541 1407.45 267.678 1408.3 258.195 1409.15 270.462 1410 276.9 1410.85 287.514 1411.7 276.378 1412.55 279.858 1413.4 284.643 1414.25 244.101 1415.1 285.426 1415.95 266.199 1416.8 258.63 1417.65 260.805 1418.5 257.412 1419.35 269.244 1420.2 288.384 1421.05 285.6 1421.9 261.414 1422.75 274.029 1423.6 271.158 1424.45 277.335 1425.3 276.378 1426.15 248.799 1427 279.858 1427.85 271.68 1428.7 262.632 1429.55 264.459 1430.4 261.153 1431.25 277.77 1432.1 254.367 1432.95 251.409 1433.8 263.937 1434.65 269.244 1435.5 283.077 1436.35 287.166 1437.2 276.03 1438.05 282.729 1438.9 277.683 1439.75 277.422 1440.6 292.647 1441.45 291.951 1442.3 273.246 1443.15 275.247 1444 219.915 1444.85 296.736 1445.7 277.335 1446.55 213.303 1447.4 294.909 1448.25 291.429 1449.1 309.438 1449.95 304.305 1450.8 300.564 1451.65 268.635 1452.5 257.412 1453.35 254.802 1454.2 265.677 1455.05 236.88 1455.9 255.498 1456.75 251.844 1457.6 257.673 1458.45 270.114 1459.3 274.29 1460.15 268.722 1461 282.555 1461.85 296.214 1462.7 299.607 1463.55 292.56 1464.4 293.604 1465.25 298.128 1466.1 250.452 1466.95 280.206 1467.8 254.28 1468.65 268.113 1469.5 283.599 1470.35 270.027 1471.2 245.754 1472.05 279.51 1472.9 276.987 1473.75 296.736 1474.6 287.949 1475.45 265.938 1476.3 299.346 1477.15 282.555 1478 273.333 1478.85 271.941 1479.7 255.933 1480.55 276.813 1481.4 256.02 1482.25 269.766 1483.1 282.99 1483.95 287.514 1484.8 290.211 1485.65 287.166 1486.5 276.291 1487.35 268.635 1488.2 272.637 1489.05 277.335 1489.9 296.649 1490.75 264.807 1491.6 276.552 1492.45 289.08 1493.3 280.641 1494.15 290.298 1495 292.821 1495.85 301.173 1496.7 293.778 1497.55 271.158 1498.4 264.546 1499.25 272.55 1500.1 281.946 1500.95 276.378 1501.8 273.855 1502.65 287.079 1503.5 266.025 1504.35 278.205 1505.2 282.294 1506.05 273.594 1506.9 299.346 1507.75 285.339 1508.6 233.4 1509.45 261.501 1510.3 275.595 1511.15 237.228 1512 247.668 1512.85 255.063 1513.7 265.851 1514.55 276.465 1515.4 267.156 1516.25 297.258 1517.1 272.811 1517.95 270.288 1518.8 283.686 1519.65 300.129 1520.5 266.025 1521.35 300.912 1522.2 268.2 1523.05 268.896 1523.9 273.507 1524.75 293.604 1525.6 283.599 1526.45 271.506 1527.3 274.812 1528.15 212.694 1529 286.644 1529.85 279.336 1530.7 282.12 1531.55 260.544 1532.4 312.831 1533.25 301.695 1534.1 272.898 1534.95 298.824 1535.8 273.594 1536.65 276.117 1537.5 263.676 1538.35 282.381 1539.2 261.849 1540.05 284.208 1540.9 264.198 1541.75 280.206 1542.6 245.928 1543.45 292.647 1544.3 200.688 1545.15 288.384 1546 300.39 1546.85 284.208 1547.7 280.554 1548.55 292.212 1549.4 281.772 1550.25 296.475 1551.1 304.305 1551.95 265.938 1552.8 284.904 1553.65 272.898 1554.5 293.43 1555.35 284.556 1556.2 265.59 1557.05 281.859 1557.9 274.377 1558.75 272.376 1559.6 308.307 1560.45 298.302 1561.3 292.995 1562.15 284.121 1563 288.732 1563.85 298.737 1564.7 292.821 1565.55 304.827 1566.4 288.297 1567.25 249.147 1568.1 299.433 1568.95 277.77 1569.8 291.429 1570.65 286.122 1571.5 300.129 1572.35 294.909 1573.2 302.391 1574.05 299.259 1574.9 306.132 1575.75 301.173 1576.6 304.914 1577.45 305.001 1578.3 303.261 1579.15 286.383 1580 296.475 1580.85 299.781 1581.7 301.347 1582.55 300.042 1583.4 309.873 1584.25 298.998 1585.1 289.95 1585.95 297.432 1586.8 313.179 1587.65 304.566 1588.5 314.31 1589.35 290.646 1590.2 298.476 1591.05 271.071 1591.9 297.606 1592.75 302.217 1593.6 301.608 1594.45 285.252 1595.3 299.085 1596.15 303.174 1597 302.304 1597.85 297.084 1598.7 318.486 1599.55 278.379 1600.4 286.47 1601.25 311.961 1602.1 309.003 1602.95 305.262 1603.8 296.649 1604.65 330.144 1605.5 327.534 1606.35 314.658 1607.2 338.931 1608.05 337.278 1608.9 371.034 1609.75 341.106 1610.6 344.325 1611.45 360.072 1612.3 368.598 1613.15 357.549 1614 365.379 1614.85 355.635 1615.7 358.332 1616.55 365.901 1617.4 354.765 1618.25 352.329 1619.1 363.378 1619.95 365.988 1620.8 358.593 1621.65 354.852 1622.5 345.891 1623.35 360.681 1624.2 364.683 1625.05 346.152 1625.9 347.892 1626.75 347.979 1627.6 358.854 1628.45 339.018 1629.3 368.424 1630.15 363.378 1631 365.379 1631.85 371.904 1632.7 363.03 1633.55 365.466 1634.4 373.383 1635.25 363.726 1636.1 345.717 1636.95 355.026 1637.8 364.77 1638.65 336.234 1639.5 361.899 1640.35 340.41 1641.2 360.768 1642.05 349.458 1642.9 356.244 1643.75 358.419 1644.6 353.112 1645.45 353.112 1646.3 355.287 1647.15 356.679 1648 332.232 1648.85 357.201 1649.7 360.681 1650.55 344.064 1651.4 357.897 1652.25 358.593 1653.1 358.593 1653.95 369.468 1654.8 351.72 1655.65 353.982 1656.5 358.854 1657.35 359.898 1658.2 334.755 1659.05 368.946 1659.9 356.592 1660.75 363.465 1661.6 353.199 1662.45 356.157 1663.3 362.595 1664.15 355.548 1665 362.16 1665.85 324.837 1666.7 345.456 1667.55 357.81 1668.4 351.459 1669.25 351.981 1670.1 366.858 1670.95 372.252 1671.8 365.553 1672.65 358.158 1673.5 366.945 1674.35 372.861 1675.2 347.544 1676.05 375.732 1676.9 356.766 1677.75 372.513 1678.6 356.679 1679.45 350.589 1680.3 360.594 1681.15 365.988 1682 355.2 1682.85 333.885 1683.7 367.206 1684.55 345.195 1685.4 345.282 1686.25 370.251 1687.1 361.638 1687.95 371.295 1688.8 367.641 1689.65 364.857 1690.5 361.725 1691.35 356.853 1692.2 361.29 1693.05 369.12 1693.9 356.853 1694.75 379.56 1695.6 376.167 1696.45 364.248 1697.3 356.505 1698.15 356.592 1699 365.553 1699.85 351.459 1700.7 368.076 1701.55 357.636 1702.4 365.379 1703.25 372.948 1704.1 356.244 1704.95 367.293 1705.8 337.365 1706.65 348.414 1707.5 360.42 1708.35 356.157 1709.2 354.591 1710.05 356.766 1710.9 344.847 1711.75 337.539 1712.6 357.375 1713.45 351.285 1714.3 351.372 1715.15 368.337 1716 349.371 1716.85 346.065 1717.7 354.069 1718.55 348.675 1719.4 355.983 1720.25 359.028 1721.1 295.17 1721.95 349.458 1722.8 361.812 1723.65 349.632 1724.5 334.581 1725.35 351.807 1726.2 343.455 1727.05 320.922 1727.9 349.371 1728.75 336.495 1729.6 351.198 1730.45 355.809 1731.3 357.549 1732.15 360.246 1733 344.847 1733.85 326.751 1734.7 355.635 1735.55 349.458 1736.4 340.932 1737.25 347.544 1738.1 350.937 1738.95 358.941 1739.8 338.583 1740.65 351.198 1741.5 349.458 1742.35 347.718 1743.2 353.895 1744.05 359.985 1744.9 363.03 1745.75 356.853 1746.6 349.806 1747.45 355.026 1748.3 365.466" style="fill:none;stroke-width:1.5;clip-path:url(#graphArea)"/></g><g id="LegendPanel_decomp_matinee_pc"><text x="1705" y="30" fill="#FFF" filter="url(#dropShadowFilter)" font-family="Helvetica" font-size="10" style="text-anchor:end">UE 4.25.0.csv</text><rect width="10" height="10" x="1710" y="22" fill="#F60" stroke="CSVStats.Colour" stroke-width="1" filter="url(#dropShadowFilter)"/><text x="1725" y="30" fill="silver" filter="url(#dropShadowFilter)" font-family="Helvetica" font-size="10" style="text-anchor:start">261.07</text><text x="1705" y="46" fill="#FFF" filter="url(#dropShadowFilter)" font-family="Helvetica" font-size="10" style="text-anchor:end">ACL Plugin 1.0.0.csv</text><rect width="10" height="10" x="1710" y="38" fill="#66CDFF" stroke="CSVStats.Colour" stroke-width="1" filter="url(#dropShadowFilter)"/><text x="1725" y="46" fill="silver" filter="url(#dropShadowFilter)" font-family="Helvetica" font-size="10" style="text-anchor:start">76.22</text><text x="1725" y="62" fill="silver" filter="url(#dropShadowFilter)" font-family="Helvetica" font-size="10" style="text-anchor:start">(avg)</text></g><text x="900" y="34" fill="#FFF" font-family="Helvetica" font-size="14" style="text-anchor:middle">Matinee AMD Ryzen 2950X Decompression Performance (us/frame)</text>&gt;<text x="1698" y="15" fill="gray" font-family="Helvetica" font-size="7" style="text-anchor:start">CSVToSVG 2.31</text>&gt;</svg>
