<svg xmlns="http://www.w3.org/2000/svg" width="1800" height="550" version="1.1" viewPort="0 0 550 1800"><![CDATA[ 
Created with CSVtoSVG 2.31
]]><defs><radialGradient id="radialGradient1" r="65%" fx="50%" fy="50%" spreadMethod="pad"><stop offset="0%" stop-color="#505050" stop-opacity="1"/><stop offset="100%" stop-color="#101010" stop-opacity="1"/></radialGradient><linearGradient id="linearGradient1" x1="0%" x2="100%" y1="0%" y2="100%"><stop offset="0%" stop-color="#000"/><stop offset="100%" stop-color="#fff"/></linearGradient><clipPath id="graphArea"><rect width="1700" height="435" x="50" y="42"/></clipPath><filter id="dropShadowFilter" width="130%" height="130%" x="-20%"><feOffset dx="-2" dy="2" in="SourceAlpha" result="offOut"/><feGaussianBlur in="offOut" result="blurOut" stdDeviation="1.1"/><feBlend in="SourceGraphic" in2="blurOut" mode="normal"/></filter></defs><rect width="1800" height="550" x="0" y="0" fill="#101010" stroke="#101010" stroke-width="1" style="fill:url(#radialGradient1)"/><g id="graphArea"><g id="gridLines_decomp_playground_pc"><line x1="50" x2="1750" y1="477" y2="477" stroke="#606060" style="fill:none;stroke-width:.25"/><line x1="50" x2="1750" y1="467.333" y2="467.333" stroke="#606060" style="fill:none;stroke-width:.25"/><line x1="50" x2="1750" y1="457.667" y2="457.667" stroke="#606060" style="fill:none;stroke-width:.25"/><line x1="50" x2="1750" y1="448" y2="448" stroke="#606060" style="fill:none;stroke-width:.25"/><line x1="50" x2="1750" y1="438.333" y2="438.333" stroke="#606060" style="fill:none;stroke-width:.25"/><line x1="50" x2="1750" y1="428.667" y2="428.667" stroke="#606060" style="fill:none;stroke-width:.25"/><line x1="50" x2="1750" y1="419" y2="419" stroke="#606060" style="fill:none;stroke-width:.25"/><line x1="50" x2="1750" y1="409.333" y2="409.333" stroke="#606060" style="fill:none;stroke-width:.25"/><line x1="50" x2="1750" y1="399.667" y2="399.667" stroke="#606060" style="fill:none;stroke-width:.25"/><line x1="50" x2="1750" y1="390" y2="390" stroke="#606060" style="fill:none;stroke-width:.25"/><line x1="50" x2="1750" y1="380.333" y2="380.333" stroke="#606060" style="fill:none;stroke-width:.25"/><line x1="50" x2="1750" y1="370.667" y2="370.667" stroke="#606060" style="fill:none;stroke-width:.25"/><line x1="50" x2="1750" y1="361" y2="361" stroke="#606060" style="fill:none;stroke-width:.25"/><line x1="50" x2="1750" y1="351.333" y2="351.333" stroke="#606060" style="fill:none;stroke-width:.25"/><line x1="50" x2="1750" y1="341.667" y2="341.667" stroke="#606060" style="fill:none;stroke-width:.25"/><line x1="50" x2="1750" y1="332" y2="332" stroke="#606060" style="fill:none;stroke-width:.25"/><line x1="50" x2="1750" y1="322.333" y2="322.333" stroke="#606060" style="fill:none;stroke-width:.25"/><line x1="50" x2="1750" y1="312.667" y2="312.667" stroke="#606060" style="fill:none;stroke-width:.25"/><line x1="50" x2="1750" y1="303" y2="303" stroke="#606060" style="fill:none;stroke-width:.25"/><line x1="50" x2="1750" y1="293.333" y2="293.333" stroke="#606060" style="fill:none;stroke-width:.25"/><line x1="50" x2="1750" y1="283.667" y2="283.667" stroke="#606060" style="fill:none;stroke-width:.25"/><line x1="50" x2="1750" y1="274" y2="274" stroke="#606060" style="fill:none;stroke-width:.25"/><line x1="50" x2="1750" y1="264.333" y2="264.333" stroke="#606060" style="fill:none;stroke-width:.25"/><line x1="50" x2="1750" y1="254.667" y2="254.667" stroke="#606060" style="fill:none;stroke-width:.25"/><line x1="50" x2="1750" y1="245" y2="245" stroke="#606060" style="fill:none;stroke-width:.25"/><line x1="50" x2="1750" y1="235.333" y2="235.333" stroke="#606060" style="fill:none;stroke-width:.25"/><line x1="50" x2="1750" y1="225.667" y2="225.667" stroke="#606060" style="fill:none;stroke-width:.25"/><line x1="50" x2="1750" y1="216" y2="216" stroke="#606060" style="fill:none;stroke-width:.25"/><line x1="50" x2="1750" y1="206.333" y2="206.333" stroke="#606060" style="fill:none;stroke-width:.25"/><line x1="50" x2="1750" y1="196.667" y2="196.667" stroke="#606060" style="fill:none;stroke-width:.25"/><line x1="50" x2="1750" y1="187" y2="187" stroke="#606060" style="fill:none;stroke-width:.25"/><line x1="50" x2="1750" y1="177.333" y2="177.333" stroke="#606060" style="fill:none;stroke-width:.25"/><line x1="50" x2="1750" y1="167.667" y2="167.667" stroke="#606060" style="fill:none;stroke-width:.25"/><line x1="50" x2="1750" y1="158" y2="158" stroke="#606060" style="fill:none;stroke-width:.25"/><line x1="50" x2="1750" y1="148.333" y2="148.333" stroke="#606060" style="fill:none;stroke-width:.25"/><line x1="50" x2="1750" y1="138.667" y2="138.667" stroke="#606060" style="fill:none;stroke-width:.25"/><line x1="50" x2="1750" y1="129" y2="129" stroke="#606060" style="fill:none;stroke-width:.25"/><line x1="50" x2="1750" y1="119.333" y2="119.333" stroke="#606060" style="fill:none;stroke-width:.25"/><line x1="50" x2="1750" y1="109.667" y2="109.667" stroke="#606060" style="fill:none;stroke-width:.25"/><line x1="50" x2="1750" y1="100" y2="100" stroke="#606060" style="fill:none;stroke-width:.25"/><line x1="50" x2="1750" y1="90.333" y2="90.333" stroke="#606060" style="fill:none;stroke-width:.25"/><line x1="50" x2="1750" y1="80.667" y2="80.667" stroke="#606060" style="fill:none;stroke-width:.25"/><line x1="50" x2="1750" y1="71" y2="71" stroke="#606060" style="fill:none;stroke-width:.25"/><line x1="50" x2="1750" y1="61.333" y2="61.333" stroke="#606060" style="fill:none;stroke-width:.25"/><line x1="50" x2="1750" y1="51.667" y2="51.667" stroke="#606060" style="fill:none;stroke-width:.25"/><line x1="50" x2="1750" y1="42" y2="42" stroke="#606060" style="fill:none;stroke-width:.25"/><line x1="50" x2="1750" y1="477" y2="477" stroke="gray" style="fill:none;stroke-width:.25"/><line x1="50" x2="1750" y1="428.667" y2="428.667" stroke="gray" style="fill:none;stroke-width:.25"/><line x1="50" x2="1750" y1="380.333" y2="380.333" stroke="gray" style="fill:none;stroke-width:.25"/><line x1="50" x2="1750" y1="332" y2="332" stroke="gray" style="fill:none;stroke-width:.25"/><line x1="50" x2="1750" y1="283.667" y2="283.667" stroke="gray" style="fill:none;stroke-width:.25"/><line x1="50" x2="1750" y1="235.333" y2="235.333" stroke="gray" style="fill:none;stroke-width:.25"/><line x1="50" x2="1750" y1="187" y2="187" stroke="gray" style="fill:none;stroke-width:.25"/><line x1="50" x2="1750" y1="138.667" y2="138.667" stroke="gray" style="fill:none;stroke-width:.25"/><line x1="50" x2="1750" y1="90.333" y2="90.333" stroke="gray" style="fill:none;stroke-width:.25"/><line x1="50" x2="1750" y1="42" y2="42" stroke="gray" style="fill:none;stroke-width:.25"/></g><g id="xAxis_decomp_playground_pc"><text x="487" y="-46" fill="#FFF" font-family="Helvetica" font-size="10" transform="rotate(90)">0</text><text x="487" y="-74.333" fill="#FFF" font-family="Helvetica" font-size="10" transform="rotate(90)">10</text><text x="487" y="-102.667" fill="#FFF" font-family="Helvetica" font-size="10" transform="rotate(90)">20</text><text x="487" y="-131" fill="#FFF" font-family="Helvetica" font-size="10" transform="rotate(90)">30</text><text x="487" y="-159.333" fill="#FFF" font-family="Helvetica" font-size="10" transform="rotate(90)">40</text><text x="487" y="-187.667" fill="#FFF" font-family="Helvetica" font-size="10" transform="rotate(90)">50</text><text x="487" y="-216" fill="#FFF" font-family="Helvetica" font-size="10" transform="rotate(90)">60</text><text x="487" y="-244.333" fill="#FFF" font-family="Helvetica" font-size="10" transform="rotate(90)">70</text><text x="487" y="-272.667" fill="#FFF" font-family="Helvetica" font-size="10" transform="rotate(90)">80</text><text x="487" y="-301" fill="#FFF" font-family="Helvetica" font-size="10" transform="rotate(90)">90</text><text x="487" y="-329.333" fill="#FFF" font-family="Helvetica" font-size="10" transform="rotate(90)">100</text><text x="487" y="-357.667" fill="#FFF" font-family="Helvetica" font-size="10" transform="rotate(90)">110</text><text x="487" y="-386" fill="#FFF" font-family="Helvetica" font-size="10" transform="rotate(90)">120</text><text x="487" y="-414.333" fill="#FFF" font-family="Helvetica" font-size="10" transform="rotate(90)">130</text><text x="487" y="-442.667" fill="#FFF" font-family="Helvetica" font-size="10" transform="rotate(90)">140</text><text x="487" y="-471" fill="#FFF" font-family="Helvetica" font-size="10" transform="rotate(90)">150</text><text x="487" y="-499.333" fill="#FFF" font-family="Helvetica" font-size="10" transform="rotate(90)">160</text><text x="487" y="-527.667" fill="#FFF" font-family="Helvetica" font-size="10" transform="rotate(90)">170</text><text x="487" y="-556" fill="#FFF" font-family="Helvetica" font-size="10" transform="rotate(90)">180</text><text x="487" y="-584.333" fill="#FFF" font-family="Helvetica" font-size="10" transform="rotate(90)">190</text><text x="487" y="-612.667" fill="#FFF" font-family="Helvetica" font-size="10" transform="rotate(90)">200</text><text x="487" y="-641" fill="#FFF" font-family="Helvetica" font-size="10" transform="rotate(90)">210</text><text x="487" y="-669.333" fill="#FFF" font-family="Helvetica" font-size="10" transform="rotate(90)">220</text><text x="487" y="-697.667" fill="#FFF" font-family="Helvetica" font-size="10" transform="rotate(90)">230</text><text x="487" y="-726" fill="#FFF" font-family="Helvetica" font-size="10" transform="rotate(90)">240</text><text x="487" y="-754.333" fill="#FFF" font-family="Helvetica" font-size="10" transform="rotate(90)">250</text><text x="487" y="-782.667" fill="#FFF" font-family="Helvetica" font-size="10" transform="rotate(90)">260</text><text x="487" y="-811" fill="#FFF" font-family="Helvetica" font-size="10" transform="rotate(90)">270</text><text x="487" y="-839.333" fill="#FFF" font-family="Helvetica" font-size="10" transform="rotate(90)">280</text><text x="487" y="-867.667" fill="#FFF" font-family="Helvetica" font-size="10" transform="rotate(90)">290</text><text x="487" y="-896" fill="#FFF" font-family="Helvetica" font-size="10" transform="rotate(90)">300</text><text x="487" y="-924.333" fill="#FFF" font-family="Helvetica" font-size="10" transform="rotate(90)">310</text><text x="487" y="-952.667" fill="#FFF" font-family="Helvetica" font-size="10" transform="rotate(90)">320</text><text x="487" y="-981" fill="#FFF" font-family="Helvetica" font-size="10" transform="rotate(90)">330</text><text x="487" y="-1009.333" fill="#FFF" font-family="Helvetica" font-size="10" transform="rotate(90)">340</text><text x="487" y="-1037.667" fill="#FFF" font-family="Helvetica" font-size="10" transform="rotate(90)">350</text><text x="487" y="-1066" fill="#FFF" font-family="Helvetica" font-size="10" transform="rotate(90)">360</text><text x="487" y="-1094.333" fill="#FFF" font-family="Helvetica" font-size="10" transform="rotate(90)">370</text><text x="487" y="-1122.667" fill="#FFF" font-family="Helvetica" font-size="10" transform="rotate(90)">380</text><text x="487" y="-1151" fill="#FFF" font-family="Helvetica" font-size="10" transform="rotate(90)">390</text><text x="487" y="-1179.333" fill="#FFF" font-family="Helvetica" font-size="10" transform="rotate(90)">400</text><text x="487" y="-1207.667" fill="#FFF" font-family="Helvetica" font-size="10" transform="rotate(90)">410</text><text x="487" y="-1236" fill="#FFF" font-family="Helvetica" font-size="10" transform="rotate(90)">420</text><text x="487" y="-1264.333" fill="#FFF" font-family="Helvetica" font-size="10" transform="rotate(90)">430</text><text x="487" y="-1292.667" fill="#FFF" font-family="Helvetica" font-size="10" transform="rotate(90)">440</text><text x="487" y="-1321" fill="#FFF" font-family="Helvetica" font-size="10" transform="rotate(90)">450</text><text x="487" y="-1349.333" fill="#FFF" font-family="Helvetica" font-size="10" transform="rotate(90)">460</text><text x="487" y="-1377.667" fill="#FFF" font-family="Helvetica" font-size="10" transform="rotate(90)">470</text><text x="487" y="-1406" fill="#FFF" font-family="Helvetica" font-size="10" transform="rotate(90)">480</text><text x="487" y="-1434.333" fill="#FFF" font-family="Helvetica" font-size="10" transform="rotate(90)">490</text><text x="487" y="-1462.667" fill="#FFF" font-family="Helvetica" font-size="10" transform="rotate(90)">500</text><text x="487" y="-1491" fill="#FFF" font-family="Helvetica" font-size="10" transform="rotate(90)">510</text><text x="487" y="-1519.333" fill="#FFF" font-family="Helvetica" font-size="10" transform="rotate(90)">520</text><text x="487" y="-1547.667" fill="#FFF" font-family="Helvetica" font-size="10" transform="rotate(90)">530</text><text x="487" y="-1576" fill="#FFF" font-family="Helvetica" font-size="10" transform="rotate(90)">540</text><text x="487" y="-1604.333" fill="#FFF" font-family="Helvetica" font-size="10" transform="rotate(90)">550</text><text x="487" y="-1632.667" fill="#FFF" font-family="Helvetica" font-size="10" transform="rotate(90)">560</text><text x="487" y="-1661" fill="#FFF" font-family="Helvetica" font-size="10" transform="rotate(90)">570</text><text x="487" y="-1689.333" fill="#FFF" font-family="Helvetica" font-size="10" transform="rotate(90)">580</text><text x="487" y="-1717.667" fill="#FFF" font-family="Helvetica" font-size="10" transform="rotate(90)">590</text><text x="487" y="-1746" fill="#FFF" font-family="Helvetica" font-size="10" transform="rotate(90)">600</text></g><g id="yAxis_decomp_playground_pc"><text x="40" y="481" fill="#FFF" font-family="Helvetica" font-size="10" style="text-anchor:end">0</text>&gt;<line x1="47.5" x2="50" y1="477" y2="477" stroke="#FFF" style="fill:none;stroke-width:.25"/><text x="40" y="432.667" fill="#FFF" font-family="Helvetica" font-size="10" style="text-anchor:end">100</text>&gt;<line x1="47.5" x2="50" y1="428.667" y2="428.667" stroke="#FFF" style="fill:none;stroke-width:.25"/><text x="40" y="384.333" fill="#FFF" font-family="Helvetica" font-size="10" style="text-anchor:end">200</text>&gt;<line x1="47.5" x2="50" y1="380.333" y2="380.333" stroke="#FFF" style="fill:none;stroke-width:.25"/><text x="40" y="336" fill="#FFF" font-family="Helvetica" font-size="10" style="text-anchor:end">300</text>&gt;<line x1="47.5" x2="50" y1="332" y2="332" stroke="#FFF" style="fill:none;stroke-width:.25"/><text x="40" y="287.667" fill="#FFF" font-family="Helvetica" font-size="10" style="text-anchor:end">400</text>&gt;<line x1="47.5" x2="50" y1="283.667" y2="283.667" stroke="#FFF" style="fill:none;stroke-width:.25"/><text x="40" y="239.333" fill="#FFF" font-family="Helvetica" font-size="10" style="text-anchor:end">500</text>&gt;<line x1="47.5" x2="50" y1="235.333" y2="235.333" stroke="#FFF" style="fill:none;stroke-width:.25"/><text x="40" y="191" fill="#FFF" font-family="Helvetica" font-size="10" style="text-anchor:end">600</text>&gt;<line x1="47.5" x2="50" y1="187" y2="187" stroke="#FFF" style="fill:none;stroke-width:.25"/><text x="40" y="142.667" fill="#FFF" font-family="Helvetica" font-size="10" style="text-anchor:end">700</text>&gt;<line x1="47.5" x2="50" y1="138.667" y2="138.667" stroke="#FFF" style="fill:none;stroke-width:.25"/><text x="40" y="94.333" fill="#FFF" font-family="Helvetica" font-size="10" style="text-anchor:end">800</text>&gt;<line x1="47.5" x2="50" y1="90.333" y2="90.333" stroke="#FFF" style="fill:none;stroke-width:.25"/><text x="40" y="46" fill="#FFF" font-family="Helvetica" font-size="10" style="text-anchor:end">900</text>&gt;<line x1="47.5" x2="50" y1="42" y2="42" stroke="#FFF" style="fill:none;stroke-width:.25"/></g><line x1="50" x2="50" y1="42" y2="477" stroke="gray" style="fill:none;stroke-width:.5"/><line x1="50" x2="1750" y1="477" y2="477" stroke="gray" style="fill:none;stroke-width:.5"/><polyline id="Stat_0_Animation/Total/ExtractPoseFromAnimData_decomp_playground_pc" stroke="#66CDFF" points="50 278.205 52.833 477 55.667 334.127 58.5 380.527 61.333 371.392 64.167 368.637 67 380.188 69.833 375.258 72.667 380.672 75.5 357.762 78.333 347.902 81.167 347.032 84 370.232 86.833 362.402 89.667 360.71 92.5 347.273 95.333 376.418 98.167 374.582 101 366.172 103.833 360.227 106.667 343.02 109.5 366.993 112.333 356.07 115.167 289.902 118 376.37 120.833 372.793 123.667 373.18 126.5 363.32 129.333 375.065 132.167 368.105 135 376.708 137.833 381.735 140.667 376.998 143.5 377.288 146.333 378.642 149.167 383.427 152 376.467 154.833 382.412 157.667 378.883 160.5 382.75 163.333 382.363 166.167 381.348 169 382.025 171.833 383.958 174.667 369.748 177.5 379.705 180.333 375.887 183.167 378.787 186 375.452 188.833 353.895 191.667 372.648 194.5 379.898 197.333 381.977 200.167 376.08 203 380.962 205.833 380.962 208.667 369.313 211.5 381.01 214.333 382.025 217.167 362.063 220 373.373 222.833 377.047 225.667 382.75 228.5 380.672 231.333 369.942 234.167 380.478 237 383.475 239.833 374.292 242.667 380.43 245.5 373.615 248.333 378.593 251.167 378.593 254 374.243 256.833 376.757 259.667 365.253 262.5 377.047 265.333 377.337 268.167 374.775 271 371.005 273.833 379.608 276.667 382.025 279.5 382.073 282.333 370.135 285.167 387.632 288 366.558 290.833 375.21 293.667 373.663 296.5 374.437 299.333 374.533 302.167 360.758 305 380.527 307.833 373.808 310.667 356.07 313.5 375.887 316.333 374.775 319.167 380.14 322 378.255 324.833 366.558 327.667 377.385 330.5 380.092 333.333 371.44 336.167 349.642 339 381.832 341.833 378.303 344.667 382.895 347.5 371.053 350.333 383.427 353.167 373.277 356 371.875 358.833 380.527 361.667 373.567 364.5 364.528 367.333 375.548 370.167 371.005 373 355.393 375.833 337.945 378.667 377.143 381.5 380.092 384.333 372.358 387.167 362.595 390 373.083 392.833 374.727 395.667 375.79 398.5 365.592 401.333 380.188 404.167 381.59 407 364.19 409.833 364.915 412.667 367.428 415.5 364.383 418.333 374.678 421.167 373.953 424 382.508 426.833 381.397 429.667 367.477 432.5 358.922 435.333 375.742 438.167 383.765 441 366.027 443.833 371.875 446.667 363.997 449.5 368.395 452.333 382.17 455.167 365.64 458 366.123 460.833 370.183 463.667 371.972 466.5 380.527 469.333 371.682 472.167 382.557 475 381.107 477.833 364.577 480.667 360.903 483.5 352.88 486.333 369.507 489.167 368.782 492 359.502 494.833 377.578 497.667 369.168 500.5 380.382 503.333 375.355 506.167 379.947 509 374.437 511.833 368.878 514.667 365.35 517.5 378.883 520.333 360.033 523.167 359.018 526 380.043 528.833 378.207 531.667 354.33 534.5 370.135 537.333 372.552 540.167 381.397 543 369.217 545.833 376.273 548.667 367.38 551.5 376.66 554.333 376.708 557.167 380.527 560 368.927 562.833 368.492 565.667 380.188 568.5 380.043 571.333 367.67 574.167 374.92 577 377.868 579.833 378.255 582.667 359.598 585.5 371.778 588.333 382.557 591.167 378.835 594 379.705 596.833 370.135 599.667 373.905 602.5 366.462 605.333 363.513 608.167 367.815 611 372.02 613.833 377.627 616.667 384.2 619.5 385.022 622.333 378.932 625.167 353.46 628 376.08 630.833 379.512 633.667 385.263 636.5 362.257 639.333 370.425 642.167 373.422 645 376.757 647.833 369.797 650.667 369.507 653.5 365.302 656.333 380.092 659.167 366.945 662 367.38 664.833 363.803 667.667 384.103 670.5 373.228 673.333 376.853 676.167 374.05 679 368.25 681.833 371.682 684.667 368.25 687.5 378.738 690.333 381.88 693.167 372.938 696 382.992 698.833 374.05 701.667 363.997 704.5 380.478 707.333 363.513 710.167 372.31 713 360.952 715.833 363.03 718.667 378.013 721.5 379.512 724.333 360.613 727.167 371.633 730 380.672 732.833 373.808 735.667 355.248 738.5 372.842 741.333 353.75 744.167 374.002 747 370.667 749.833 380.575 752.667 363.9 755.5 374.823 758.333 369.99 761.167 385.553 764 364.915 766.833 359.647 769.667 360.323 772.5 370.522 775.333 383.813 778.167 380.43 781 376.418 783.833 373.47 786.667 370.377 789.5 373.808 792.333 366.172 795.167 363.272 798 363.078 800.833 377.482 803.667 370.763 806.5 368.153 809.333 370.715 812.167 378.11 815 373.712 817.833 376.563 820.667 357.617 823.5 383.717 826.333 373.808 829.167 370.86 832 361.822 834.833 365.108 837.667 370.425 840.5 370.087 843.333 380.865 846.167 374.147 849 359.502 851.833 371.392 854.667 373.132 857.5 365.35 860.333 358.728 863.167 361.097 866 371.537 868.833 365.785 871.667 378.207 874.5 379.222 877.333 374.678 880.167 368.153 883 375.693 885.833 373.228 888.667 370.135 891.5 376.998 894.333 383.91 897.167 372.503 900 372.455 902.833 361.967 905.667 379.173 908.5 364.142 911.333 371.585 914.167 372.745 917 379.028 919.833 383.668 922.667 380.382 925.5 376.273 928.333 369.217 931.167 376.902 934 372.745 936.833 376.225 939.667 361.048 942.5 376.128 945.333 378.738 948.167 381.59 951 383.62 953.833 372.793 956.667 374.098 959.5 381.88 962.333 381.59 965.167 371.343 968 364.722 970.833 363.948 973.667 385.602 976.5 370.812 979.333 384.393 982.167 364.528 985 374.098 987.833 371.102 990.667 360.227 993.5 368.975 996.333 380.14 999.167 365.688 1002 371.102 1004.833 370.328 1007.667 371.005 1010.5 369.362 1013.333 373.663 1016.167 359.985 1019 365.06 1021.833 373.76 1024.667 370.908 1027.5 367.525 1030.333 372.165 1033.167 373.857 1036 377.723 1038.833 369.893 1041.667 374.34 1044.5 376.612 1047.333 370.522 1050.167 360.082 1053 374.147 1055.833 370.57 1058.667 367.767 1061.5 370.28 1064.333 371.633 1067.167 371.972 1070 365.205 1072.833 379.028 1075.667 380.188 1078.5 382.702 1081.333 383.04 1084.167 377.433 1087 376.563 1089.833 382.508 1092.667 366.172 1095.5 377.24 1098.333 374.243 1101.167 371.827 1104 376.95 1106.833 374.05 1109.667 366.365 1112.5 379.125 1115.333 373.228 1118.167 380.962 1121 371.247 1123.833 381.928 1126.667 383.523 1129.5 380.237 1132.333 358.97 1135.167 374.533 1138 382.073 1140.833 376.95 1143.667 379.415 1146.5 371.827 1149.333 368.878 1152.167 372.793 1155 379.028 1157.833 377.675 1160.667 372.503 1163.5 370.425 1166.333 374.92 1169.167 379.56 1172 371.053 1174.833 378.303 1177.667 373.325 1180.5 379.463 1183.333 367.428 1186.167 364.625 1189 374.678 1191.833 377.772 1194.667 374.872 1197.5 366.848 1200.333 369.603 1203.167 366.945 1206 372.262 1208.833 380.72 1211.667 374.582 1214.5 359.357 1217.333 370.087 1220.167 362.837 1223 364.287 1225.833 364.287 1228.667 373.905 1231.5 380.43 1234.333 365.06 1237.167 375.113 1240 357.665 1242.833 355.345 1245.667 366.945 1248.5 365.205 1251.333 381.977 1254.167 367.332 1257 356.263 1259.833 371.972 1262.667 378.207 1265.5 372.793 1268.333 358.535 1271.167 378.69 1274 382.895 1276.833 382.75 1279.667 368.782 1282.5 373.857 1285.333 366.22 1288.167 381.542 1291 356.602 1293.833 376.467 1296.667 362.547 1299.5 374.533 1302.333 363.755 1305.167 371.73 1308 355.248 1310.833 382.46 1313.667 377.433 1316.5 380.14 1319.333 371.295 1322.167 373.422 1325 380.672 1327.833 373.47 1330.667 369.12 1333.5 380.43 1336.333 381.977 1339.167 374.388 1342 371.005 1344.833 374.437 1347.667 372.938 1350.5 380.527 1353.333 372.552 1356.167 385.36 1359 372.6 1361.833 372.745 1364.667 372.455 1367.5 384.49 1370.333 384.925 1373.167 365.737 1376 381.107 1378.833 372.068 1381.667 360.033 1384.5 368.008 1387.333 355.635 1390.167 366.848 1393 370.715 1395.833 366.413 1398.667 373.373 1401.5 360.033 1404.333 366.365 1407.167 373.857 1410 371.778 1412.833 372.213 1415.667 376.757 1418.5 374.437 1421.333 379.705 1424.167 364.383 1427 367.67 1429.833 376.418 1432.667 376.757 1435.5 382.702 1438.333 363.658 1441.167 366.655 1444 370.473 1446.833 362.788 1449.667 376.08 1452.5 365.398 1455.333 363.03 1458.167 367.38 1461 382.412 1463.833 374.098 1466.667 380.14 1469.5 371.827 1472.333 376.08 1475.167 371.15 1478 380.092 1480.833 379.657 1483.667 376.225 1486.5 380.382 1489.333 382.75 1492.167 381.88 1495 380.623 1497.833 373.615 1500.667 380.672 1503.5 377.868 1506.333 378.4 1509.167 380.623 1512 374.678 1514.833 365.833 1517.667 366.317 1520.5 380.962 1523.333 372.503 1526.167 366.51 1529 362.305 1531.833 375.452 1534.667 377.143 1537.5 377.143 1540.333 363.707 1543.167 381.252 1546 376.128 1548.833 376.515 1551.667 378.738 1554.5 378.787 1557.333 382.315 1560.167 375.355 1563 374.968 1565.833 383.958 1568.667 355.587 1571.5 380.913 1574.333 371.778 1577.167 377.385 1580 361.193 1582.833 367.863 1585.667 374.968 1588.5 377.095 1591.333 365.012 1594.167 377.433 1597 363.948 1599.833 378.642 1602.667 380.092 1605.5 381.687 1608.333 384.877 1611.167 369.555 1614 370.328 1616.833 375.935 1619.667 372.31 1622.5 370.908 1625.333 362.643 1628.167 362.933 1631 372.455 1633.833 377.143 1636.667 369.797 1639.5 380.285 1642.333 371.682 1645.167 373.083 1648 375.162 1650.833 383.523 1653.667 385.457 1656.5 367.67 1659.333 376.467 1662.167 371.682 1665 379.947 1667.833 374.098 1670.667 385.457 1673.5 324.267 1676.333 368.927 1679.167 380.14 1682 382.122 1684.833 370.473 1687.667 375.597 1690.5 372.262 1693.333 383.185 1696.167 363.948 1699 360.13 1701.833 381.928 1704.667 377.288 1707.5 368.008 1710.333 351.333 1713.167 367.187 1716 386.52 1718.833 372.987 1721.667 370.183 1724.5 379.125 1727.333 371.053 1730.167 378.303 1733 373.325 1735.833 380.527 1738.667 379.512 1741.5 379.705 1744.333 372.068" style="fill:none;stroke-width:1.5;clip-path:url(#graphArea)"/><polyline id="Stat_1_Animation/Total/ExtractPoseFromAnimData_decomp_playground_pc" stroke="#F60" points="50 166.99 52.833 477 55.667 139.585 58.5 226.73 61.333 209.717 64.167 226.343 67 222.67 69.833 201.838 72.667 124.843 75.5 189.9 78.333 171.437 81.167 198.455 84 209.958 86.833 237.267 89.667 135.767 92.5 190.48 95.333 206.575 98.167 231.418 101 229.872 103.833 213.922 106.667 71.725 109.5 206.72 112.333 214.115 115.167 207.493 118 229.147 120.833 65.78 123.667 216.29 126.5 226.15 129.333 129.773 132.167 230.548 135 193.042 137.833 196.763 140.667 212.52 143.5 230.355 146.333 194.298 149.167 234.028 152 236.977 154.833 247.32 157.667 217.45 160.5 225.28 163.333 232.047 166.167 210.248 169 215.758 171.833 223.492 174.667 199.422 177.5 242.148 180.333 211.022 183.167 190.963 186 204.255 188.833 230.113 191.667 238.523 194.5 215.71 197.333 216.387 200.167 253.748 203 240.843 205.833 240.505 208.667 228.712 211.5 227.6 214.333 250.558 217.167 228.422 220 240.892 222.833 233.593 225.667 227.89 228.5 224.99 231.333 234.705 234.167 218.513 237 247.32 239.833 236.59 242.667 229.63 245.5 228.083 248.333 203.675 251.167 226.247 254 219.287 256.833 231.66 259.667 230.597 262.5 220.205 265.333 204.497 268.167 221.365 271 224.12 273.833 237.943 276.667 233.545 279.5 211.65 282.333 226.488 285.167 235.72 288 224.458 290.833 224.942 293.667 221.607 296.5 232.095 299.333 246.692 302.167 230.887 305 214.647 307.833 238.427 310.667 234.512 313.5 213.825 316.333 208.943 319.167 229.098 322 229.098 324.833 223.395 327.667 231.273 330.5 169.552 333.333 229.63 336.167 230.258 339 235.14 341.833 244.42 344.667 241.568 347.5 219.287 350.333 233.835 353.167 239.152 356 225.425 358.833 206.527 361.667 220.978 364.5 238.668 367.333 234.318 370.167 217.643 373 225.038 375.833 234.608 378.667 243.115 381.5 231.128 384.333 248.383 387.167 219.045 390 229.05 392.833 222.477 395.667 235.043 398.5 229.002 401.333 220.785 404.167 227.407 407 218.707 409.833 213.487 412.667 228.228 415.5 217.788 418.333 231.853 421.167 197.247 424 220.833 426.833 239.538 429.667 234.995 432.5 212.617 435.333 199.277 438.167 202.66 441 217.16 443.833 218.803 446.667 203.723 449.5 200.968 452.333 203.047 455.167 190.142 458 191.737 460.833 180.523 463.667 219.867 466.5 213.003 469.333 200.34 472.167 193.477 475 237.267 477.833 200.437 480.667 203.53 483.5 202.322 486.333 225.522 489.167 206.913 492 183.858 494.833 186.372 497.667 204.593 500.5 217.933 503.333 209.813 506.167 207.252 509 231.418 511.833 219.432 514.667 226.827 517.5 225.522 520.333 230.162 523.167 226.247 526 229.243 528.833 230.162 531.667 249.06 534.5 228.615 537.333 204.062 540.167 228.422 543 224.845 545.833 232.143 548.667 235.865 551.5 212.955 554.333 233.593 557.167 252.395 560 220.785 562.833 233.207 565.667 228.277 568.5 236.59 571.333 207.252 574.167 219.335 577 231.37 579.833 213.487 582.667 229.34 585.5 236.203 588.333 236.493 591.167 231.032 594 237.895 596.833 226.44 599.667 222.332 602.5 228.422 605.333 229.92 608.167 215.565 611 214.937 613.833 212.182 616.667 230.065 619.5 254.522 622.333 232.095 625.167 235.817 628 209.185 630.833 226.15 633.667 239.297 636.5 207.638 639.333 219.238 642.167 225.812 645 232.965 647.833 209.813 650.667 220.882 653.5 231.853 656.333 229.243 659.167 239.683 662 244.855 664.833 216.097 667.667 249.108 670.5 231.467 673.333 222.235 676.167 211.747 679 225.377 681.833 246.595 684.667 237.605 687.5 202.467 690.333 221.123 693.167 239.103 696 226.537 698.833 232.192 701.667 235.672 704.5 229.34 707.333 252.057 710.167 230.983 713 207.735 715.833 199.373 718.667 223.395 721.5 185.55 724.333 236.59 727.167 205.367 730 181.152 732.833 213.777 735.667 223.25 738.5 227.552 741.333 194.153 744.167 217.257 747 220.495 749.833 201.838 752.667 233.738 755.5 192.703 758.333 222.187 761.167 211.553 764 227.793 766.833 238.233 769.667 232.723 772.5 231.66 775.333 227.6 778.167 214.502 781 239.538 783.833 237.847 786.667 228.132 789.5 246.595 792.333 226.923 795.167 232.337 798 222.187 800.833 209.185 803.667 244.372 806.5 243.453 809.333 212.23 812.167 223.395 815 260.66 817.833 238.282 820.667 226.247 823.5 229.292 826.333 213.342 829.167 219.287 832 200.775 834.833 244.855 837.667 228.712 840.5 238.572 843.333 216.677 846.167 226.778 849 227.648 851.833 243.937 854.667 237.992 857.5 239.442 860.333 214.55 863.167 214.888 866 232.288 868.833 237.653 871.667 216.338 874.5 244.372 877.333 228.808 880.167 237.17 883 223.202 885.833 216.822 888.667 232.047 891.5 227.6 894.333 224.12 897.167 229.05 900 228.905 902.833 236.977 905.667 233.497 908.5 234.995 911.333 231.998 914.167 237.702 917 225.812 919.833 202.37 922.667 221.027 925.5 243.55 928.333 231.225 931.167 251.235 934 234.222 936.833 247.9 939.667 241.713 942.5 249.447 945.333 219.963 948.167 200.968 951 246.353 953.833 210.442 956.667 234.705 959.5 184.873 962.333 221.558 965.167 202.515 968 216.483 970.833 225.183 973.667 211.553 976.5 222.912 979.333 234.657 982.167 238.137 985 219.238 987.833 240.747 990.667 217.982 993.5 246.595 996.333 216.338 999.167 201.742 1002 251.96 1004.833 212.617 1007.667 226.053 1010.5 214.647 1013.333 204.98 1016.167 229.243 1019 225.86 1021.833 238.717 1024.667 220.688 1027.5 216.822 1030.333 196.763 1033.167 208.702 1036 207.348 1038.833 219.238 1041.667 212.52 1044.5 206.237 1047.333 210.055 1050.167 229.92 1053 252.008 1055.833 230.983 1058.667 229.92 1061.5 230.21 1064.333 243.647 1067.167 250.365 1070 221.655 1072.833 204.738 1075.667 234.367 1078.5 237.363 1081.333 234.125 1084.167 227.358 1087 243.598 1089.833 234.947 1092.667 248.915 1095.5 226.198 1098.333 237.798 1101.167 245.58 1104 240.408 1106.833 215.517 1109.667 204.352 1112.5 239.345 1115.333 234.995 1118.167 192.317 1121 227.938 1123.833 236.542 1126.667 229.195 1129.5 248.383 1132.333 235.382 1135.167 241.182 1138 250.123 1140.833 242.922 1143.667 241.182 1146.5 241.568 1149.333 207.783 1152.167 220.253 1155 244.275 1157.833 217.208 1160.667 249.35 1163.5 245 1166.333 241.037 1169.167 221.413 1172 233.738 1174.833 230.742 1177.667 230.162 1180.5 226.923 1183.333 218.803 1186.167 211.602 1189 197.198 1191.833 219.577 1194.667 230.21 1197.5 222.96 1200.333 217.837 1203.167 218.9 1206 233.545 1208.833 231.95 1211.667 227.213 1214.5 245.193 1217.333 218.755 1220.167 225.473 1223 221.413 1225.833 228.857 1228.667 236.977 1231.5 248.19 1234.333 221.558 1237.167 247.707 1240 238.427 1242.833 235.478 1245.667 217.498 1248.5 207.977 1251.333 197.15 1254.167 243.26 1257 214.647 1259.833 234.705 1262.667 184.535 1265.5 241.713 1268.333 231.37 1271.167 223.83 1274 228.857 1276.833 240.118 1279.667 204.69 1282.5 209.862 1285.333 253.217 1288.167 232.723 1291 229.968 1293.833 212.955 1296.667 231.322 1299.5 246.112 1302.333 235.72 1305.167 176.705 1308 208.943 1310.833 236.928 1313.667 211.215 1316.5 213.632 1319.333 257.132 1322.167 237.75 1325 221.123 1327.833 243.405 1330.667 239.103 1333.5 245.87 1336.333 208.895 1339.167 208.653 1342 248.625 1344.833 228.76 1347.667 208.025 1350.5 219.142 1353.333 211.07 1356.167 225.812 1359 210.2 1361.833 207.058 1364.667 227.648 1367.5 226.198 1370.333 213.583 1373.167 235.382 1376 235.72 1378.833 228.18 1381.667 227.89 1384.5 233.738 1387.333 228.615 1390.167 238.862 1393 226.682 1395.833 240.36 1398.667 235.575 1401.5 226.392 1404.333 218.803 1407.167 240.07 1410 228.47 1412.833 236.928 1415.667 224.7 1418.5 228.712 1421.333 219.818 1424.167 223.443 1427 232.578 1429.833 226.343 1432.667 221.993 1435.5 210.828 1438.333 231.225 1441.167 220.833 1444 238.91 1446.833 216.435 1449.667 233.303 1452.5 226.392 1455.333 227.842 1458.167 217.885 1461 233.738 1463.833 245.918 1466.667 236.638 1469.5 229.533 1472.333 237.122 1475.167 242.922 1478 223.733 1480.833 228.808 1483.667 217.353 1486.5 232.288 1489.333 223.347 1492.167 229.727 1495 230.838 1497.833 236.542 1500.667 199.712 1503.5 251.477 1506.333 237.943 1509.167 256.89 1512 266.895 1514.833 252.25 1517.667 249.108 1520.5 238.62 1523.333 234.318 1526.167 245.193 1529 226.343 1531.833 263.947 1534.667 248.093 1537.5 230.065 1540.333 242.535 1543.167 221.51 1546 205.415 1548.833 240.505 1551.667 233.98 1554.5 234.077 1557.333 246.643 1560.167 221.752 1563 245.048 1565.833 201.935 1568.667 227.213 1571.5 233.642 1574.333 223.588 1577.167 234.56 1580 254.038 1582.833 232.095 1585.667 224.265 1588.5 198.503 1591.333 234.608 1594.167 244.178 1597 229.533 1599.833 241.23 1602.667 222.863 1605.5 225.667 1608.333 234.802 1611.167 231.08 1614 224.99 1616.833 242.197 1619.667 241.182 1622.5 245.967 1625.333 223.733 1628.167 230.065 1631 225.28 1633.833 251.573 1636.667 233.062 1639.5 255.247 1642.333 245.918 1645.167 195.458 1648 238.862 1650.833 225.038 1653.667 260.853 1656.5 241.423 1659.333 228.712 1662.167 210.393 1665 247.9 1667.833 229.098 1670.667 237.702 1673.5 243.598 1676.333 216.677 1679.167 248.287 1682 228.132 1684.833 236.252 1687.667 216.725 1690.5 206.72 1693.333 234.367 1696.167 224.458 1699 233.497 1701.833 194.153 1704.667 213.342 1707.5 234.608 1710.333 222.283 1713.167 234.56 1716 245.097 1718.833 242.003 1721.667 227.455 1724.5 237.895 1727.333 223.83 1730.167 233.932 1733 239.2 1735.833 234.85 1738.667 239.393 1741.5 214.937 1744.333 228.663" style="fill:none;stroke-width:1.5;clip-path:url(#graphArea)"/></g><g id="LegendPanel_decomp_playground_pc"><text x="1705" y="30" fill="#FFF" filter="url(#dropShadowFilter)" font-family="Helvetica" font-size="10" style="text-anchor:end">UE 4.25.0.csv</text><rect width="10" height="10" x="1710" y="22" fill="#F60" stroke="CSVStats.Colour" stroke-width="1" filter="url(#dropShadowFilter)"/><text x="1725" y="30" fill="silver" filter="url(#dropShadowFilter)" font-family="Helvetica" font-size="10" style="text-anchor:start">520.74</text><text x="1705" y="46" fill="#FFF" filter="url(#dropShadowFilter)" font-family="Helvetica" font-size="10" style="text-anchor:end">ACL Plugin 1.0.0.csv</text><rect width="10" height="10" x="1710" y="38" fill="#66CDFF" stroke="CSVStats.Colour" stroke-width="1" filter="url(#dropShadowFilter)"/><text x="1725" y="46" fill="silver" filter="url(#dropShadowFilter)" font-family="Helvetica" font-size="10" style="text-anchor:start">216.14</text><text x="1725" y="62" fill="silver" filter="url(#dropShadowFilter)" font-family="Helvetica" font-size="10" style="text-anchor:start">(avg)</text></g><text x="900" y="34" fill="#FFF" font-family="Helvetica" font-size="14" style="text-anchor:middle">Playground AMD Ryzen 2950X Decompression Performance (us/frame)</text>&gt;<text x="1698" y="15" fill="gray" font-family="Helvetica" font-size="7" style="text-anchor:start">CSVToSVG 2.31</text>&gt;</svg>