<svg xmlns="http://www.w3.org/2000/svg" width="1800" height="550" version="1.1" viewPort="0 0 550 1800"><![CDATA[
Created with CSVtoSVG 2.31
]]><defs><radialGradient id="radialGradient1" r="65%" fx="50%" fy="50%" spreadMethod="pad"><stop offset="0%" stop-color="#505050" stop-opacity="1"/><stop offset="100%" stop-color="#101010" stop-opacity="1"/></radialGradient><linearGradient id="linearGradient1" x1="0%" x2="100%" y1="0%" y2="100%"><stop offset="0%" stop-color="#000"/><stop offset="100%" stop-color="#fff"/></linearGradient><clipPath id="graphArea"><rect width="1700" height="435" x="50" y="42"/></clipPath><filter id="dropShadowFilter" width="130%" height="130%" x="-20%"><feOffset dx="-2" dy="2" in="SourceAlpha" result="offOut"/><feGaussianBlur in="offOut" result="blurOut" stdDeviation="1.1"/><feBlend in="SourceGraphic" in2="blurOut" mode="normal"/></filter></defs><rect width="1800" height="550" x="0" y="0" fill="#101010" stroke="#101010" stroke-width="1" style="fill:url(#radialGradient1)"/><g id="graphArea"><g id="gridLines_decomp_matinee_p3"><line x1="50" x2="1750" y1="477" y2="477" stroke="#606060" style="fill:none;stroke-width:.25"/><line x1="50" x2="1750" y1="471.2" y2="471.2" stroke="#606060" style="fill:none;stroke-width:.25"/><line x1="50" x2="1750" y1="465.4" y2="465.4" stroke="#606060" style="fill:none;stroke-width:.25"/><line x1="50" x2="1750" y1="459.6" y2="459.6" stroke="#606060" style="fill:none;stroke-width:.25"/><line x1="50" x2="1750" y1="453.8" y2="453.8" stroke="#606060" style="fill:none;stroke-width:.25"/><line x1="50" x2="1750" y1="448" y2="448" stroke="#606060" style="fill:none;stroke-width:.25"/><line x1="50" x2="1750" y1="442.2" y2="442.2" stroke="#606060" style="fill:none;stroke-width:.25"/><line x1="50" x2="1750" y1="436.4" y2="436.4" stroke="#606060" style="fill:none;stroke-width:.25"/><line x1="50" x2="1750" y1="430.6" y2="430.6" stroke="#606060" style="fill:none;stroke-width:.25"/><line x1="50" x2="1750" y1="424.8" y2="424.8" stroke="#606060" style="fill:none;stroke-width:.25"/><line x1="50" x2="1750" y1="419" y2="419" stroke="#606060" style="fill:none;stroke-width:.25"/><line x1="50" x2="1750" y1="413.2" y2="413.2" stroke="#606060" style="fill:none;stroke-width:.25"/><line x1="50" x2="1750" y1="407.4" y2="407.4" stroke="#606060" style="fill:none;stroke-width:.25"/><line x1="50" x2="1750" y1="401.6" y2="401.6" stroke="#606060" style="fill:none;stroke-width:.25"/><line x1="50" x2="1750" y1="395.8" y2="395.8" stroke="#606060" style="fill:none;stroke-width:.25"/><line x1="50" x2="1750" y1="390" y2="390" stroke="#606060" style="fill:none;stroke-width:.25"/><line x1="50" x2="1750" y1="384.2" y2="384.2" stroke="#606060" style="fill:none;stroke-width:.25"/><line x1="50" x2="1750" y1="378.4" y2="378.4" stroke="#606060" style="fill:none;stroke-width:.25"/><line x1="50" x2="1750" y1="372.6" y2="372.6" stroke="#606060" style="fill:none;stroke-width:.25"/><line x1="50" x2="1750" y1="366.8" y2="366.8" stroke="#606060" style="fill:none;stroke-width:.25"/><line x1="50" x2="1750" y1="361" y2="361" stroke="#606060" style="fill:none;stroke-width:.25"/><line x1="50" x2="1750" y1="355.2" y2="355.2" stroke="#606060" style="fill:none;stroke-width:.25"/><line x1="50" x2="1750" y1="349.4" y2="349.4" stroke="#606060" style="fill:none;stroke-width:.25"/><line x1="50" x2="1750" y1="343.6" y2="343.6" stroke="#606060" style="fill:none;stroke-width:.25"/><line x1="50" x2="1750" y1="337.8" y2="337.8" stroke="#606060" style="fill:none;stroke-width:.25"/><line x1="50" x2="1750" y1="332" y2="332" stroke="#606060" style="fill:none;stroke-width:.25"/><line x1="50" x2="1750" y1="326.2" y2="326.2" stroke="#606060" style="fill:none;stroke-width:.25"/><line x1="50" x2="1750" y1="320.4" y2="320.4" stroke="#606060" style="fill:none;stroke-width:.25"/><line x1="50" x2="1750" y1="314.6" y2="314.6" stroke="#606060" style="fill:none;stroke-width:.25"/><line x1="50" x2="1750" y1="308.8" y2="308.8" stroke="#606060" style="fill:none;stroke-width:.25"/><line x1="50" x2="1750" y1="303" y2="303" stroke="#606060" style="fill:none;stroke-width:.25"/><line x1="50" x2="1750" y1="297.2" y2="297.2" stroke="#606060" style="fill:none;stroke-width:.25"/><line x1="50" x2="1750" y1="291.4" y2="291.4" stroke="#606060" style="fill:none;stroke-width:.25"/><line x1="50" x2="1750" y1="285.6" y2="285.6" stroke="#606060" style="fill:none;stroke-width:.25"/><line x1="50" x2="1750" y1="279.8" y2="279.8" stroke="#606060" style="fill:none;stroke-width:.25"/><line x1="50" x2="1750" y1="274" y2="274" stroke="#606060" style="fill:none;stroke-width:.25"/><line x1="50" x2="1750" y1="268.2" y2="268.2" stroke="#606060" style="fill:none;stroke-width:.25"/><line x1="50" x2="1750" y1="262.4" y2="262.4" stroke="#606060" style="fill:none;stroke-width:.25"/><line x1="50" x2="1750" y1="256.6" y2="256.6" stroke="#606060" style="fill:none;stroke-width:.25"/><line x1="50" x2="1750" y1="250.8" y2="250.8" stroke="#606060" style="fill:none;stroke-width:.25"/><line x1="50" x2="1750" y1="245" y2="245" stroke="#606060" style="fill:none;stroke-width:.25"/><line x1="50" x2="1750" y1="239.2" y2="239.2" stroke="#606060" style="fill:none;stroke-width:.25"/><line x1="50" x2="1750" y1="233.4" y2="233.4" stroke="#606060" style="fill:none;stroke-width:.25"/><line x1="50" x2="1750" y1="227.6" y2="227.6" stroke="#606060" style="fill:none;stroke-width:.25"/><line x1="50" x2="1750" y1="221.8" y2="221.8" stroke="#606060" style="fill:none;stroke-width:.25"/><line x1="50" x2="1750" y1="216" y2="216" stroke="#606060" style="fill:none;stroke-width:.25"/><line x1="50" x2="1750" y1="210.2" y2="210.2" stroke="#606060" style="fill:none;stroke-width:.25"/><line x1="50" x2="1750" y1="204.4" y2="204.4" stroke="#606060" style="fill:none;stroke-width:.25"/><line x1="50" x2="1750" y1="198.6" y2="198.6" stroke="#606060" style="fill:none;stroke-width:.25"/><line x1="50" x2="1750" y1="192.8" y2="192.8" stroke="#606060" style="fill:none;stroke-width:.25"/><line x1="50" x2="1750" y1="187" y2="187" stroke="#606060" style="fill:none;stroke-width:.25"/><line x1="50" x2="1750" y1="181.2" y2="181.2" stroke="#606060" style="fill:none;stroke-width:.25"/><line x1="50" x2="1750" y1="175.4" y2="175.4" stroke="#606060" style="fill:none;stroke-width:.25"/><line x1="50" x2="1750" y1="169.6" y2="169.6" stroke="#606060" style="fill:none;stroke-width:.25"/><line x1="50" x2="1750" y1="163.8" y2="163.8" stroke="#606060" style="fill:none;stroke-width:.25"/><line x1="50" x2="1750" y1="158" y2="158" stroke="#606060" style="fill:none;stroke-width:.25"/><line x1="50" x2="1750" y1="152.2" y2="152.2" stroke="#606060" style="fill:none;stroke-width:.25"/><line x1="50" x2="1750" y1="146.4" y2="146.4" stroke="#606060" style="fill:none;stroke-width:.25"/><line x1="50" x2="1750" y1="140.6" y2="140.6" stroke="#606060" style="fill:none;stroke-width:.25"/><line x1="50" x2="1750" y1="134.8" y2="134.8" stroke="#606060" style="fill:none;stroke-width:.25"/><line x1="50" x2="1750" y1="129" y2="129" stroke="#606060" style="fill:none;stroke-width:.25"/><line x1="50" x2="1750" y1="123.2" y2="123.2" stroke="#606060" style="fill:none;stroke-width:.25"/><line x1="50" x2="1750" y1="117.4" y2="117.4" stroke="#606060" style="fill:none;stroke-width:.25"/><line x1="50" x2="1750" y1="111.6" y2="111.6" stroke="#606060" style="fill:none;stroke-width:.25"/><line x1="50" x2="1750" y1="105.8" y2="105.8" stroke="#606060" style="fill:none;stroke-width:.25"/><line x1="50" x2="1750" y1="100" y2="100" stroke="#606060" style="fill:none;stroke-width:.25"/><line x1="50" x2="1750" y1="94.2" y2="94.2" stroke="#606060" style="fill:none;stroke-width:.25"/><line x1="50" x2="1750" y1="88.4" y2="88.4" stroke="#606060" style="fill:none;stroke-width:.25"/><line x1="50" x2="1750" y1="82.6" y2="82.6" stroke="#606060" style="fill:none;stroke-width:.25"/><line x1="50" x2="1750" y1="76.8" y2="76.8" stroke="#606060" style="fill:none;stroke-width:.25"/><line x1="50" x2="1750" y1="71" y2="71" stroke="#606060" style="fill:none;stroke-width:.25"/><line x1="50" x2="1750" y1="65.2" y2="65.2" stroke="#606060" style="fill:none;stroke-width:.25"/><line x1="50" x2="1750" y1="59.4" y2="59.4" stroke="#606060" style="fill:none;stroke-width:.25"/><line x1="50" x2="1750" y1="53.6" y2="53.6" stroke="#606060" style="fill:none;stroke-width:.25"/><line x1="50" x2="1750" y1="47.8" y2="47.8" stroke="#606060" style="fill:none;stroke-width:.25"/><line x1="50" x2="1750" y1="42" y2="42" stroke="#606060" style="fill:none;stroke-width:.25"/><line x1="50" x2="1750" y1="477" y2="477" stroke="gray" style="fill:none;stroke-width:.25"/><line x1="50" x2="1750" y1="448" y2="448" stroke="gray" style="fill:none;stroke-width:.25"/><line x1="50" x2="1750" y1="419" y2="419" stroke="gray" style="fill:none;stroke-width:.25"/><line x1="50" x2="1750" y1="390" y2="390" stroke="gray" style="fill:none;stroke-width:.25"/><line x1="50" x2="1750" y1="361" y2="361" stroke="gray" style="fill:none;stroke-width:.25"/><line x1="50" x2="1750" y1="332" y2="332" stroke="gray" style="fill:none;stroke-width:.25"/><line x1="50" x2="1750" y1="303" y2="303" stroke="gray" style="fill:none;stroke-width:.25"/><line x1="50" x2="1750" y1="274" y2="274" stroke="gray" style="fill:none;stroke-width:.25"/><line x1="50" x2="1750" y1="245" y2="245" stroke="gray" style="fill:none;stroke-width:.25"/><line x1="50" x2="1750" y1="216" y2="216" stroke="gray" style="fill:none;stroke-width:.25"/><line x1="50" x2="1750" y1="187" y2="187" stroke="gray" style="fill:none;stroke-width:.25"/><line x1="50" x2="1750" y1="158" y2="158" stroke="gray" style="fill:none;stroke-width:.25"/><line x1="50" x2="1750" y1="129" y2="129" stroke="gray" style="fill:none;stroke-width:.25"/><line x1="50" x2="1750" y1="100" y2="100" stroke="gray" style="fill:none;stroke-width:.25"/><line x1="50" x2="1750" y1="71" y2="71" stroke="gray" style="fill:none;stroke-width:.25"/><line x1="50" x2="1750" y1="42" y2="42" stroke="gray" style="fill:none;stroke-width:.25"/></g><g id="xAxis_decomp_matinee_p3"><text x="487" y="-46" fill="#FFF" font-family="Helvetica" font-size="10" transform="rotate(90)">0</text><text x="487" y="-88.5" fill="#FFF" font-family="Helvetica" font-size="10" transform="rotate(90)">50</text><text x="487" y="-131" fill="#FFF" font-family="Helvetica" font-size="10" transform="rotate(90)">100</text><text x="487" y="-173.5" fill="#FFF" font-family="Helvetica" font-size="10" transform="rotate(90)">150</text><text x="487" y="-216" fill="#FFF" font-family="Helvetica" font-size="10" transform="rotate(90)">200</text><text x="487" y="-258.5" fill="#FFF" font-family="Helvetica" font-size="10" transform="rotate(90)">250</text><text x="487" y="-301" fill="#FFF" font-family="Helvetica" font-size="10" transform="rotate(90)">300</text><text x="487" y="-343.5" fill="#FFF" font-family="Helvetica" font-size="10" transform="rotate(90)">350</text><text x="487" y="-386" fill="#FFF" font-family="Helvetica" font-size="10" transform="rotate(90)">400</text><text x="487" y="-428.5" fill="#FFF" font-family="Helvetica" font-size="10" transform="rotate(90)">450</text><text x="487" y="-471" fill="#FFF" font-family="Helvetica" font-size="10" transform="rotate(90)">500</text><text x="487" y="-513.5" fill="#FFF" font-family="Helvetica" font-size="10" transform="rotate(90)">550</text><text x="487" y="-556" fill="#FFF" font-family="Helvetica" font-size="10" transform="rotate(90)">600</text><text x="487" y="-598.5" fill="#FFF" font-family="Helvetica" font-size="10" transform="rotate(90)">650</text><text x="487" y="-641" fill="#FFF" font-family="Helvetica" font-size="10" transform="rotate(90)">700</text><text x="487" y="-683.5" fill="#FFF" font-family="Helvetica" font-size="10" transform="rotate(90)">750</text><text x="487" y="-726" fill="#FFF" font-family="Helvetica" font-size="10" transform="rotate(90)">800</text><text x="487" y="-768.5" fill="#FFF" font-family="Helvetica" font-size="10" transform="rotate(90)">850</text><text x="487" y="-811" fill="#FFF" font-family="Helvetica" font-size="10" transform="rotate(90)">900</text><text x="487" y="-853.5" fill="#FFF" font-family="Helvetica" font-size="10" transform="rotate(90)">950</text><text x="487" y="-896" fill="#FFF" font-family="Helvetica" font-size="10" transform="rotate(90)">1000</text><text x="487" y="-938.5" fill="#FFF" font-family="Helvetica" font-size="10" transform="rotate(90)">1050</text><text x="487" y="-981" fill="#FFF" font-family="Helvetica" font-size="10" transform="rotate(90)">1100</text><text x="487" y="-1023.5" fill="#FFF" font-family="Helvetica" font-size="10" transform="rotate(90)">1150</text><text x="487" y="-1066" fill="#FFF" font-family="Helvetica" font-size="10" transform="rotate(90)">1200</text><text x="487" y="-1108.5" fill="#FFF" font-family="Helvetica" font-size="10" transform="rotate(90)">1250</text><text x="487" y="-1151" fill="#FFF" font-family="Helvetica" font-size="10" transform="rotate(90)">1300</text><text x="487" y="-1193.5" fill="#FFF" font-family="Helvetica" font-size="10" transform="rotate(90)">1350</text><text x="487" y="-1236" fill="#FFF" font-family="Helvetica" font-size="10" transform="rotate(90)">1400</text><text x="487" y="-1278.5" fill="#FFF" font-family="Helvetica" font-size="10" transform="rotate(90)">1450</text><text x="487" y="-1321" fill="#FFF" font-family="Helvetica" font-size="10" transform="rotate(90)">1500</text><text x="487" y="-1363.5" fill="#FFF" font-family="Helvetica" font-size="10" transform="rotate(90)">1550</text><text x="487" y="-1406" fill="#FFF" font-family="Helvetica" font-size="10" transform="rotate(90)">1600</text><text x="487" y="-1448.5" fill="#FFF" font-family="Helvetica" font-size="10" transform="rotate(90)">1650</text><text x="487" y="-1491" fill="#FFF" font-family="Helvetica" font-size="10" transform="rotate(90)">1700</text><text x="487" y="-1533.5" fill="#FFF" font-family="Helvetica" font-size="10" transform="rotate(90)">1750</text><text x="487" y="-1576" fill="#FFF" font-family="Helvetica" font-size="10" transform="rotate(90)">1800</text><text x="487" y="-1618.5" fill="#FFF" font-family="Helvetica" font-size="10" transform="rotate(90)">1850</text><text x="487" y="-1661" fill="#FFF" font-family="Helvetica" font-size="10" transform="rotate(90)">1900</text><text x="487" y="-1703.5" fill="#FFF" font-family="Helvetica" font-size="10" transform="rotate(90)">1950</text><text x="487" y="-1746" fill="#FFF" font-family="Helvetica" font-size="10" transform="rotate(90)">2000</text></g><g id="yAxis_decomp_matinee_p3"><text x="40" y="481" fill="#FFF" font-family="Helvetica" font-size="10" style="text-anchor:end">0</text>&gt;<line x1="47.5" x2="50" y1="477" y2="477" stroke="#FFF" style="fill:none;stroke-width:.25"/><text x="40" y="452" fill="#FFF" font-family="Helvetica" font-size="10" style="text-anchor:end">200</text>&gt;<line x1="47.5" x2="50" y1="448" y2="448" stroke="#FFF" style="fill:none;stroke-width:.25"/><text x="40" y="423" fill="#FFF" font-family="Helvetica" font-size="10" style="text-anchor:end">400</text>&gt;<line x1="47.5" x2="50" y1="419" y2="419" stroke="#FFF" style="fill:none;stroke-width:.25"/><text x="40" y="394" fill="#FFF" font-family="Helvetica" font-size="10" style="text-anchor:end">600</text>&gt;<line x1="47.5" x2="50" y1="390" y2="390" stroke="#FFF" style="fill:none;stroke-width:.25"/><text x="40" y="365" fill="#FFF" font-family="Helvetica" font-size="10" style="text-anchor:end">800</text>&gt;<line x1="47.5" x2="50" y1="361" y2="361" stroke="#FFF" style="fill:none;stroke-width:.25"/><text x="40" y="336" fill="#FFF" font-family="Helvetica" font-size="10" style="text-anchor:end">1000</text>&gt;<line x1="47.5" x2="50" y1="332" y2="332" stroke="#FFF" style="fill:none;stroke-width:.25"/><text x="40" y="307" fill="#FFF" font-family="Helvetica" font-size="10" style="text-anchor:end">1200</text>&gt;<line x1="47.5" x2="50" y1="303" y2="303" stroke="#FFF" style="fill:none;stroke-width:.25"/><text x="40" y="278" fill="#FFF" font-family="Helvetica" font-size="10" style="text-anchor:end">1400</text>&gt;<line x1="47.5" x2="50" y1="274" y2="274" stroke="#FFF" style="fill:none;stroke-width:.25"/><text x="40" y="249" fill="#FFF" font-family="Helvetica" font-size="10" style="text-anchor:end">1600</text>&gt;<line x1="47.5" x2="50" y1="245" y2="245" stroke="#FFF" style="fill:none;stroke-width:.25"/><text x="40" y="220" fill="#FFF" font-family="Helvetica" font-size="10" style="text-anchor:end">1800</text>&gt;<line x1="47.5" x2="50" y1="216" y2="216" stroke="#FFF" style="fill:none;stroke-width:.25"/><text x="40" y="191" fill="#FFF" font-family="Helvetica" font-size="10" style="text-anchor:end">2000</text>&gt;<line x1="47.5" x2="50" y1="187" y2="187" stroke="#FFF" style="fill:none;stroke-width:.25"/><text x="40" y="162" fill="#FFF" font-family="Helvetica" font-size="10" style="text-anchor:end">2200</text>&gt;<line x1="47.5" x2="50" y1="158" y2="158" stroke="#FFF" style="fill:none;stroke-width:.25"/><text x="40" y="133" fill="#FFF" font-family="Helvetica" font-size="10" style="text-anchor:end">2400</text>&gt;<line x1="47.5" x2="50" y1="129" y2="129" stroke="#FFF" style="fill:none;stroke-width:.25"/><text x="40" y="104" fill="#FFF" font-family="Helvetica" font-size="10" style="text-anchor:end">2600</text>&gt;<line x1="47.5" x2="50" y1="100" y2="100" stroke="#FFF" style="fill:none;stroke-width:.25"/><text x="40" y="75" fill="#FFF" font-family="Helvetica" font-size="10" style="text-anchor:end">2800</text>&gt;<line x1="47.5" x2="50" y1="71" y2="71" stroke="#FFF" style="fill:none;stroke-width:.25"/><text x="40" y="46" fill="#FFF" font-family="Helvetica" font-size="10" style="text-anchor:end">3000</text>&gt;<line x1="47.5" x2="50" y1="42" y2="42" stroke="#FFF" style="fill:none;stroke-width:.25"/></g><line x1="50" x2="50" y1="42" y2="477" stroke="gray" style="fill:none;stroke-width:.5"/><line x1="50" x2="1750" y1="477" y2="477" stroke="gray" style="fill:none;stroke-width:.5"/><polyline id="Stat_0_Animation/Total/ExtractPoseFromAnimData_decomp_matinee_p3" stroke="#66CDFF" points="50 477 50.85 477 51.7 427.555 52.55 457.135 53.4 393.045 54.25 452.64 55.1 452.205 55.95 457.86 56.8 450.9 57.65 451.915 58.5 454.525 59.35 453.075 60.2 419.435 61.05 455.105 61.9 453.8 62.75 435.965 63.6 453.8 64.45 408.56 65.3 455.105 66.15 458.15 67 377.24 67.85 455.83 68.7 427.555 69.55 453.51 70.4 456.265 71.25 418.71 72.1 454.38 72.95 448.145 73.8 452.64 74.65 463.08 75.5 453.945 76.35 461.485 77.2 462.21 78.05 460.325 78.9 461.34 79.75 462.21 80.6 459.31 81.45 458.73 82.3 453.945 83.15 457.57 84 450.61 84.85 460.035 85.7 460.47 86.55 462.065 87.4 461.775 88.25 456.12 89.1 461.63 89.95 444.665 90.8 460.615 91.65 449.885 92.5 462.065 93.35 462.21 94.2 460.325 95.05 462.935 95.9 461.92 96.75 423.93 97.6 459.02 98.45 458.295 99.3 460.76 100.15 461.92 101 463.37 101.85 462.935 102.7 435.385 103.55 462.065 104.4 460.905 105.25 452.06 106.1 462.5 106.95 461.05 107.8 461.05 108.65 460.18 109.5 461.63 110.35 460.905 111.2 461.485 112.05 456.99 112.9 462.5 113.75 462.065 114.6 457.86 115.45 457.135 116.3 454.815 117.15 459.02 118 461.92 118.85 456.555 119.7 451.335 120.55 461.485 121.4 460.325 122.25 457.715 123.1 452.35 123.95 461.92 124.8 461.92 125.65 458.875 126.5 455.975 127.35 455.25 128.2 454.38 129.05 458.585 129.9 457.135 130.75 455.83 131.6 459.745 132.45 458.295 133.3 450.755 134.15 441.475 135 454.67 135.85 448.87 136.7 453.22 137.55 457.425 138.4 453.075 139.25 447.42 140.1 430.02 140.95 456.41 141.8 441.475 142.65 454.815 143.5 455.685 144.35 455.685 145.2 452.205 146.05 459.165 146.9 454.38 147.75 453.075 148.6 451.19 149.45 453.655 150.3 451.19 151.15 456.41 152 461.63 152.85 458.15 153.7 456.41 154.55 453.22 155.4 461.775 156.25 456.845 157.1 455.975 157.95 456.12 158.8 414.36 159.65 442.925 160.5 414.505 161.35 410.155 162.2 452.785 163.05 427.41 163.9 453.22 164.75 455.83 165.6 461.92 166.45 457.715 167.3 451.335 168.15 413.49 169 459.165 169.85 453.51 170.7 454.525 171.55 450.9 172.4 450.465 173.25 407.11 174.1 454.67 174.95 459.745 175.8 454.38 176.65 451.915 177.5 454.09 178.35 450.9 179.2 452.93 180.05 442.2 180.9 451.915 181.75 450.32 182.6 445.825 183.45 451.77 184.3 452.785 185.15 451.335 186 452.64 186.85 456.12 187.7 427.845 188.55 443.07 189.4 456.7 190.25 454.525 191.1 454.67 191.95 454.67 192.8 398.99 193.65 421.755 194.5 447.565 195.35 459.455 196.2 458.73 197.05 455.685 197.9 457.28 198.75 456.845 199.6 453.655 200.45 457.425 201.3 452.35 202.15 445.97 203 450.465 203.85 449.45 204.7 454.67 205.55 452.35 206.4 456.41 207.25 432.92 208.1 451.915 208.95 455.25 209.8 447.565 210.65 453.8 211.5 451.335 212.35 454.67 213.2 445.535 214.05 452.785 214.9 455.54 215.75 458.295 216.6 457.135 217.45 458.005 218.3 451.625 219.15 459.165 220 453.655 220.85 453.365 221.7 446.985 222.55 449.885 223.4 454.525 224.25 455.395 225.1 443.94 225.95 444.665 226.8 446.695 227.65 452.35 228.5 442.635 229.35 453.945 230.2 451.045 231.05 453.51 231.9 450.465 232.75 458.005 233.6 459.31 234.45 454.815 235.3 459.31 236.15 432.195 237 441.33 237.85 454.235 238.7 450.755 239.55 456.845 240.4 462.5 241.25 414.505 242.1 456.845 242.95 454.09 243.8 452.93 244.65 458.295 245.5 454.96 246.35 448.87 247.2 453.365 248.05 443.36 248.9 450.755 249.75 453.51 250.6 457.425 251.45 454.525 252.3 443.36 253.15 452.205 254 452.93 254.85 450.9 255.7 457.425 256.55 454.09 257.4 461.05 258.25 455.395 259.1 455.25 259.95 452.06 260.8 457.135 261.65 463.08 262.5 463.225 263.35 454.235 264.2 456.845 265.05 451.48 265.9 440.315 266.75 449.45 267.6 458.73 268.45 445.68 269.3 448 270.15 407.69 271 425.09 271.85 417.985 272.7 414.505 273.55 449.16 274.4 425.09 275.25 431.035 276.1 457.135 276.95 458.73 277.8 410.01 278.65 450.32 279.5 456.845 280.35 459.165 281.2 449.595 282.05 457.425 282.9 453.22 283.75 446.985 284.6 456.99 285.45 456.555 286.3 450.755 287.15 455.83 288 455.105 288.85 453.8 289.7 430.02 290.55 452.06 291.4 454.38 292.25 449.015 293.1 452.06 293.95 452.06 294.8 449.885 295.65 450.465 296.5 416.68 297.35 450.32 298.2 450.755 299.05 449.015 299.9 449.74 300.75 449.45 301.6 449.74 302.45 456.7 303.3 452.495 304.15 455.25 305 452.64 305.85 452.785 306.7 451.77 307.55 451.335 308.4 449.595 309.25 448.58 310.1 450.32 310.95 450.03 311.8 448.725 312.65 449.45 313.5 450.03 314.35 453.945 315.2 449.45 316.05 447.855 316.9 451.77 317.75 452.785 318.6 458.44 319.45 454.38 320.3 451.335 321.15 445.97 322 451.335 322.85 444.665 323.7 448.87 324.55 452.06 325.4 449.015 326.25 450.755 327.1 449.45 327.95 450.755 328.8 453.8 329.65 449.595 330.5 450.32 331.35 451.915 332.2 449.16 333.05 454.815 333.9 451.19 334.75 449.74 335.6 448.29 336.45 451.48 337.3 449.595 338.15 451.915 339 450.9 339.85 452.495 340.7 456.555 341.55 436.545 342.4 443.505 343.25 446.985 344.1 447.42 344.95 452.64 345.8 450.61 346.65 434.225 347.5 448.435 348.35 454.235 349.2 453.51 350.05 451.335 350.9 452.93 351.75 450.61 352.6 452.35 353.45 454.235 354.3 451.045 355.15 450.465 356 444.085 356.85 450.03 357.7 435.24 358.55 440.025 359.4 452.64 360.25 451.625 361.1 446.84 361.95 448.29 362.8 452.205 363.65 453.655 364.5 453.945 365.35 455.25 366.2 451.335 367.05 450.32 367.9 450.61 368.75 452.785 369.6 456.555 370.45 458.15 371.3 458.44 372.15 411.17 373 453.655 373.85 455.25 374.7 439.735 375.55 458.15 376.4 457.57 377.25 453.22 378.1 459.31 378.95 456.12 379.8 416.245 380.65 454.38 381.5 450.175 382.35 444.375 383.2 441.765 384.05 442.635 384.9 451.335 385.75 450.32 386.6 438.865 387.45 456.12 388.3 453.945 389.15 455.105 390 458.44 390.85 458.295 391.7 457.86 392.55 453.075 393.4 458.585 394.25 442.78 395.1 448.29 395.95 446.695 396.8 458.15 397.65 457.135 398.5 426.395 399.35 451.915 400.2 453.655 401.05 452.64 401.9 457.86 402.75 454.96 403.6 450.03 404.45 451.335 405.3 451.045 406.15 451.625 407 456.99 407.85 457.425 408.7 455.83 409.55 452.495 410.4 453.51 411.25 456.845 412.1 455.685 412.95 454.67 413.8 445.97 414.65 403.485 415.5 452.93 416.35 451.625 417.2 456.41 418.05 453.365 418.9 453.8 419.75 453.22 420.6 458.005 421.45 457.86 422.3 458.005 423.15 455.975 424 453.655 424.85 460.035 425.7 453.655 426.55 459.89 427.4 451.48 428.25 441.33 429.1 454.38 429.95 385.94 430.8 455.83 431.65 455.25 432.5 425.815 433.35 452.205 434.2 451.625 435.05 457.57 435.9 459.02 436.75 454.96 437.6 433.21 438.45 454.38 439.3 448.87 440.15 456.12 441 453.22 441.85 436.835 442.7 455.975 443.55 454.96 444.4 447.855 445.25 415.81 446.1 441.475 446.95 454.815 447.8 460.76 448.65 439.88 449.5 453.8 450.35 456.12 451.2 458.295 452.05 456.845 452.9 454.38 453.75 458.295 454.6 450.32 455.45 455.685 456.3 451.77 457.15 454.525 458 453.8 458.85 454.815 459.7 431.905 460.55 441.33 461.4 457.57 462.25 457.57 463.1 403.195 463.95 453.365 464.8 415.52 465.65 460.325 466.5 456.555 467.35 415.085 468.2 439.445 469.05 455.83 469.9 449.16 470.75 458.44 471.6 434.515 472.45 459.455 473.3 444.665 474.15 455.83 475 456.41 475.85 456.12 476.7 443.07 477.55 451.915 478.4 412.04 479.25 450.61 480.1 456.41 480.95 453.22 481.8 449.305 482.65 413.345 483.5 442.49 484.35 450.03 485.2 454.67 486.05 460.615 486.9 457.57 487.75 458.73 488.6 405.66 489.45 447.13 490.3 457.28 491.15 450.03 492 453.51 492.85 456.265 493.7 446.115 494.55 458.005 495.4 453.945 496.25 447.565 497.1 437.85 497.95 454.235 498.8 456.12 499.65 423.06 500.5 451.045 501.35 453.8 502.2 452.06 503.05 450.755 503.9 446.84 504.75 450.03 505.6 451.335 506.45 452.93 507.3 456.555 508.15 415.085 509 461.485 509.85 434.37 510.7 446.84 511.55 455.54 512.4 450.465 513.25 450.465 514.1 447.13 514.95 458.73 515.8 457.57 516.65 457.57 517.5 424.945 518.35 451.045 519.2 461.05 520.05 460.325 520.9 408.85 521.75 450.9 522.6 456.41 523.45 454.09 524.3 457.28 525.15 443.65 526 425.235 526.85 457.715 527.7 459.455 528.55 458.295 529.4 455.685 530.25 456.845 531.1 461.92 531.95 446.55 532.8 414.65 533.65 454.09 534.5 444.665 535.35 460.47 536.2 441.765 537.05 450.465 537.9 453.365 538.75 451.915 539.6 420.74 540.45 442.925 541.3 459.02 542.15 455.395 543 449.885 543.85 459.165 544.7 434.37 545.55 427.12 546.4 448.87 547.25 445.39 548.1 458.15 548.95 458.005 549.8 454.38 550.65 450.9 551.5 461.05 552.35 456.555 553.2 447.71 554.05 458.44 554.9 458.73 555.75 455.975 556.6 452.35 557.45 446.695 558.3 454.09 559.15 458.295 560 417.985 560.85 456.12 561.7 454.525 562.55 445.68 563.4 460.47 564.25 458.875 565.1 461.195 565.95 456.845 566.8 456.555 567.65 457.135 568.5 454.67 569.35 456.555 570.2 459.31 571.05 454.67 571.9 455.25 572.75 452.35 573.6 403.775 574.45 454.235 575.3 451.77 576.15 442.78 577 444.81 577.85 454.38 578.7 448.29 579.55 450.175 580.4 419.29 581.25 449.74 582.1 445.97 582.95 450.465 583.8 438.575 584.65 449.885 585.5 444.375 586.35 449.015 587.2 448.725 588.05 447.13 588.9 430.6 589.75 450.32 590.6 450.175 591.45 449.305 592.3 449.595 593.15 446.405 594 402.76 594.85 400.44 595.7 443.07 596.55 448.29 597.4 449.015 598.25 437.995 599.1 411.17 599.95 449.74 600.8 452.35 601.65 448.435 602.5 449.885 603.35 451.19 604.2 451.045 605.05 452.64 605.9 455.105 606.75 432.05 607.6 451.045 608.45 454.67 609.3 452.785 610.15 455.685 611 454.235 611.85 451.625 612.7 451.77 613.55 456.99 614.4 453.8 615.25 450.61 616.1 449.16 616.95 456.7 617.8 431.18 618.65 451.045 619.5 451.045 620.35 448.87 621.2 450.9 622.05 437.56 622.9 456.99 623.75 459.89 624.6 452.06 625.45 455.395 626.3 437.705 627.15 435.82 628 451.77 628.85 455.975 629.7 418.565 630.55 446.985 631.4 435.82 632.25 451.335 633.1 457.425 633.95 458.15 634.8 409.285 635.65 454.67 636.5 455.395 637.35 450.9 638.2 422.48 639.05 453.22 639.9 453.655 640.75 456.265 641.6 423.06 642.45 448 643.3 453.51 644.15 419.435 645 454.525 645.85 453.8 646.7 456.41 647.55 454.67 648.4 451.48 649.25 451.19 650.1 456.7 650.95 451.77 651.8 449.595 652.65 376.225 653.5 408.415 654.35 451.625 655.2 407.98 656.05 454.38 656.9 398.41 657.75 452.06 658.6 441.185 659.45 448.87 660.3 452.785 661.15 449.16 662 447.565 662.85 451.625 663.7 453.22 664.55 445.535 665.4 414.94 666.25 448.58 667.1 451.19 667.95 452.205 668.8 454.815 669.65 401.6 670.5 413.49 671.35 390 672.2 452.495 673.05 450.755 673.9 454.38 674.75 448.58 675.6 448.725 676.45 448.29 677.3 446.985 678.15 449.595 679 454.815 679.85 453.655 680.7 441.475 681.55 453.22 682.4 444.52 683.25 454.815 684.1 449.885 684.95 444.23 685.8 436.69 686.65 459.31 687.5 459.165 688.35 434.515 689.2 366.655 690.05 446.115 690.9 444.955 691.75 462.355 692.6 461.195 693.45 460.035 694.3 459.745 695.15 459.02 696 452.495 696.85 452.785 697.7 458.15 698.55 434.225 699.4 460.18 700.25 460.76 701.1 453.51 701.95 458.15 702.8 445.535 703.65 454.96 704.5 455.25 705.35 459.02 706.2 457.715 707.05 438.14 707.9 462.21 708.75 461.05 709.6 454.96 710.45 461.92 711.3 451.915 712.15 458.44 713 455.83 713.85 450.9 714.7 449.74 715.55 459.745 716.4 458.73 717.25 459.165 718.1 454.38 718.95 459.31 719.8 456.12 720.65 458.005 721.5 450.32 722.35 454.235 723.2 452.495 724.05 456.7 724.9 458.295 725.75 451.335 726.6 454.96 727.45 453.22 728.3 453.365 729.15 453.365 730 461.05 730.85 457.135 731.7 455.54 732.55 449.305 733.4 454.38 734.25 450.465 735.1 453.8 735.95 456.555 736.8 452.64 737.65 451.48 738.5 455.83 739.35 455.54 740.2 455.975 741.05 452.93 741.9 456.41 742.75 452.93 743.6 454.815 744.45 454.09 745.3 450.32 746.15 425.815 747 454.235 747.85 444.085 748.7 455.54 749.55 460.47 750.4 455.975 751.25 443.94 752.1 457.425 752.95 454.96 753.8 458.73 754.65 455.83 755.5 446.84 756.35 455.83 757.2 456.41 758.05 452.785 758.9 456.12 759.75 446.55 760.6 458.44 761.45 454.09 762.3 452.93 763.15 455.25 764 452.495 764.85 456.41 765.7 449.595 766.55 449.45 767.4 461.775 768.25 459.6 769.1 455.685 769.95 438.14 770.8 460.18 771.65 461.195 772.5 456.7 773.35 459.6 774.2 441.91 775.05 457.86 775.9 453.51 776.75 456.99 777.6 455.25 778.45 452.93 779.3 453.22 780.15 454.235 781 455.395 781.85 454.38 782.7 455.54 783.55 457.715 784.4 455.395 785.25 457.57 786.1 450.03 786.95 454.38 787.8 458.875 788.65 462.21 789.5 458.295 790.35 436.11 791.2 456.265 792.05 453.8 792.9 454.525 793.75 456.12 794.6 453.51 795.45 453.945 796.3 452.93 797.15 452.785 798 453.945 798.85 452.785 799.7 452.495 800.55 452.495 801.4 458.73 802.25 456.555 803.1 454.815 803.95 454.525 804.8 452.35 805.65 450.03 806.5 452.93 807.35 430.89 808.2 451.19 809.05 445.1 809.9 450.465 810.75 449.015 811.6 435.095 812.45 455.54 813.3 452.06 814.15 446.405 815 452.93 815.85 450.465 816.7 452.06 817.55 444.52 818.4 435.095 819.25 453.655 820.1 455.25 820.95 449.305 821.8 452.93 822.65 450.61 823.5 453.075 824.35 451.48 825.2 450.03 826.05 450.03 826.9 450.03 827.75 410.01 828.6 451.335 829.45 450.9 830.3 448.87 831.15 451.335 832 449.885 832.85 453.075 833.7 452.93 834.55 452.785 835.4 455.685 836.25 451.045 837.1 429.15 837.95 458.585 838.8 456.845 839.65 452.06 840.5 452.64 841.35 452.64 842.2 451.19 843.05 451.045 843.9 445.825 844.75 448.87 845.6 450.9 846.45 450.465 847.3 449.885 848.15 449.74 849 452.93 849.85 446.55 850.7 433.79 851.55 458.44 852.4 450.465 853.25 455.685 854.1 456.41 854.95 444.955 855.8 445.1 856.65 455.25 857.5 442.78 858.35 447.275 859.2 454.09 860.05 451.335 860.9 457.86 861.75 454.09 862.6 455.395 863.45 429.295 864.3 461.34 865.15 434.225 866 417.405 866.85 451.045 867.7 455.395 868.55 459.165 869.4 452.205 870.25 455.25 871.1 457.715 871.95 456.265 872.8 456.265 873.65 458.44 874.5 427.7 875.35 454.67 876.2 456.7 877.05 453.655 877.9 459.31 878.75 450.465 879.6 417.55 880.45 449.16 881.3 452.785 882.15 410.3 883 453.655 883.85 445.68 884.7 451.19 885.55 447.855 886.4 436.69 887.25 452.785 888.1 459.02 888.95 418.71 889.8 449.595 890.65 426.395 891.5 456.12 892.35 426.685 893.2 448.725 894.05 455.54 894.9 426.105 895.75 455.395 896.6 459.6 897.45 448.87 898.3 443.94 899.15 446.985 900 455.395 900.85 448.58 901.7 425.96 902.55 445.1 903.4 443.215 904.25 450.61 905.1 457.135 905.95 451.77 906.8 429.73 907.65 433.645 908.5 453.945 909.35 452.35 910.2 456.99 911.05 457.28 911.9 453.51 912.75 461.63 913.6 457.715 914.45 455.395 915.3 452.205 916.15 449.885 917 454.96 917.85 449.595 918.7 451.48 919.55 450.61 920.4 429.585 921.25 454.67 922.1 426.105 922.95 448.725 923.8 458.295 924.65 441.475 925.5 452.06 926.35 418.565 927.2 448.58 928.05 415.81 928.9 459.745 929.75 433.79 930.6 456.12 931.45 418.565 932.3 450.465 933.15 457.135 934 410.88 934.85 445.535 935.7 450.175 936.55 454.38 937.4 447.855 938.25 428.86 939.1 456.41 939.95 452.495 940.8 453.945 941.65 447.275 942.5 453.51 943.35 454.815 944.2 455.54 945.05 436.69 945.9 455.975 946.75 458.875 947.6 457.135 948.45 455.54 949.3 425.38 950.15 455.54 951 451.915 951.85 449.595 952.7 445.825 953.55 450.465 954.4 450.9 955.25 457.86 956.1 452.495 956.95 454.525 957.8 451.335 958.65 453.8 959.5 455.395 960.35 449.74 961.2 411.75 962.05 418.71 962.9 454.67 963.75 455.54 964.6 451.335 965.45 452.35 966.3 451.48 967.15 456.41 968 454.09 968.85 451.915 969.7 450.465 970.55 451.625 971.4 451.19 972.25 451.48 973.1 452.64 973.95 450.755 974.8 451.335 975.65 453.655 976.5 450.32 977.35 449.305 978.2 449.015 979.05 452.93 979.9 456.555 980.75 446.695 981.6 457.57 982.45 451.045 983.3 457.715 984.15 458.005 985 461.63 985.85 461.485 986.7 454.815 987.55 446.84 988.4 433.5 989.25 450.9 990.1 433.935 990.95 453.51 991.8 462.355 992.65 460.035 993.5 427.555 994.35 457.28 995.2 459.455 996.05 453.945 996.9 428.57 997.75 453.22 998.6 456.41 999.45 443.07 1000.3 461.05 1001.15 453.655 1002 454.525 1002.85 455.395 1003.7 447.13 1004.55 455.105 1005.4 462.21 1006.25 457.715 1007.1 457.28 1007.95 459.02 1008.8 455.25 1009.65 455.25 1010.5 451.625 1011.35 455.395 1012.2 453.22 1013.05 453.655 1013.9 454.235 1014.75 448 1015.6 454.96 1016.45 455.685 1017.3 454.525 1018.15 457.425 1019 452.785 1019.85 457.135 1020.7 449.595 1021.55 454.09 1022.4 428.28 1023.25 457.86 1024.1 459.02 1024.95 456.12 1025.8 454.815 1026.65 452.64 1027.5 453.075 1028.35 456.41 1029.2 455.54 1030.05 454.38 1030.9 453.51 1031.75 455.395 1032.6 419.58 1033.45 453.365 1034.3 447.855 1035.15 455.975 1036 455.105 1036.85 455.975 1037.7 444.955 1038.55 444.81 1039.4 446.84 1040.25 459.02 1041.1 452.205 1041.95 454.96 1042.8 434.805 1043.65 443.65 1044.5 456.99 1045.35 450.465 1046.2 448.725 1047.05 458.295 1047.9 450.61 1048.75 454.96 1049.6 455.105 1050.45 457.715 1051.3 455.83 1052.15 454.67 1053 451.19 1053.85 459.745 1054.7 431.18 1055.55 453.22 1056.4 447.565 1057.25 450.03 1058.1 454.38 1058.95 449.885 1059.8 434.515 1060.65 429.585 1061.5 459.745 1062.35 455.105 1063.2 450.03 1064.05 452.35 1064.9 430.89 1065.75 455.105 1066.6 455.54 1067.45 454.09 1068.3 437.56 1069.15 433.5 1070 455.25 1070.85 455.83 1071.7 453.075 1072.55 457.715 1073.4 456.41 1074.25 448.87 1075.1 444.81 1075.95 447.275 1076.8 450.755 1077.65 458.005 1078.5 458.73 1079.35 458.44 1080.2 456.41 1081.05 455.105 1081.9 452.06 1082.75 445.97 1083.6 453.365 1084.45 452.93 1085.3 456.7 1086.15 445.825 1087 454.235 1087.85 451.625 1088.7 455.395 1089.55 451.77 1090.4 451.19 1091.25 453.075 1092.1 452.35 1092.95 445.39 1093.8 453.075 1094.65 446.26 1095.5 451.77 1096.35 450.61 1097.2 455.975 1098.05 453.51 1098.9 442.78 1099.75 447.13 1100.6 455.685 1101.45 422.19 1102.3 458.005 1103.15 456.41 1104 446.405 1104.85 456.555 1105.7 454.96 1106.55 453.945 1107.4 455.395 1108.25 453.945 1109.1 453.8 1109.95 453.51 1110.8 453.8 1111.65 447.13 1112.5 452.06 1113.35 450.9 1114.2 450.465 1115.05 449.305 1115.9 447.42 1116.75 453.365 1117.6 452.93 1118.45 455.54 1119.3 456.99 1120.15 454.525 1121 450.32 1121.85 459.6 1122.7 419.29 1123.55 405.08 1124.4 458.44 1125.25 454.09 1126.1 456.265 1126.95 449.305 1127.8 457.425 1128.65 450.61 1129.5 450.755 1130.35 451.625 1131.2 445.97 1132.05 454.38 1132.9 442.635 1133.75 453.8 1134.6 448.87 1135.45 456.845 1136.3 453.51 1137.15 435.24 1138 456.41 1138.85 453.365 1139.7 456.99 1140.55 454.67 1141.4 457.86 1142.25 449.74 1143.1 460.76 1143.95 453.8 1144.8 459.31 1145.65 460.615 1146.5 459.165 1147.35 452.35 1148.2 461.195 1149.05 444.085 1149.9 450.61 1150.75 435.24 1151.6 426.395 1152.45 454.525 1153.3 431.47 1154.15 462.355 1155 322.72 1155.85 461.775 1156.7 459.6 1157.55 457.86 1158.4 423.35 1159.25 456.265 1160.1 435.095 1160.95 449.015 1161.8 453.51 1162.65 448 1163.5 448.435 1164.35 434.805 1165.2 458.295 1166.05 448.145 1166.9 445.39 1167.75 444.955 1168.6 454.96 1169.45 453.51 1170.3 454.235 1171.15 457.86 1172 435.675 1172.85 457.28 1173.7 426.25 1174.55 455.25 1175.4 458.73 1176.25 453.51 1177.1 459.02 1177.95 461.34 1178.8 455.25 1179.65 456.41 1180.5 458.295 1181.35 454.67 1182.2 450.9 1183.05 458.44 1183.9 455.395 1184.75 455.685 1185.6 455.54 1186.45 454.67 1187.3 453.8 1188.15 453.365 1189 346.645 1189.85 452.64 1190.7 451.045 1191.55 454.235 1192.4 454.235 1193.25 440.895 1194.1 454.815 1194.95 454.38 1195.8 420.74 1196.65 425.815 1197.5 451.48 1198.35 450.61 1199.2 453.365 1200.05 454.09 1200.9 456.555 1201.75 455.685 1202.6 457.28 1203.45 448.87 1204.3 426.25 1205.15 454.09 1206 455.25 1206.85 454.38 1207.7 452.93 1208.55 454.525 1209.4 456.12 1210.25 454.96 1211.1 448.435 1211.95 453.22 1212.8 449.45 1213.65 453.51 1214.5 457.425 1215.35 455.975 1216.2 453.945 1217.05 458.875 1217.9 431.76 1218.75 458.295 1219.6 454.815 1220.45 429.15 1221.3 452.785 1222.15 439.59 1223 460.035 1223.85 460.325 1224.7 456.12 1225.55 444.375 1226.4 449.45 1227.25 454.67 1228.1 456.99 1228.95 455.54 1229.8 449.885 1230.65 427.41 1231.5 453.365 1232.35 451.335 1233.2 448.29 1234.05 429.295 1234.9 444.375 1235.75 443.36 1236.6 410.3 1237.45 454.96 1238.3 432.05 1239.15 452.495 1240 450.755 1240.85 417.695 1241.7 452.64 1242.55 449.305 1243.4 450.9 1244.25 433.645 1245.1 456.7 1245.95 453.655 1246.8 456.41 1247.65 454.67 1248.5 453.075 1249.35 443.795 1250.2 453.075 1251.05 450.175 1251.9 452.785 1252.75 458.585 1253.6 452.495 1254.45 452.495 1255.3 450.465 1256.15 459.02 1257 414.36 1257.85 454.96 1258.7 452.93 1259.55 453.22 1260.4 444.23 1261.25 451.77 1262.1 452.495 1262.95 450.465 1263.8 455.685 1264.65 430.6 1265.5 459.02 1266.35 457.28 1267.2 453.655 1268.05 458.73 1268.9 457.28 1269.75 456.12 1270.6 454.38 1271.45 413.635 1272.3 457.715 1273.15 430.02 1274 450.9 1274.85 449.015 1275.7 452.35 1276.55 451.335 1277.4 449.45 1278.25 452.785 1279.1 455.83 1279.95 424.365 1280.8 461.05 1281.65 446.405 1282.5 411.025 1283.35 425.525 1284.2 450.61 1285.05 455.395 1285.9 451.045 1286.75 442.635 1287.6 449.595 1288.45 444.665 1289.3 452.06 1290.15 442.055 1291 452.93 1291.85 423.785 1292.7 430.02 1293.55 422.19 1294.4 458.295 1295.25 453.51 1296.1 453.8 1296.95 430.6 1297.8 455.105 1298.65 454.09 1299.5 440.895 1300.35 427.7 1301.2 428.28 1302.05 425.09 1302.9 456.7 1303.75 445.1 1304.6 452.785 1305.45 415.665 1306.3 457.28 1307.15 451.915 1308 419.58 1308.85 452.205 1309.7 449.16 1310.55 457.715 1311.4 456.41 1312.25 455.395 1313.1 457.28 1313.95 454.815 1314.8 421.465 1315.65 452.495 1316.5 453.8 1317.35 454.96 1318.2 453.22 1319.05 449.305 1319.9 452.06 1320.75 419.58 1321.6 454.67 1322.45 455.105 1323.3 450.755 1324.15 452.64 1325 450.9 1325.85 449.74 1326.7 449.885 1327.55 436.11 1328.4 451.48 1329.25 450.755 1330.1 450.9 1330.95 451.48 1331.8 451.335 1332.65 451.19 1333.5 449.74 1334.35 451.045 1335.2 452.35 1336.05 450.61 1336.9 452.93 1337.75 450.755 1338.6 449.45 1339.45 450.755 1340.3 426.25 1341.15 453.945 1342 454.96 1342.85 455.25 1343.7 455.83 1344.55 425.09 1345.4 451.77 1346.25 456.555 1347.1 454.815 1347.95 452.785 1348.8 452.93 1349.65 453.22 1350.5 454.67 1351.35 454.815 1352.2 448.435 1353.05 448.87 1353.9 447.13 1354.75 449.885 1355.6 453.51 1356.45 454.96 1357.3 453.8 1358.15 422.625 1359 450.9 1359.85 452.205 1360.7 454.67 1361.55 453.8 1362.4 454.09 1363.25 453.51 1364.1 452.06 1364.95 457.57 1365.8 453.8 1366.65 455.54 1367.5 455.105 1368.35 455.975 1369.2 454.38 1370.05 452.64 1370.9 456.12 1371.75 453.51 1372.6 453.22 1373.45 452.64 1374.3 452.205 1375.15 454.38 1376 453.22 1376.85 454.38 1377.7 452.35 1378.55 454.525 1379.4 451.77 1380.25 451.77 1381.1 435.385 1381.95 454.525 1382.8 454.38 1383.65 455.975 1384.5 454.235 1385.35 454.96 1386.2 453.075 1387.05 453.075 1387.9 443.505 1388.75 452.495 1389.6 452.495 1390.45 458.005 1391.3 453.945 1392.15 458.73 1393 453.51 1393.85 448.435 1394.7 459.02 1395.55 454.38 1396.4 455.105 1397.25 452.205 1398.1 453.8 1398.95 456.7 1399.8 453.51 1400.65 456.99 1401.5 456.555 1402.35 454.96 1403.2 450.32 1404.05 453.365 1404.9 445.97 1405.75 454.235 1406.6 433.21 1407.45 455.685 1408.3 451.77 1409.15 455.105 1410 451.915 1410.85 451.48 1411.7 446.115 1412.55 452.06 1413.4 430.89 1414.25 448.87 1415.1 451.19 1415.95 449.74 1416.8 450.755 1417.65 453.22 1418.5 447.565 1419.35 456.845 1420.2 455.54 1421.05 454.235 1421.9 452.205 1422.75 437.85 1423.6 453.655 1424.45 454.815 1425.3 457.86 1426.15 458.15 1427 422.915 1427.85 451.625 1428.7 456.41 1429.55 452.205 1430.4 453.655 1431.25 452.93 1432.1 447.565 1432.95 454.09 1433.8 453.22 1434.65 456.12 1435.5 452.495 1436.35 453.22 1437.2 451.625 1438.05 452.205 1438.9 454.815 1439.75 453.365 1440.6 454.235 1441.45 445.39 1442.3 452.06 1443.15 453.51 1444 451.19 1444.85 453.075 1445.7 450.61 1446.55 451.625 1447.4 452.93 1448.25 451.915 1449.1 452.495 1449.95 452.64 1450.8 451.335 1451.65 452.205 1452.5 452.93 1453.35 452.93 1454.2 452.64 1455.05 444.81 1455.9 452.35 1456.75 450.755 1457.6 450.175 1458.45 451.77 1459.3 452.64 1460.15 454.09 1461 455.54 1461.85 455.685 1462.7 454.09 1463.55 453.22 1464.4 449.595 1465.25 452.64 1466.1 453.075 1466.95 453.945 1467.8 453.945 1468.65 453.075 1469.5 455.54 1470.35 454.815 1471.2 447.565 1472.05 453.075 1472.9 450.61 1473.75 448.29 1474.6 454.09 1475.45 451.48 1476.3 458.295 1477.15 458.15 1478 456.265 1478.85 455.25 1479.7 451.625 1480.55 450.755 1481.4 454.67 1482.25 450.32 1483.1 449.45 1483.95 451.915 1484.8 449.885 1485.65 452.64 1486.5 456.99 1487.35 447.13 1488.2 451.045 1489.05 452.205 1489.9 452.64 1490.75 458.44 1491.6 454.38 1492.45 452.93 1493.3 452.205 1494.15 448.145 1495 433.5 1495.85 454.96 1496.7 452.35 1497.55 455.975 1498.4 457.715 1499.25 455.685 1500.1 451.48 1500.95 453.075 1501.8 452.205 1502.65 450.9 1503.5 450.175 1504.35 449.74 1505.2 450.03 1506.05 450.9 1506.9 453.075 1507.75 454.67 1508.6 454.96 1509.45 456.99 1510.3 453.8 1511.15 450.465 1512 455.105 1512.85 454.235 1513.7 452.35 1514.55 454.67 1515.4 453.945 1516.25 453.945 1517.1 454.38 1517.95 453.655 1518.8 452.495 1519.65 453.22 1520.5 452.64 1521.35 452.93 1522.2 450.755 1523.05 450.32 1523.9 451.77 1524.75 448.725 1525.6 454.235 1526.45 452.06 1527.3 454.09 1528.15 453.945 1529 455.25 1529.85 454.815 1530.7 451.77 1531.55 453.51 1532.4 452.06 1533.25 450.9 1534.1 451.625 1534.95 455.83 1535.8 455.54 1536.65 456.7 1537.5 450.175 1538.35 451.19 1539.2 452.785 1540.05 446.405 1540.9 453.22 1541.75 454.815 1542.6 455.685 1543.45 453.365 1544.3 453.655 1545.15 452.64 1546 451.625 1546.85 452.495 1547.7 452.93 1548.55 451.77 1549.4 449.45 1550.25 451.625 1551.1 450.755 1551.95 450.465 1552.8 451.77 1553.65 448.87 1554.5 452.93 1555.35 452.93 1556.2 455.685 1557.05 451.48 1557.9 458.295 1558.75 459.455 1559.6 434.08 1560.45 458.73 1561.3 436.4 1562.15 457.28 1563 444.375 1563.85 449.595 1564.7 421.755 1565.55 450.9 1566.4 425.09 1567.25 454.96 1568.1 441.185 1568.95 419.145 1569.8 432.485 1570.65 416.68 1571.5 449.885 1572.35 436.545 1573.2 444.81 1574.05 455.54 1574.9 451.625 1575.75 453.365 1576.6 452.35 1577.45 425.38 1578.3 423.06 1579.15 450.03 1580 446.405 1580.85 454.67 1581.7 454.235 1582.55 452.64 1583.4 454.525 1584.25 423.64 1585.1 409.865 1585.95 448.29 1586.8 406.82 1587.65 456.555 1588.5 445.97 1589.35 456.7 1590.2 447.71 1591.05 456.12 1591.9 451.625 1592.75 458.585 1593.6 452.35 1594.45 450.9 1595.3 456.41 1596.15 441.765 1597 453.8 1597.85 454.38 1598.7 420.305 1599.55 460.615 1600.4 429.005 1601.25 457.135 1602.1 414.505 1602.95 451.48 1603.8 419.29 1604.65 456.7 1605.5 445.1 1606.35 450.465 1607.2 454.525 1608.05 455.105 1608.9 452.64 1609.75 460.615 1610.6 457.86 1611.45 457.135 1612.3 456.845 1613.15 426.83 1614 449.16 1614.85 454.815 1615.7 424.22 1616.55 453.51 1617.4 452.495 1618.25 456.41 1619.1 424.8 1619.95 452.06 1620.8 416.535 1621.65 452.35 1622.5 449.015 1623.35 449.16 1624.2 444.81 1625.05 459.31 1625.9 451.335 1626.75 458.585 1627.6 427.41 1628.45 461.485 1629.3 444.085 1630.15 458.585 1631 421.175 1631.85 453.075 1632.7 450.175 1633.55 455.25 1634.4 447.42 1635.25 456.845 1636.1 453.51 1636.95 456.99 1637.8 452.93 1638.65 454.525 1639.5 458.15 1640.35 456.555 1641.2 457.86 1642.05 457.135 1642.9 454.96 1643.75 455.105 1644.6 452.64 1645.45 451.19 1646.3 457.57 1647.15 455.54 1648 451.77 1648.85 423.64 1649.7 456.99 1650.55 452.64 1651.4 454.38 1652.25 457.135 1653.1 455.54 1653.95 417.26 1654.8 455.685 1655.65 450.32 1656.5 453.8 1657.35 454.67 1658.2 453.22 1659.05 456.12 1659.9 445.97 1660.75 456.99 1661.6 459.6 1662.45 458.585 1663.3 449.16 1664.15 453.365 1665 448 1665.85 455.685 1666.7 452.495 1667.55 457.425 1668.4 455.105 1669.25 452.64 1670.1 454.09 1670.95 422.915 1671.8 445.245 1672.65 427.12 1673.5 450.61 1674.35 454.525 1675.2 448.87 1676.05 453.8 1676.9 452.06 1677.75 458.15 1678.6 455.975 1679.45 451.48 1680.3 456.12 1681.15 455.975 1682 422.045 1682.85 455.54 1683.7 454.815 1684.55 452.495 1685.4 455.25 1686.25 455.975 1687.1 452.785 1687.95 452.64 1688.8 448 1689.65 454.525 1690.5 449.74 1691.35 408.995 1692.2 451.915 1693.05 457.57 1693.9 453.945 1694.75 446.55 1695.6 422.625 1696.45 456.845 1697.3 421.32 1698.15 417.55 1699 444.085 1699.85 456.99 1700.7 445.825 1701.55 458.005 1702.4 444.665 1703.25 457.57 1704.1 456.12 1704.95 419 1705.8 450.61 1706.65 456.99 1707.5 460.905 1708.35 453.075 1709.2 412.475 1710.05 452.495 1710.9 455.54 1711.75 452.93 1712.6 453.51 1713.45 457.135 1714.3 443.07 1715.15 458.875 1716 448.29 1716.85 454.235 1717.7 456.7 1718.55 459.165 1719.4 452.785 1720.25 459.6 1721.1 445.39 1721.95 457.135 1722.8 451.48 1723.65 457.28 1724.5 413.2 1725.35 458.73 1726.2 442.635 1727.05 450.9 1727.9 449.74 1728.75 457.28 1729.6 452.06 1730.45 452.06 1731.3 452.35 1732.15 456.41 1733 450.61 1733.85 456.99 1734.7 449.74 1735.55 455.105 1736.4 413.49 1737.25 415.52 1738.1 454.96 1738.95 455.105 1739.8 458.73 1740.65 450.465 1741.5 457.86 1742.35 454.96 1743.2 455.395 1744.05 452.64 1744.9 448.435 1745.75 449.74 1746.6 452.785 1747.45 458.295 1748.3 454.09" style="fill:none;stroke-width:1.5;clip-path:url(#graphArea)"/><polyline id="Stat_1_Animation/Total/ExtractPoseFromAnimData_decomp_matinee_p3" stroke="#F60" points="50 477 50.85 477 51.7 373.47 52.55 371.73 53.4 356.795 54.25 389.855 55.1 321.995 55.95 385.36 56.8 381.155 57.65 382.46 58.5 353.315 59.35 382.895 60.2 384.2 61.05 388.26 61.9 385.07 62.75 387.97 63.6 379.85 64.45 390.29 65.3 391.16 66.15 399.715 67 379.125 67.85 323.155 68.7 346.21 69.55 393.625 70.4 381.59 71.25 369.7 72.1 324.895 72.95 390.29 73.8 380.865 74.65 393.19 75.5 385.07 76.35 396.38 77.2 374.775 78.05 393.625 78.9 339.25 79.75 397.83 80.6 380.72 81.45 386.665 82.3 342.73 83.15 374.05 84 391.16 84.85 380.865 85.7 381.735 86.55 388.695 87.4 345.775 88.25 375.21 89.1 383.765 89.95 299.81 90.8 305.755 91.65 387.97 92.5 380.575 93.35 386.81 94.2 382.315 95.05 391.16 95.9 344.18 96.75 387.245 97.6 382.025 98.45 385.795 99.3 383.185 100.15 379.85 101 374.775 101.85 384.78 102.7 380.285 103.55 391.45 104.4 368.83 105.25 353.75 106.1 362.45 106.95 360.855 107.8 379.56 108.65 387.68 109.5 392.03 110.35 394.06 111.2 391.885 112.05 391.595 112.9 388.985 113.75 385.36 114.6 392.32 115.45 393.625 116.3 390.435 117.15 386.955 118 352.88 118.85 385.94 119.7 385.65 120.55 377.965 121.4 392.465 122.25 387.68 123.1 379.705 123.95 386.085 124.8 387.97 125.65 358.535 126.5 359.695 127.35 371.585 128.2 316.34 129.05 380.285 129.9 383.33 130.75 361 131.6 391.74 132.45 333.885 133.3 377.53 134.15 368.975 135 312.715 135.85 368.83 136.7 300.535 137.55 320.69 138.4 261.965 139.25 351.14 140.1 367.96 140.95 375.065 141.8 340.99 142.65 377.53 143.5 382.895 144.35 373.905 145.2 375.935 146.05 389.13 146.9 374.195 147.75 373.035 148.6 373.76 149.45 376.37 150.3 380.14 151.15 333.74 152 336.205 152.85 378.69 153.7 356.505 154.55 318.225 155.4 324.75 156.25 361.725 157.1 379.56 157.95 349.98 158.8 352.735 159.65 331.13 160.5 356.215 161.35 359.55 162.2 335.48 163.05 317.645 163.9 367.96 164.75 312.715 165.6 330.26 166.45 359.84 167.3 326.78 168.15 357.375 169 353.75 169.85 338.38 170.7 349.835 171.55 357.81 172.4 348.53 173.25 349.255 174.1 316.63 174.95 317.79 175.8 354.33 176.65 344.76 177.5 362.74 178.35 347.08 179.2 317.645 180.05 370.28 180.9 355.055 181.75 353.75 182.6 364.625 183.45 352.01 184.3 351.72 185.15 338.235 186 366.8 186.85 319.385 187.7 321.56 188.55 358.825 189.4 369.99 190.25 364.48 191.1 372.745 191.95 357.085 192.8 274.58 193.65 363.175 194.5 270.52 195.35 360.855 196.2 369.12 197.05 374.195 197.9 363.175 198.75 368.25 199.6 334.755 200.45 362.16 201.3 335.625 202.15 265.735 203 290.53 203.85 346.645 204.7 294.445 205.55 273.565 206.4 324.895 207.25 288.21 208.1 308.945 208.95 362.45 209.8 275.595 210.65 286.615 211.5 345.775 212.35 349.98 213.2 275.74 214.05 348.53 214.9 290.385 215.75 361.435 216.6 321.415 217.45 347.66 218.3 343.31 219.15 368.395 220 323.59 220.85 333.015 221.7 359.405 222.55 345.05 223.4 350.125 224.25 309.525 225.1 229.775 225.95 360.275 226.8 328.23 227.65 331.855 228.5 316.63 229.35 326.345 230.2 346.065 231.05 354.62 231.9 288.5 232.75 334.32 233.6 349.545 234.45 315.615 235.3 363.9 236.15 338.09 237 323.59 237.85 357.23 238.7 352.735 239.55 348.24 240.4 267.475 241.25 375.21 242.1 362.595 242.95 292.125 243.8 373.905 244.65 372.31 245.5 374.34 246.35 363.755 247.2 362.885 248.05 356.215 248.9 312.57 249.75 336.93 250.6 311.12 251.45 342.295 252.3 341.86 253.15 319.965 254 343.6 254.85 349.835 255.7 327.94 256.55 352.88 257.4 365.93 258.25 351.865 259.1 356.505 259.95 351.43 260.8 349.69 261.65 360.71 262.5 357.955 263.35 344.035 264.2 362.74 265.05 353.46 265.9 339.395 266.75 347.37 267.6 346.935 268.45 233.11 269.3 347.37 270.15 284.295 271 235.72 271.85 351.43 272.7 327.215 273.55 320.11 274.4 301.985 275.25 335.045 276.1 341.425 276.95 175.69 277.8 173.66 278.65 321.85 279.5 352.3 280.35 333.74 281.2 353.17 282.05 333.015 282.9 318.08 283.75 356.795 284.6 348.24 285.45 347.225 286.3 319.675 287.15 326.2 288 343.745 288.85 342.44 289.7 346.21 290.55 326.345 291.4 336.64 292.25 319.53 293.1 326.345 293.95 335.335 294.8 341.135 295.65 332.87 296.5 330.985 297.35 349.545 298.2 342.44 299.05 341.28 299.9 341.86 300.75 334.03 301.6 336.06 302.45 340.41 303.3 344.035 304.15 342.875 305 333.16 305.85 355.055 306.7 341.86 307.55 328.665 308.4 310.395 309.25 347.805 310.1 319.82 310.95 325.475 311.8 336.64 312.65 318.66 313.5 347.08 314.35 345.92 315.2 346.355 316.05 302.565 316.9 340.7 317.75 333.16 318.6 322.72 319.45 334.03 320.3 324.315 321.15 343.455 322 335.48 322.85 328.085 323.7 326.49 324.55 321.705 325.4 328.81 326.25 342.73 327.1 319.965 327.95 311.265 328.8 346.935 329.65 336.205 330.5 316.485 331.35 352.59 332.2 346.5 333.05 349.98 333.9 323.3 334.75 326.2 335.6 343.02 336.45 327.795 337.3 311.12 338.15 351.72 339 300.1 339.85 344.035 340.7 347.805 341.55 326.49 342.4 352.155 343.25 343.165 344.1 338.815 344.95 327.795 345.8 346.355 346.65 315.615 347.5 353.17 348.35 323.155 349.2 313.44 350.05 345.485 350.9 334.9 351.75 322.285 352.6 345.195 353.45 340.41 354.3 336.205 355.15 345.195 356 319.965 356.85 329.825 357.7 349.4 358.55 316.34 359.4 327.795 360.25 347.805 361.1 319.24 361.95 332.725 362.8 -1476.15 363.65 183.955 364.5 324.46 365.35 326.055 366.2 338.235 367.05 326.345 367.9 333.015 368.75 333.595 369.6 335.77 370.45 359.55 371.3 351.865 372.15 330.695 373 296.91 373.85 326.925 374.7 355.055 375.55 353.75 376.4 357.375 377.25 354.62 378.1 317.645 378.95 338.38 379.8 356.215 380.65 324.17 381.5 317.065 382.35 313.15 383.2 360.275 384.05 353.17 384.9 358.245 385.75 365.06 386.6 303.435 387.45 371.875 388.3 340.265 389.15 338.815 390 333.305 390.85 358.825 391.7 361.725 392.55 348.095 393.4 220.785 394.25 314.165 395.1 265.01 395.95 367.09 396.8 359.695 397.65 358.68 398.5 345.775 399.35 356.07 400.2 357.52 401.05 348.24 401.9 288.065 402.75 272.695 403.6 273.275 404.45 343.02 405.3 357.665 406.15 367.38 407 350.995 407.85 311.12 408.7 360.855 409.55 300.39 410.4 358.825 411.25 348.385 412.1 363.32 412.95 324.75 413.8 342.44 414.65 359.405 415.5 277.915 416.35 319.24 417.2 359.985 418.05 336.205 418.9 357.52 419.75 339.685 420.6 252.54 421.45 346.645 422.3 367.525 423.15 277.045 424 300.1 424.85 362.16 425.7 369.41 426.55 282.12 427.4 283.135 428.25 348.675 429.1 337.51 429.95 356.65 430.8 292.995 431.65 311.845 432.5 213.825 433.35 304.16 434.2 323.155 435.05 350.85 435.9 361.29 436.75 255.15 437.6 343.745 438.45 309.67 439.3 353.75 440.15 311.99 441 335.915 441.85 302.13 442.7 311.555 443.55 215.565 444.4 297.925 445.25 351.285 446.1 296.185 446.95 273.71 447.8 282.555 448.65 347.805 449.5 354.475 450.35 349.69 451.2 341.135 452.05 347.515 452.9 342.875 453.75 347.95 454.6 281.975 455.45 280.525 456.3 302.565 457.15 317.79 458 366.365 458.85 277.335 459.7 151.62 460.55 365.205 461.4 364.77 462.25 349.11 463.1 339.105 463.95 356.07 464.8 253.99 465.65 277.045 466.5 354.04 467.35 244.565 468.2 248.77 469.05 359.84 469.9 343.31 470.75 356.795 471.6 264.43 472.45 249.35 473.3 275.885 474.15 308.945 475 333.015 475.85 359.695 476.7 314.89 477.55 345.195 478.4 275.885 479.25 260.805 480.1 358.97 480.95 354.33 481.8 276.465 482.65 339.975 483.5 339.25 484.35 353.46 485.2 315.035 486.05 354.765 486.9 322.285 487.75 338.815 488.6 334.9 489.45 352.735 490.3 349.98 491.15 360.42 492 324.17 492.85 326.925 493.7 311.555 494.55 354.33 495.4 317.21 496.25 332.435 497.1 313.875 497.95 283.86 498.8 349.255 499.65 356.94 500.5 319.965 501.35 309.815 502.2 333.885 503.05 304.595 503.9 350.705 504.75 293.14 505.6 353.75 506.45 297.635 507.3 252.395 508.15 261.53 509 234.85 509.85 361 510.7 336.93 511.55 338.235 512.4 320.11 513.25 241.375 514.1 315.325 514.95 324.315 515.8 361.725 516.65 265.445 517.5 279.8 518.35 331.275 519.2 307.35 520.05 344.18 520.9 233.69 521.75 261.24 522.6 331.565 523.45 264.14 524.3 366.22 525.15 270.085 526 327.505 526.85 308.8 527.7 368.54 528.55 257.76 529.4 256.165 530.25 284.73 531.1 363.61 531.95 346.935 532.8 246.885 533.65 342.875 534.5 255.73 535.35 359.405 536.2 370.28 537.05 287.485 537.9 257.47 538.75 328.665 539.6 336.785 540.45 363.61 541.3 344.615 542.15 277.915 543 340.845 543.85 315.18 544.7 323.155 545.55 332 546.4 355.635 547.25 349.4 548.1 367.815 548.95 332.87 549.8 321.27 550.65 331.275 551.5 316.92 552.35 260.805 553.2 338.38 554.05 323.155 554.9 328.23 555.75 342.73 556.6 369.12 557.45 362.305 558.3 345.63 559.15 242.245 560 315.18 560.85 309.96 561.7 349.835 562.55 269.36 563.4 325.04 564.25 300.825 565.1 356.94 565.95 352.445 566.8 314.455 567.65 347.66 568.5 348.965 569.35 317.645 570.2 362.305 571.05 356.94 571.9 350.995 572.75 358.245 573.6 329.97 574.45 313.875 575.3 327.94 576.15 216.58 577 298.65 577.85 346.21 578.7 327.505 579.55 268.055 580.4 330.985 581.25 268.2 582.1 200.05 582.95 295.17 583.8 266.17 584.65 313.44 585.5 253.265 586.35 236.3 587.2 245.58 588.05 335.48 588.9 325.475 589.75 337.22 590.6 327.795 591.45 323.88 592.3 336.06 593.15 326.925 594 320.255 594.85 235.285 595.7 229.92 596.55 296.33 597.4 265.445 598.25 308.075 599.1 333.015 599.95 331.275 600.8 328.665 601.65 326.78 602.5 279.945 603.35 339.685 604.2 335.19 605.05 327.795 605.9 328.665 606.75 322.285 607.6 319.385 608.45 317.5 609.3 317.645 610.15 320.545 611 327.65 611.85 300.1 612.7 322.14 613.55 326.055 614.4 315.615 615.25 349.545 616.1 334.175 616.95 313.875 617.8 320.4 618.65 315.905 619.5 336.06 620.35 346.935 621.2 328.375 622.05 308.22 622.9 315.47 623.75 318.95 624.6 321.85 625.45 261.82 626.3 303 627.15 353.17 628 330.55 628.85 326.345 629.7 333.885 630.55 330.695 631.4 333.74 632.25 340.265 633.1 336.06 633.95 338.09 634.8 322.72 635.65 342.15 636.5 341.57 637.35 348.53 638.2 347.225 639.05 313.44 639.9 323.01 640.75 356.94 641.6 343.745 642.45 341.715 643.3 295.895 644.15 339.83 645 343.6 645.85 280.525 646.7 335.77 647.55 340.265 648.4 328.955 649.25 342.15 650.1 342.005 650.95 339.25 651.8 328.52 652.65 333.16 653.5 343.31 654.35 347.515 655.2 338.235 656.05 335.48 656.9 325.33 657.75 326.49 658.6 342.875 659.45 300.825 660.3 331.42 661.15 325.185 662 359.405 662.85 338.38 663.7 348.385 664.55 316.92 665.4 338.96 666.25 296.04 667.1 311.7 667.95 329.825 668.8 355.2 669.65 297.345 670.5 331.13 671.35 289.515 672.2 307.35 673.05 334.32 673.9 309.67 674.75 336.785 675.6 332.29 676.45 335.045 677.3 333.74 678.15 335.335 679 327.505 679.85 361.435 680.7 238.91 681.55 352.3 682.4 352.445 683.25 354.91 684.1 351.285 684.95 352.155 685.8 350.415 686.65 344.615 687.5 359.405 688.35 364.77 689.2 348.82 690.05 359.695 690.9 361.435 691.75 345.63 692.6 334.32 693.45 296.33 694.3 348.24 695.15 313.73 696 250.945 696.85 352.3 697.7 348.385 698.55 344.76 699.4 284.585 700.25 365.06 701.1 338.09 701.95 354.62 702.8 340.41 703.65 342.73 704.5 326.055 705.35 332.29 706.2 370.135 707.05 348.385 707.9 370.135 708.75 359.405 709.6 359.985 710.45 368.83 711.3 326.78 712.15 337.945 713 371.15 713.85 365.785 714.7 291.98 715.55 249.785 716.4 356.505 717.25 352.3 718.1 335.335 718.95 348.675 719.8 251.815 720.65 322.865 721.5 344.325 722.35 316.775 723.2 335.045 724.05 349.69 724.9 350.125 725.75 347.95 726.6 355.49 727.45 354.91 728.3 356.07 729.15 355.49 730 351.72 730.85 350.56 731.7 351.72 732.55 332.435 733.4 341.715 734.25 339.25 735.1 346.065 735.95 333.305 736.8 354.765 737.65 339.105 738.5 350.56 739.35 325.62 740.2 336.495 741.05 316.92 741.9 270.085 742.75 293.14 743.6 301.695 744.45 345.92 745.3 348.385 746.15 350.27 747 347.66 747.85 334.32 748.7 317.935 749.55 335.19 750.4 339.395 751.25 360.42 752.1 336.06 752.95 360.13 753.8 324.025 754.65 315.325 755.5 348.24 756.35 334.755 757.2 344.76 758.05 349.11 758.9 268.055 759.75 347.515 760.6 344.905 761.45 304.885 762.3 348.385 763.15 332.87 764 336.205 764.85 329.68 765.7 346.79 766.55 344.615 767.4 344.905 768.25 340.845 769.1 361.58 769.95 347.66 770.8 352.01 771.65 346.5 772.5 336.35 773.35 350.56 774.2 342.585 775.05 340.7 775.9 332.58 776.75 252.395 777.6 258.05 778.45 272.115 779.3 356.94 780.15 348.53 781 353.17 781.85 345.05 782.7 342.44 783.55 335.335 784.4 348.24 785.25 346.935 786.1 327.505 786.95 338.96 787.8 333.015 788.65 298.505 789.5 319.965 790.35 330.55 791.2 197.15 792.05 337.945 792.9 336.93 793.75 316.63 794.6 308.8 795.45 309.525 796.3 330.84 797.15 279.945 798 340.41 798.85 337.365 799.7 343.02 800.55 351.72 801.4 343.745 802.25 336.64 803.1 321.85 803.95 305.755 804.8 334.465 805.65 336.93 806.5 338.67 807.35 319.24 808.2 325.62 809.05 325.33 809.9 335.335 810.75 335.48 811.6 321.56 812.45 329.68 813.3 336.785 814.15 335.335 815 341.57 815.85 343.745 816.7 336.64 817.55 335.625 818.4 298.215 819.25 339.105 820.1 335.19 820.95 335.045 821.8 323.01 822.65 344.905 823.5 342.44 824.35 353.025 825.2 347.37 826.05 355.635 826.9 341.715 827.75 342.44 828.6 333.16 829.45 334.755 830.3 335.625 831.15 335.48 832 341.86 832.85 338.09 833.7 337.51 834.55 319.82 835.4 324.895 836.25 332.725 837.1 337.22 837.95 344.905 838.8 348.965 839.65 336.93 840.5 331.13 841.35 335.625 842.2 335.19 843.05 339.395 843.9 316.775 844.75 330.55 845.6 333.16 846.45 340.555 847.3 340.7 848.15 335.045 849 347.08 849.85 342.585 850.7 296.62 851.55 321.56 852.4 339.395 853.25 330.405 854.1 356.215 854.95 250.51 855.8 319.675 856.65 240.215 857.5 344.47 858.35 275.45 859.2 320.69 860.05 261.82 860.9 358.97 861.75 349.98 862.6 366.8 863.45 351.575 864.3 340.555 865.15 316.34 866 302.855 866.85 344.905 867.7 356.505 868.55 353.895 869.4 355.635 870.25 336.495 871.1 321.415 871.95 348.675 872.8 341.715 873.65 343.165 874.5 356.94 875.35 359.985 876.2 342.585 877.05 342.73 877.9 339.975 878.75 309.38 879.6 259.645 880.45 328.955 881.3 341.135 882.15 303.725 883 322.14 883.85 344.76 884.7 245.725 885.55 243.695 886.4 353.17 887.25 325.62 888.1 253.265 888.95 346.79 889.8 370.57 890.65 337.655 891.5 350.125 892.35 234.56 893.2 344.035 894.05 345.485 894.9 368.975 895.75 352.445 896.6 353.895 897.45 320.255 898.3 308.655 899.15 298.07 900 357.23 900.85 327.94 901.7 292.85 902.55 341.715 903.4 316.63 904.25 332.435 905.1 328.955 905.95 319.675 906.8 349.11 907.65 316.63 908.5 331.855 909.35 291.69 910.2 343.165 911.05 302.13 911.9 280.235 912.75 364.77 913.6 357.665 914.45 351.43 915.3 349.11 916.15 330.985 917 332.145 917.85 319.24 918.7 363.32 919.55 316.34 920.4 333.74 921.25 310.395 922.1 355.635 922.95 311.7 923.8 335.77 924.65 318.08 925.5 336.06 926.35 318.805 927.2 337.655 928.05 312.425 928.9 338.235 929.75 294.445 930.6 353.895 931.45 348.53 932.3 353.025 933.15 308.655 934 334.465 934.85 351.285 935.7 334.03 936.55 311.265 937.4 359.405 938.25 300.97 939.1 353.46 939.95 311.12 940.8 337.945 941.65 297.635 942.5 324.17 943.35 343.31 944.2 310.54 945.05 311.7 945.9 231.95 946.75 342.15 947.6 336.205 948.45 281.395 949.3 283.86 950.15 286.905 951 184.245 951.85 331.855 952.7 343.745 953.55 352.59 954.4 321.56 955.25 320.545 956.1 247.32 956.95 347.805 957.8 348.385 958.65 340.12 959.5 339.105 960.35 324.46 961.2 315.905 962.05 334.465 962.9 328.81 963.75 316.34 964.6 353.025 965.45 330.55 966.3 352.445 967.15 308.365 968 343.89 968.85 340.12 969.7 332.435 970.55 315.035 971.4 337.8 972.25 327.795 973.1 330.985 973.95 326.78 974.8 336.64 975.65 321.705 976.5 337.51 977.35 334.465 978.2 346.21 979.05 339.83 979.9 319.24 980.75 349.545 981.6 312.715 982.45 327.505 983.3 347.66 984.15 332.725 985 347.95 985.85 343.89 986.7 353.025 987.55 295.605 988.4 353.46 989.25 303.725 990.1 322.14 990.95 310.105 991.8 352.88 992.65 352.88 993.5 298.94 994.35 332.435 995.2 317.79 996.05 334.9 996.9 340.12 997.75 344.035 998.6 345.34 999.45 324.46 1000.3 345.34 1001.15 337.365 1002 326.78 1002.85 252.105 1003.7 315.615 1004.55 263.415 1005.4 290.965 1006.25 312.57 1007.1 293.72 1007.95 312.425 1008.8 268.78 1009.65 291.545 1010.5 349.545 1011.35 346.79 1012.2 349.255 1013.05 347.95 1013.9 344.035 1014.75 340.7 1015.6 338.96 1016.45 346.21 1017.3 345.05 1018.15 338.815 1019 336.495 1019.85 342.44 1020.7 347.515 1021.55 337.51 1022.4 333.16 1023.25 342.005 1024.1 342.15 1024.95 326.635 1025.8 344.615 1026.65 353.75 1027.5 356.36 1028.35 343.745 1029.2 331.42 1030.05 338.96 1030.9 346.21 1031.75 300.97 1032.6 261.675 1033.45 345.195 1034.3 354.04 1035.15 334.03 1036 337.945 1036.85 313.295 1037.7 324.315 1038.55 305.175 1039.4 353.46 1040.25 343.6 1041.1 239.49 1041.95 310.54 1042.8 316.05 1043.65 332.87 1044.5 350.125 1045.35 347.95 1046.2 350.27 1047.05 359.115 1047.9 297.345 1048.75 339.395 1049.6 339.395 1050.45 259.21 1051.3 320.4 1052.15 313.73 1053 298.94 1053.85 324.315 1054.7 340.845 1055.55 324.75 1056.4 360.275 1057.25 343.6 1058.1 354.62 1058.95 343.31 1059.8 343.455 1060.65 346.21 1061.5 336.06 1062.35 346.5 1063.2 345.485 1064.05 337.075 1064.9 342.15 1065.75 341.135 1066.6 355.635 1067.45 351.285 1068.3 357.81 1069.15 334.465 1070 345.195 1070.85 359.985 1071.7 346.645 1072.55 339.975 1073.4 303.145 1074.25 342.44 1075.1 325.91 1075.95 353.46 1076.8 326.925 1077.65 350.56 1078.5 330.695 1079.35 308.365 1080.2 348.675 1081.05 344.035 1081.9 350.705 1082.75 298.505 1083.6 320.98 1084.45 278.785 1085.3 329.1 1086.15 341.57 1087 344.18 1087.85 311.265 1088.7 341.715 1089.55 322.575 1090.4 336.06 1091.25 332.29 1092.1 335.045 1092.95 344.47 1093.8 320.545 1094.65 322.43 1095.5 342.73 1096.35 331.565 1097.2 344.035 1098.05 345.485 1098.9 343.745 1099.75 338.235 1100.6 343.6 1101.45 348.24 1102.3 344.325 1103.15 344.035 1104 345.485 1104.85 345.485 1105.7 345.92 1106.55 308.945 1107.4 345.195 1108.25 329.535 1109.1 329.825 1109.95 297.055 1110.8 347.805 1111.65 351.72 1112.5 343.02 1113.35 344.325 1114.2 345.195 1115.05 337.945 1115.9 347.08 1116.75 358.825 1117.6 248.335 1118.45 304.16 1119.3 298.795 1120.15 317.355 1121 348.095 1121.85 286.905 1122.7 248.77 1123.55 364.625 1124.4 363.03 1125.25 303.725 1126.1 262.11 1126.95 281.395 1127.8 313.73 1128.65 256.89 1129.5 353.025 1130.35 332.145 1131.2 351.865 1132.05 272.115 1132.9 332.145 1133.75 238.04 1134.6 332 1135.45 345.34 1136.3 358.68 1137.15 334.755 1138 361.29 1138.85 348.675 1139.7 362.305 1140.55 349.69 1141.4 258.775 1142.25 275.595 1143.1 251.38 1143.95 336.785 1144.8 307.205 1145.65 284.73 1146.5 357.81 1147.35 345.485 1148.2 339.105 1149.05 322.72 1149.9 342.73 1150.75 321.125 1151.6 369.41 1152.45 348.675 1153.3 344.905 1154.15 352.445 1155 330.115 1155.85 314.455 1156.7 348.095 1157.55 349.69 1158.4 350.415 1159.25 374.485 1160.1 340.99 1160.95 337.365 1161.8 338.96 1162.65 355.78 1163.5 345.775 1164.35 335.625 1165.2 353.605 1166.05 323.3 1166.9 332.29 1167.75 328.81 1168.6 303.58 1169.45 330.84 1170.3 344.47 1171.15 358.1 1172 348.675 1172.85 307.205 1173.7 333.74 1174.55 273.71 1175.4 294.88 1176.25 333.885 1177.1 337.51 1177.95 225.425 1178.8 331.565 1179.65 326.925 1180.5 317.21 1181.35 338.815 1182.2 310.975 1183.05 294.59 1183.9 349.545 1184.75 358.97 1185.6 349.255 1186.45 317.5 1187.3 352.445 1188.15 349.11 1189 344.035 1189.85 345.775 1190.7 350.85 1191.55 350.995 1192.4 346.5 1193.25 335.335 1194.1 346.645 1194.95 354.62 1195.8 330.985 1196.65 337.51 1197.5 348.095 1198.35 331.275 1199.2 338.09 1200.05 341.135 1200.9 323.735 1201.75 348.24 1202.6 333.595 1203.45 354.04 1204.3 345.775 1205.15 342.15 1206 338.09 1206.85 340.99 1207.7 347.225 1208.55 345.775 1209.4 348.82 1210.25 343.455 1211.1 324.895 1211.95 349.4 1212.8 356.36 1213.65 336.495 1214.5 343.745 1215.35 365.35 1216.2 349.545 1217.05 328.81 1217.9 353.025 1218.75 326.055 1219.6 328.085 1220.45 340.555 1221.3 350.125 1222.15 363.465 1223 350.995 1223.85 344.035 1224.7 351.865 1225.55 332.145 1226.4 345.775 1227.25 325.185 1228.1 330.985 1228.95 329.245 1229.8 326.2 1230.65 334.32 1231.5 346.065 1232.35 349.255 1233.2 343.745 1234.05 277.19 1234.9 348.385 1235.75 340.99 1236.6 278.495 1237.45 357.52 1238.3 349.255 1239.15 288.5 1240 358.1 1240.85 335.915 1241.7 355.925 1242.55 344.76 1243.4 346.21 1244.25 344.325 1245.1 267.185 1245.95 316.92 1246.8 362.015 1247.65 358.39 1248.5 348.095 1249.35 370.135 1250.2 366.365 1251.05 362.885 1251.9 372.165 1252.75 363.61 1253.6 328.375 1254.45 352.735 1255.3 358.97 1256.15 351.14 1257 338.815 1257.85 349.255 1258.7 352.155 1259.55 165.685 1260.4 284.875 1261.25 346.935 1262.1 348.53 1262.95 352.59 1263.8 352.88 1264.65 355.49 1265.5 352.59 1266.35 352.155 1267.2 348.965 1268.05 352.01 1268.9 314.745 1269.75 353.75 1270.6 355.925 1271.45 329.535 1272.3 368.105 1273.15 366.22 1274 356.36 1274.85 339.54 1275.7 325.04 1276.55 341.715 1277.4 354.62 1278.25 349.11 1279.1 360.13 1279.95 354.185 1280.8 342.875 1281.65 355.78 1282.5 367.09 1283.35 351.43 1284.2 335.48 1285.05 372.165 1285.9 360.42 1286.75 353.75 1287.6 350.56 1288.45 370.425 1289.3 333.305 1290.15 313.005 1291 366.945 1291.85 359.115 1292.7 324.17 1293.55 351.43 1294.4 356.215 1295.25 345.195 1296.1 336.64 1296.95 365.64 1297.8 333.305 1298.65 348.095 1299.5 308.945 1300.35 348.965 1301.2 324.895 1302.05 287.485 1302.9 352.735 1303.75 334.465 1304.6 235.575 1305.45 326.2 1306.3 340.99 1307.15 324.75 1308 362.885 1308.85 338.96 1309.7 360.565 1310.55 334.465 1311.4 352.59 1312.25 364.335 1313.1 336.93 1313.95 363.755 1314.8 362.015 1315.65 357.665 1316.5 349.4 1317.35 348.53 1318.2 351.575 1319.05 343.02 1319.9 343.31 1320.75 338.235 1321.6 349.255 1322.45 310.105 1323.3 352.88 1324.15 347.08 1325 360.855 1325.85 356.505 1326.7 351.14 1327.55 330.26 1328.4 333.45 1329.25 328.085 1330.1 311.12 1330.95 340.12 1331.8 331.275 1332.65 339.54 1333.5 325.765 1334.35 355.78 1335.2 355.49 1336.05 353.605 1336.9 348.385 1337.75 350.415 1338.6 349.69 1339.45 325.475 1340.3 350.125 1341.15 353.46 1342 349.835 1342.85 346.79 1343.7 353.605 1344.55 342.73 1345.4 353.315 1346.25 349.98 1347.1 352.445 1347.95 350.705 1348.8 351.72 1349.65 355.78 1350.5 319.675 1351.35 353.605 1352.2 351.43 1353.05 349.255 1353.9 348.095 1354.75 351.575 1355.6 347.37 1356.45 354.475 1357.3 353.46 1358.15 318.225 1359 354.475 1359.85 353.315 1360.7 356.505 1361.55 358.245 1362.4 354.91 1363.25 358.535 1364.1 350.85 1364.95 358.825 1365.8 344.325 1366.65 354.91 1367.5 347.515 1368.35 348.675 1369.2 346.065 1370.05 345.34 1370.9 358.245 1371.75 352.155 1372.6 356.215 1373.45 346.935 1374.3 357.375 1375.15 364.19 1376 353.315 1376.85 350.125 1377.7 357.665 1378.55 365.06 1379.4 358.39 1380.25 354.33 1381.1 360.13 1381.95 357.955 1382.8 357.52 1383.65 363.755 1384.5 360.71 1385.35 365.93 1386.2 321.415 1387.05 358.68 1387.9 354.91 1388.75 363.61 1389.6 359.405 1390.45 358.1 1391.3 356.215 1392.15 358.245 1393 339.83 1393.85 351.72 1394.7 354.62 1395.55 356.65 1396.4 358.97 1397.25 352.01 1398.1 350.125 1398.95 358.68 1399.8 352.155 1400.65 357.085 1401.5 344.47 1402.35 342.73 1403.2 346.355 1404.05 354.33 1404.9 359.695 1405.75 355.635 1406.6 352.01 1407.45 358.535 1408.3 356.215 1409.15 366.365 1410 360.42 1410.85 338.96 1411.7 357.52 1412.55 348.095 1413.4 366.365 1414.25 357.52 1415.1 356.36 1415.95 356.94 1416.8 340.265 1417.65 355.925 1418.5 347.515 1419.35 358.97 1420.2 353.315 1421.05 356.215 1421.9 361.145 1422.75 365.64 1423.6 340.41 1424.45 354.765 1425.3 363.175 1426.15 362.16 1427 357.23 1427.85 366.51 1428.7 362.885 1429.55 361.29 1430.4 365.35 1431.25 360.565 1432.1 358.39 1432.95 370.57 1433.8 339.83 1434.65 353.025 1435.5 358.245 1436.35 360.13 1437.2 353.895 1438.05 354.04 1438.9 346.355 1439.75 349.98 1440.6 352.88 1441.45 350.995 1442.3 339.25 1443.15 360.13 1444 356.505 1444.85 360.855 1445.7 352.59 1446.55 357.665 1447.4 357.81 1448.25 354.765 1449.1 354.62 1449.95 358.245 1450.8 343.745 1451.65 357.52 1452.5 360.13 1453.35 351.865 1454.2 360.855 1455.05 353.46 1455.9 353.17 1456.75 357.375 1457.6 356.215 1458.45 355.49 1459.3 357.955 1460.15 343.02 1461 354.765 1461.85 356.215 1462.7 333.45 1463.55 356.215 1464.4 359.695 1465.25 325.91 1466.1 363.175 1466.95 349.255 1467.8 345.92 1468.65 351.72 1469.5 350.56 1470.35 355.49 1471.2 362.015 1472.05 363.465 1472.9 349.4 1473.75 356.07 1474.6 357.23 1475.45 361.725 1476.3 356.505 1477.15 326.635 1478 363.61 1478.85 349.545 1479.7 367.67 1480.55 361.435 1481.4 355.49 1482.25 357.955 1483.1 349.835 1483.95 360.13 1484.8 359.985 1485.65 345.63 1486.5 347.37 1487.35 354.475 1488.2 357.375 1489.05 338.09 1489.9 354.765 1490.75 372.31 1491.6 356.94 1492.45 362.015 1493.3 364.48 1494.15 369.7 1495 364.915 1495.85 369.41 1496.7 357.955 1497.55 357.085 1498.4 343.455 1499.25 322.14 1500.1 335.19 1500.95 348.82 1501.8 358.97 1502.65 355.055 1503.5 361.87 1504.35 358.1 1505.2 366.655 1506.05 357.955 1506.9 359.115 1507.75 362.16 1508.6 354.475 1509.45 348.095 1510.3 358.97 1511.15 369.555 1512 360.275 1512.85 368.105 1513.7 358.245 1514.55 369.555 1515.4 351.14 1516.25 367.815 1517.1 364.19 1517.95 365.785 1518.8 349.4 1519.65 363.32 1520.5 363.175 1521.35 342.44 1522.2 363.32 1523.05 327.36 1523.9 360.565 1524.75 344.76 1525.6 365.495 1526.45 367.38 1527.3 359.985 1528.15 352.01 1529 362.305 1529.85 352.3 1530.7 357.665 1531.55 359.84 1532.4 357.665 1533.25 328.52 1534.1 362.16 1534.95 362.74 1535.8 340.12 1536.65 353.46 1537.5 355.925 1538.35 367.815 1539.2 356.505 1540.05 329.245 1540.9 367.815 1541.75 361.435 1542.6 361.29 1543.45 367.09 1544.3 367.96 1545.15 352.88 1546 362.74 1546.85 354.765 1547.7 360.275 1548.55 361.435 1549.4 358.68 1550.25 356.07 1551.1 364.335 1551.95 354.475 1552.8 362.595 1553.65 355.78 1554.5 302.855 1555.35 361 1556.2 343.02 1557.05 362.45 1557.9 325.04 1558.75 372.31 1559.6 283.86 1560.45 370.715 1561.3 353.315 1562.15 364.045 1563 335.915 1563.85 313.295 1564.7 354.62 1565.55 315.18 1566.4 372.31 1567.25 364.915 1568.1 365.35 1568.95 381.59 1569.8 363.32 1570.65 379.705 1571.5 345.485 1572.35 362.885 1573.2 326.2 1574.05 347.515 1574.9 303.725 1575.75 359.405 1576.6 367.67 1577.45 361.87 1578.3 329.245 1579.15 308.51 1580 350.85 1580.85 367.38 1581.7 332.29 1582.55 301.55 1583.4 366.655 1584.25 360.275 1585.1 362.305 1585.95 316.05 1586.8 362.16 1587.65 339.105 1588.5 371.44 1589.35 378.545 1590.2 370.86 1591.05 359.55 1591.9 315.325 1592.75 362.74 1593.6 365.64 1594.45 339.395 1595.3 361.58 1596.15 348.53 1597 377.965 1597.85 364.77 1598.7 369.7 1599.55 366.365 1600.4 366.075 1601.25 365.93 1602.1 377.82 1602.95 369.7 1603.8 312.715 1604.65 380.575 1605.5 340.7 1606.35 391.74 1607.2 392.175 1608.05 393.915 1608.9 400.295 1609.75 411.315 1610.6 394.785 1611.45 399.86 1612.3 360.855 1613.15 397.25 1614 381.445 1614.85 406.675 1615.7 399.57 1616.55 382.605 1617.4 396.38 1618.25 392.465 1619.1 390 1619.95 394.495 1620.8 367.09 1621.65 404.5 1622.5 393.045 1623.35 404.355 1624.2 404.79 1625.05 400.585 1625.9 401.02 1626.75 408.995 1627.6 404.21 1628.45 363.755 1629.3 401.455 1630.15 399.425 1631 360.42 1631.85 401.165 1632.7 396.96 1633.55 408.56 1634.4 401.31 1635.25 374.485 1636.1 408.27 1636.95 407.69 1637.8 401.89 1638.65 361.145 1639.5 402.76 1640.35 407.69 1641.2 407.835 1642.05 403.63 1642.9 395.22 1643.75 404.935 1644.6 390.29 1645.45 402.47 1646.3 379.415 1647.15 399.57 1648 410.59 1648.85 403.92 1649.7 368.105 1650.55 399.715 1651.4 399.425 1652.25 387.245 1653.1 384.055 1653.95 403.34 1654.8 399.28 1655.65 402.47 1656.5 367.96 1657.35 401.89 1658.2 407.255 1659.05 393.625 1659.9 385.94 1660.75 397.54 1661.6 398.7 1662.45 399.57 1663.3 386.955 1664.15 392.9 1665 401.31 1665.85 399.425 1666.7 402.47 1667.55 409.575 1668.4 395.22 1669.25 404.5 1670.1 388.26 1670.95 398.41 1671.8 400.005 1672.65 405.08 1673.5 403.92 1674.35 407.11 1675.2 402.615 1676.05 407.255 1676.9 401.6 1677.75 391.16 1678.6 397.395 1679.45 406.24 1680.3 400.585 1681.15 396.525 1682 370.715 1682.85 407.69 1683.7 400.295 1684.55 410.59 1685.4 393.48 1686.25 402.47 1687.1 397.25 1687.95 399.715 1688.8 404.935 1689.65 403.775 1690.5 393.045 1691.35 405.08 1692.2 407.69 1693.05 359.26 1693.9 394.35 1694.75 410.155 1695.6 365.495 1696.45 404.065 1697.3 355.78 1698.15 404.065 1699 403.195 1699.85 388.405 1700.7 358.825 1701.55 400.295 1702.4 395.22 1703.25 400.15 1704.1 390.145 1704.95 368.54 1705.8 401.02 1706.65 397.83 1707.5 394.06 1708.35 384.055 1709.2 371.15 1710.05 397.395 1710.9 396.235 1711.75 380.285 1712.6 392.03 1713.45 397.25 1714.3 401.165 1715.15 400.005 1716 401.89 1716.85 408.415 1717.7 399.715 1718.55 409.43 1719.4 389.71 1720.25 401.02 1721.1 396.235 1721.95 408.56 1722.8 408.125 1723.65 408.56 1724.5 400.585 1725.35 405.95 1726.2 404.5 1727.05 361.725 1727.9 393.335 1728.75 394.64 1729.6 405.08 1730.45 405.805 1731.3 400.73 1732.15 406.82 1733 409.285 1733.85 405.66 1734.7 417.695 1735.55 405.225 1736.4 413.2 1737.25 402.035 1738.1 403.775 1738.95 404.935 1739.8 393.625 1740.65 408.85 1741.5 407.255 1742.35 393.77 1743.2 388.115 1744.05 402.325 1744.9 402.18 1745.75 402.615 1746.6 407.69 1747.45 406.965 1748.3 398.845" style="fill:none;stroke-width:1.5;clip-path:url(#graphArea)"/></g><g id="LegendPanel_decomp_matinee_p3"><text x="1705" y="30" fill="#FFF" filter="url(#dropShadowFilter)" font-family="Helvetica" font-size="10" style="text-anchor:end">UE 4.25.0.csv</text><rect width="10" height="10" x="1710" y="22" fill="#F60" stroke="CSVStats.Colour" stroke-width="1" filter="url(#dropShadowFilter)"/><text x="1725" y="30" fill="silver" filter="url(#dropShadowFilter)" font-family="Helvetica" font-size="10" style="text-anchor:start">935.70</text><text x="1705" y="46" fill="#FFF" filter="url(#dropShadowFilter)" font-family="Helvetica" font-size="10" style="text-anchor:end">ACL Plugin 1.0.0.csv</text><rect width="10" height="10" x="1710" y="38" fill="#66CDFF" stroke="CSVStats.Colour" stroke-width="1" filter="url(#dropShadowFilter)"/><text x="1725" y="46" fill="silver" filter="url(#dropShadowFilter)" font-family="Helvetica" font-size="10" style="text-anchor:start">188.37</text><text x="1725" y="62" fill="silver" filter="url(#dropShadowFilter)" font-family="Helvetica" font-size="10" style="text-anchor:start">(avg)</text></g><text x="900" y="34" fill="#FFF" font-family="Helvetica" font-size="14" style="text-anchor:middle">Matinee Pixel 3 Decompression Performance (us/frame)</text>&gt;<text x="1698" y="15" fill="gray" font-family="Helvetica" font-size="7" style="text-anchor:start">CSVToSVG 2.31</text>&gt;</svg>
