<svg xmlns="http://www.w3.org/2000/svg" width="1800" height="550" version="1.1" viewPort="0 0 550 1800"><![CDATA[ 
Created with CSVtoSVG 2.31
]]><defs><radialGradient id="radialGradient1" r="65%" fx="50%" fy="50%" spreadMethod="pad"><stop offset="0%" stop-color="#505050" stop-opacity="1"/><stop offset="100%" stop-color="#101010" stop-opacity="1"/></radialGradient><linearGradient id="linearGradient1" x1="0%" x2="100%" y1="0%" y2="100%"><stop offset="0%" stop-color="#000"/><stop offset="100%" stop-color="#fff"/></linearGradient><clipPath id="graphArea"><rect width="1700" height="435" x="50" y="42"/></clipPath><filter id="dropShadowFilter" width="130%" height="130%" x="-20%"><feOffset dx="-2" dy="2" in="SourceAlpha" result="offOut"/><feGaussianBlur in="offOut" result="blurOut" stdDeviation="1.1"/><feBlend in="SourceGraphic" in2="blurOut" mode="normal"/></filter></defs><rect width="1800" height="550" x="0" y="0" fill="#101010" stroke="#101010" stroke-width="1" style="fill:url(#radialGradient1)"/><g id="graphArea"><g id="gridLines_decomp_playground_p3"><line x1="50" x2="1750" y1="477" y2="477" stroke="#606060" style="fill:none;stroke-width:.25"/><line x1="50" x2="1750" y1="467.333" y2="467.333" stroke="#606060" style="fill:none;stroke-width:.25"/><line x1="50" x2="1750" y1="457.667" y2="457.667" stroke="#606060" style="fill:none;stroke-width:.25"/><line x1="50" x2="1750" y1="448" y2="448" stroke="#606060" style="fill:none;stroke-width:.25"/><line x1="50" x2="1750" y1="438.333" y2="438.333" stroke="#606060" style="fill:none;stroke-width:.25"/><line x1="50" x2="1750" y1="428.667" y2="428.667" stroke="#606060" style="fill:none;stroke-width:.25"/><line x1="50" x2="1750" y1="419" y2="419" stroke="#606060" style="fill:none;stroke-width:.25"/><line x1="50" x2="1750" y1="409.333" y2="409.333" stroke="#606060" style="fill:none;stroke-width:.25"/><line x1="50" x2="1750" y1="399.667" y2="399.667" stroke="#606060" style="fill:none;stroke-width:.25"/><line x1="50" x2="1750" y1="390" y2="390" stroke="#606060" style="fill:none;stroke-width:.25"/><line x1="50" x2="1750" y1="380.333" y2="380.333" stroke="#606060" style="fill:none;stroke-width:.25"/><line x1="50" x2="1750" y1="370.667" y2="370.667" stroke="#606060" style="fill:none;stroke-width:.25"/><line x1="50" x2="1750" y1="361" y2="361" stroke="#606060" style="fill:none;stroke-width:.25"/><line x1="50" x2="1750" y1="351.333" y2="351.333" stroke="#606060" style="fill:none;stroke-width:.25"/><line x1="50" x2="1750" y1="341.667" y2="341.667" stroke="#606060" style="fill:none;stroke-width:.25"/><line x1="50" x2="1750" y1="332" y2="332" stroke="#606060" style="fill:none;stroke-width:.25"/><line x1="50" x2="1750" y1="322.333" y2="322.333" stroke="#606060" style="fill:none;stroke-width:.25"/><line x1="50" x2="1750" y1="312.667" y2="312.667" stroke="#606060" style="fill:none;stroke-width:.25"/><line x1="50" x2="1750" y1="303" y2="303" stroke="#606060" style="fill:none;stroke-width:.25"/><line x1="50" x2="1750" y1="293.333" y2="293.333" stroke="#606060" style="fill:none;stroke-width:.25"/><line x1="50" x2="1750" y1="283.667" y2="283.667" stroke="#606060" style="fill:none;stroke-width:.25"/><line x1="50" x2="1750" y1="274" y2="274" stroke="#606060" style="fill:none;stroke-width:.25"/><line x1="50" x2="1750" y1="264.333" y2="264.333" stroke="#606060" style="fill:none;stroke-width:.25"/><line x1="50" x2="1750" y1="254.667" y2="254.667" stroke="#606060" style="fill:none;stroke-width:.25"/><line x1="50" x2="1750" y1="245" y2="245" stroke="#606060" style="fill:none;stroke-width:.25"/><line x1="50" x2="1750" y1="235.333" y2="235.333" stroke="#606060" style="fill:none;stroke-width:.25"/><line x1="50" x2="1750" y1="225.667" y2="225.667" stroke="#606060" style="fill:none;stroke-width:.25"/><line x1="50" x2="1750" y1="216" y2="216" stroke="#606060" style="fill:none;stroke-width:.25"/><line x1="50" x2="1750" y1="206.333" y2="206.333" stroke="#606060" style="fill:none;stroke-width:.25"/><line x1="50" x2="1750" y1="196.667" y2="196.667" stroke="#606060" style="fill:none;stroke-width:.25"/><line x1="50" x2="1750" y1="187" y2="187" stroke="#606060" style="fill:none;stroke-width:.25"/><line x1="50" x2="1750" y1="177.333" y2="177.333" stroke="#606060" style="fill:none;stroke-width:.25"/><line x1="50" x2="1750" y1="167.667" y2="167.667" stroke="#606060" style="fill:none;stroke-width:.25"/><line x1="50" x2="1750" y1="158" y2="158" stroke="#606060" style="fill:none;stroke-width:.25"/><line x1="50" x2="1750" y1="148.333" y2="148.333" stroke="#606060" style="fill:none;stroke-width:.25"/><line x1="50" x2="1750" y1="138.667" y2="138.667" stroke="#606060" style="fill:none;stroke-width:.25"/><line x1="50" x2="1750" y1="129" y2="129" stroke="#606060" style="fill:none;stroke-width:.25"/><line x1="50" x2="1750" y1="119.333" y2="119.333" stroke="#606060" style="fill:none;stroke-width:.25"/><line x1="50" x2="1750" y1="109.667" y2="109.667" stroke="#606060" style="fill:none;stroke-width:.25"/><line x1="50" x2="1750" y1="100" y2="100" stroke="#606060" style="fill:none;stroke-width:.25"/><line x1="50" x2="1750" y1="90.333" y2="90.333" stroke="#606060" style="fill:none;stroke-width:.25"/><line x1="50" x2="1750" y1="80.667" y2="80.667" stroke="#606060" style="fill:none;stroke-width:.25"/><line x1="50" x2="1750" y1="71" y2="71" stroke="#606060" style="fill:none;stroke-width:.25"/><line x1="50" x2="1750" y1="61.333" y2="61.333" stroke="#606060" style="fill:none;stroke-width:.25"/><line x1="50" x2="1750" y1="51.667" y2="51.667" stroke="#606060" style="fill:none;stroke-width:.25"/><line x1="50" x2="1750" y1="42" y2="42" stroke="#606060" style="fill:none;stroke-width:.25"/><line x1="50" x2="1750" y1="477" y2="477" stroke="gray" style="fill:none;stroke-width:.25"/><line x1="50" x2="1750" y1="428.667" y2="428.667" stroke="gray" style="fill:none;stroke-width:.25"/><line x1="50" x2="1750" y1="380.333" y2="380.333" stroke="gray" style="fill:none;stroke-width:.25"/><line x1="50" x2="1750" y1="332" y2="332" stroke="gray" style="fill:none;stroke-width:.25"/><line x1="50" x2="1750" y1="283.667" y2="283.667" stroke="gray" style="fill:none;stroke-width:.25"/><line x1="50" x2="1750" y1="235.333" y2="235.333" stroke="gray" style="fill:none;stroke-width:.25"/><line x1="50" x2="1750" y1="187" y2="187" stroke="gray" style="fill:none;stroke-width:.25"/><line x1="50" x2="1750" y1="138.667" y2="138.667" stroke="gray" style="fill:none;stroke-width:.25"/><line x1="50" x2="1750" y1="90.333" y2="90.333" stroke="gray" style="fill:none;stroke-width:.25"/><line x1="50" x2="1750" y1="42" y2="42" stroke="gray" style="fill:none;stroke-width:.25"/></g><g id="xAxis_decomp_playground_p3"><text x="487" y="-46" fill="#FFF" font-family="Helvetica" font-size="10" transform="rotate(90)">0</text><text x="487" y="-74.333" fill="#FFF" font-family="Helvetica" font-size="10" transform="rotate(90)">10</text><text x="487" y="-102.667" fill="#FFF" font-family="Helvetica" font-size="10" transform="rotate(90)">20</text><text x="487" y="-131" fill="#FFF" font-family="Helvetica" font-size="10" transform="rotate(90)">30</text><text x="487" y="-159.333" fill="#FFF" font-family="Helvetica" font-size="10" transform="rotate(90)">40</text><text x="487" y="-187.667" fill="#FFF" font-family="Helvetica" font-size="10" transform="rotate(90)">50</text><text x="487" y="-216" fill="#FFF" font-family="Helvetica" font-size="10" transform="rotate(90)">60</text><text x="487" y="-244.333" fill="#FFF" font-family="Helvetica" font-size="10" transform="rotate(90)">70</text><text x="487" y="-272.667" fill="#FFF" font-family="Helvetica" font-size="10" transform="rotate(90)">80</text><text x="487" y="-301" fill="#FFF" font-family="Helvetica" font-size="10" transform="rotate(90)">90</text><text x="487" y="-329.333" fill="#FFF" font-family="Helvetica" font-size="10" transform="rotate(90)">100</text><text x="487" y="-357.667" fill="#FFF" font-family="Helvetica" font-size="10" transform="rotate(90)">110</text><text x="487" y="-386" fill="#FFF" font-family="Helvetica" font-size="10" transform="rotate(90)">120</text><text x="487" y="-414.333" fill="#FFF" font-family="Helvetica" font-size="10" transform="rotate(90)">130</text><text x="487" y="-442.667" fill="#FFF" font-family="Helvetica" font-size="10" transform="rotate(90)">140</text><text x="487" y="-471" fill="#FFF" font-family="Helvetica" font-size="10" transform="rotate(90)">150</text><text x="487" y="-499.333" fill="#FFF" font-family="Helvetica" font-size="10" transform="rotate(90)">160</text><text x="487" y="-527.667" fill="#FFF" font-family="Helvetica" font-size="10" transform="rotate(90)">170</text><text x="487" y="-556" fill="#FFF" font-family="Helvetica" font-size="10" transform="rotate(90)">180</text><text x="487" y="-584.333" fill="#FFF" font-family="Helvetica" font-size="10" transform="rotate(90)">190</text><text x="487" y="-612.667" fill="#FFF" font-family="Helvetica" font-size="10" transform="rotate(90)">200</text><text x="487" y="-641" fill="#FFF" font-family="Helvetica" font-size="10" transform="rotate(90)">210</text><text x="487" y="-669.333" fill="#FFF" font-family="Helvetica" font-size="10" transform="rotate(90)">220</text><text x="487" y="-697.667" fill="#FFF" font-family="Helvetica" font-size="10" transform="rotate(90)">230</text><text x="487" y="-726" fill="#FFF" font-family="Helvetica" font-size="10" transform="rotate(90)">240</text><text x="487" y="-754.333" fill="#FFF" font-family="Helvetica" font-size="10" transform="rotate(90)">250</text><text x="487" y="-782.667" fill="#FFF" font-family="Helvetica" font-size="10" transform="rotate(90)">260</text><text x="487" y="-811" fill="#FFF" font-family="Helvetica" font-size="10" transform="rotate(90)">270</text><text x="487" y="-839.333" fill="#FFF" font-family="Helvetica" font-size="10" transform="rotate(90)">280</text><text x="487" y="-867.667" fill="#FFF" font-family="Helvetica" font-size="10" transform="rotate(90)">290</text><text x="487" y="-896" fill="#FFF" font-family="Helvetica" font-size="10" transform="rotate(90)">300</text><text x="487" y="-924.333" fill="#FFF" font-family="Helvetica" font-size="10" transform="rotate(90)">310</text><text x="487" y="-952.667" fill="#FFF" font-family="Helvetica" font-size="10" transform="rotate(90)">320</text><text x="487" y="-981" fill="#FFF" font-family="Helvetica" font-size="10" transform="rotate(90)">330</text><text x="487" y="-1009.333" fill="#FFF" font-family="Helvetica" font-size="10" transform="rotate(90)">340</text><text x="487" y="-1037.667" fill="#FFF" font-family="Helvetica" font-size="10" transform="rotate(90)">350</text><text x="487" y="-1066" fill="#FFF" font-family="Helvetica" font-size="10" transform="rotate(90)">360</text><text x="487" y="-1094.333" fill="#FFF" font-family="Helvetica" font-size="10" transform="rotate(90)">370</text><text x="487" y="-1122.667" fill="#FFF" font-family="Helvetica" font-size="10" transform="rotate(90)">380</text><text x="487" y="-1151" fill="#FFF" font-family="Helvetica" font-size="10" transform="rotate(90)">390</text><text x="487" y="-1179.333" fill="#FFF" font-family="Helvetica" font-size="10" transform="rotate(90)">400</text><text x="487" y="-1207.667" fill="#FFF" font-family="Helvetica" font-size="10" transform="rotate(90)">410</text><text x="487" y="-1236" fill="#FFF" font-family="Helvetica" font-size="10" transform="rotate(90)">420</text><text x="487" y="-1264.333" fill="#FFF" font-family="Helvetica" font-size="10" transform="rotate(90)">430</text><text x="487" y="-1292.667" fill="#FFF" font-family="Helvetica" font-size="10" transform="rotate(90)">440</text><text x="487" y="-1321" fill="#FFF" font-family="Helvetica" font-size="10" transform="rotate(90)">450</text><text x="487" y="-1349.333" fill="#FFF" font-family="Helvetica" font-size="10" transform="rotate(90)">460</text><text x="487" y="-1377.667" fill="#FFF" font-family="Helvetica" font-size="10" transform="rotate(90)">470</text><text x="487" y="-1406" fill="#FFF" font-family="Helvetica" font-size="10" transform="rotate(90)">480</text><text x="487" y="-1434.333" fill="#FFF" font-family="Helvetica" font-size="10" transform="rotate(90)">490</text><text x="487" y="-1462.667" fill="#FFF" font-family="Helvetica" font-size="10" transform="rotate(90)">500</text><text x="487" y="-1491" fill="#FFF" font-family="Helvetica" font-size="10" transform="rotate(90)">510</text><text x="487" y="-1519.333" fill="#FFF" font-family="Helvetica" font-size="10" transform="rotate(90)">520</text><text x="487" y="-1547.667" fill="#FFF" font-family="Helvetica" font-size="10" transform="rotate(90)">530</text><text x="487" y="-1576" fill="#FFF" font-family="Helvetica" font-size="10" transform="rotate(90)">540</text><text x="487" y="-1604.333" fill="#FFF" font-family="Helvetica" font-size="10" transform="rotate(90)">550</text><text x="487" y="-1632.667" fill="#FFF" font-family="Helvetica" font-size="10" transform="rotate(90)">560</text><text x="487" y="-1661" fill="#FFF" font-family="Helvetica" font-size="10" transform="rotate(90)">570</text><text x="487" y="-1689.333" fill="#FFF" font-family="Helvetica" font-size="10" transform="rotate(90)">580</text><text x="487" y="-1717.667" fill="#FFF" font-family="Helvetica" font-size="10" transform="rotate(90)">590</text><text x="487" y="-1746" fill="#FFF" font-family="Helvetica" font-size="10" transform="rotate(90)">600</text></g><g id="yAxis_decomp_playground_p3"><text x="40" y="481" fill="#FFF" font-family="Helvetica" font-size="10" style="text-anchor:end">0</text>&gt;<line x1="47.5" x2="50" y1="477" y2="477" stroke="#FFF" style="fill:none;stroke-width:.25"/><text x="40" y="432.667" fill="#FFF" font-family="Helvetica" font-size="10" style="text-anchor:end">500</text>&gt;<line x1="47.5" x2="50" y1="428.667" y2="428.667" stroke="#FFF" style="fill:none;stroke-width:.25"/><text x="40" y="384.333" fill="#FFF" font-family="Helvetica" font-size="10" style="text-anchor:end">1000</text>&gt;<line x1="47.5" x2="50" y1="380.333" y2="380.333" stroke="#FFF" style="fill:none;stroke-width:.25"/><text x="40" y="336" fill="#FFF" font-family="Helvetica" font-size="10" style="text-anchor:end">1500</text>&gt;<line x1="47.5" x2="50" y1="332" y2="332" stroke="#FFF" style="fill:none;stroke-width:.25"/><text x="40" y="287.667" fill="#FFF" font-family="Helvetica" font-size="10" style="text-anchor:end">2000</text>&gt;<line x1="47.5" x2="50" y1="283.667" y2="283.667" stroke="#FFF" style="fill:none;stroke-width:.25"/><text x="40" y="239.333" fill="#FFF" font-family="Helvetica" font-size="10" style="text-anchor:end">2500</text>&gt;<line x1="47.5" x2="50" y1="235.333" y2="235.333" stroke="#FFF" style="fill:none;stroke-width:.25"/><text x="40" y="191" fill="#FFF" font-family="Helvetica" font-size="10" style="text-anchor:end">3000</text>&gt;<line x1="47.5" x2="50" y1="187" y2="187" stroke="#FFF" style="fill:none;stroke-width:.25"/><text x="40" y="142.667" fill="#FFF" font-family="Helvetica" font-size="10" style="text-anchor:end">3500</text>&gt;<line x1="47.5" x2="50" y1="138.667" y2="138.667" stroke="#FFF" style="fill:none;stroke-width:.25"/><text x="40" y="94.333" fill="#FFF" font-family="Helvetica" font-size="10" style="text-anchor:end">4000</text>&gt;<line x1="47.5" x2="50" y1="90.333" y2="90.333" stroke="#FFF" style="fill:none;stroke-width:.25"/><text x="40" y="46" fill="#FFF" font-family="Helvetica" font-size="10" style="text-anchor:end">4500</text>&gt;<line x1="47.5" x2="50" y1="42" y2="42" stroke="#FFF" style="fill:none;stroke-width:.25"/></g><line x1="50" x2="50" y1="42" y2="477" stroke="gray" style="fill:none;stroke-width:.5"/><line x1="50" x2="1750" y1="477" y2="477" stroke="gray" style="fill:none;stroke-width:.5"/><polyline id="Stat_0_Animation/Total/ExtractPoseFromAnimData_decomp_playground_p3" stroke="#66CDFF" points="50 378.11 52.833 477 55.667 477 58.5 344.083 61.333 410.783 64.167 414.747 67 370.087 69.833 371.537 72.667 397.25 75.5 367.187 78.333 403.243 81.167 413.103 84 412.717 86.833 398.893 89.667 410.493 92.5 411.943 95.333 416.777 98.167 411.46 101 407.013 103.833 418.13 106.667 414.65 109.5 415.52 112.333 412.523 115.167 408.367 118 407.497 120.833 411.75 123.667 419.58 126.5 421.997 129.333 423.157 132.167 427.313 135 419.87 137.833 420.16 140.667 406.917 143.5 407.98 146.333 411.847 149.167 408.463 152 417.453 154.833 424.22 157.667 397.153 160.5 404.307 163.333 400.343 166.167 400.537 169 395.703 171.833 400.827 174.667 397.153 177.5 412.137 180.333 404.887 183.167 407.593 186 409.817 188.833 402.277 191.667 402.76 194.5 417.743 197.333 409.913 200.167 419.097 203 411.267 205.833 398.893 208.667 405.08 211.5 410.977 214.333 397.347 217.167 410.59 220 417.357 222.833 362.837 225.667 394.737 228.5 401.987 231.333 381.687 234.167 433.113 237 428.183 239.833 415.423 242.667 433.21 245.5 427.41 248.333 436.98 251.167 433.5 254 356.07 256.833 410.107 259.667 419.097 262.5 423.253 265.333 416.68 268.167 437.657 271 432.823 273.833 425.283 276.667 436.207 279.5 431.373 282.333 420.257 285.167 434.95 288 400.537 290.833 352.493 293.667 416.777 296.5 415.52 299.333 417.357 302.167 418.13 305 413.2 307.833 396.38 310.667 421.9 313.5 420.837 316.333 410.59 319.167 416.39 322 423.93 324.833 422.963 327.667 419.387 330.5 406.337 333.333 407.787 336.167 411.653 339 416.777 341.833 407.787 344.667 425.283 347.5 416.197 350.333 412.523 353.167 416.873 356 416.293 358.833 421.223 361.667 416.97 364.5 424.607 367.333 414.07 370.167 421.803 373 409.333 375.833 393.77 378.667 402.857 381.5 409.72 384.333 398.507 387.167 408.27 390 387.777 392.833 393.77 395.667 411.75 398.5 420.063 401.333 405.273 404.167 396.767 407 417.357 409.833 418.227 412.667 415.23 415.5 411.17 418.333 407.303 421.167 407.593 424 405.563 426.833 407.11 429.667 381.977 432.5 406.723 435.333 414.167 438.167 416.873 441 399.183 443.833 416.197 446.667 411.75 449.5 408.173 452.333 407.303 455.167 400.15 458 410.88 460.833 390.193 463.667 411.557 466.5 437.27 469.333 429.923 472.167 410.493 475 421.9 477.833 409.527 480.667 414.263 483.5 414.553 486.333 400.633 489.167 407.303 492 401.213 494.833 406.627 497.667 406.53 500.5 400.73 503.333 386.423 506.167 387.487 509 409.14 511.833 420.45 514.667 423.35 517.5 409.333 520.333 408.463 523.167 404.79 526 412.813 528.833 411.17 531.667 410.977 534.5 416.39 537.333 418.033 540.167 419.58 543 414.747 545.833 413.877 548.667 403.437 551.5 406.723 554.333 414.94 557.167 416.197 560 396.96 562.833 408.56 565.667 409.333 568.5 413.297 571.333 367.67 574.167 410.3 577 412.62 579.833 418.807 582.667 407.69 585.5 380.043 588.333 382.17 591.167 416.487 594 414.167 596.833 408.463 599.667 400.15 602.5 390.387 605.333 386.327 608.167 394.543 611 415.327 613.833 401.31 616.667 401.213 619.5 404.5 622.333 416.97 625.167 406.917 628 408.077 630.833 415.713 633.667 405.757 636.5 402.857 639.333 392.32 642.167 405.37 645 417.743 647.833 394.737 650.667 392.707 653.5 416.197 656.333 405.467 659.167 410.687 662 407.4 664.833 423.833 667.667 341.86 670.5 408.077 673.333 413.587 676.167 409.333 679 395.027 681.833 397.927 684.667 413.297 687.5 403.727 690.333 407.11 693.167 413.49 696 410.493 698.833 409.043 701.667 411.653 704.5 394.35 707.333 393.19 710.167 414.65 713 414.167 715.833 406.53 718.667 420.547 721.5 430.6 724.333 397.927 727.167 416.68 730 407.303 732.833 412.33 735.667 410.397 738.5 412.523 741.333 417.84 744.167 417.26 747 408.657 749.833 401.6 752.667 381.977 755.5 366.607 758.333 409.72 761.167 405.08 764 415.907 766.833 398.313 769.667 386.713 772.5 405.66 775.333 400.247 778.167 402.47 781 413.49 783.833 409.043 786.667 409.043 789.5 408.27 792.333 400.633 795.167 397.347 798 418.903 800.833 405.66 803.667 374.727 806.5 416.197 809.333 409.72 812.167 378.11 815 407.497 817.833 396.283 820.667 394.253 823.5 399.763 826.333 405.08 829.167 368.927 832 396.573 834.833 398.217 837.667 392.417 840.5 388.84 843.333 403.147 846.167 407.207 849 410.687 851.833 388.84 854.667 409.913 857.5 412.233 860.333 416.003 863.167 402.18 866 409.527 868.833 403.437 871.667 394.737 874.5 410.687 877.333 410.977 880.167 414.747 883 394.93 885.833 364.287 888.667 392.32 891.5 402.857 894.333 422.963 897.167 422.963 900 397.54 902.833 413.49 905.667 409.623 908.5 413.2 911.333 389.42 914.167 406.917 917 408.367 919.833 403.92 922.667 385.553 925.5 416.777 928.333 414.263 931.167 395.51 934 399.86 936.833 396.767 939.667 404.983 942.5 367.38 945.333 395.993 948.167 412.427 951 405.08 953.833 413.297 956.667 409.237 959.5 365.833 962.333 412.523 965.167 404.983 968 402.953 970.833 397.54 973.667 414.747 976.5 413.78 979.333 402.47 982.167 393.577 985 385.65 987.833 389.613 990.667 396.96 993.5 392.513 996.333 402.567 999.167 403.63 1002 391.837 1004.833 378.497 1007.667 406.24 1010.5 378.787 1013.333 407.497 1016.167 403.147 1019 390.29 1021.833 404.307 1024.667 391.933 1027.5 394.64 1030.333 407.303 1033.167 408.657 1036 405.95 1038.833 411.653 1041.667 418.033 1044.5 408.657 1047.333 401.213 1050.167 399.28 1053 402.083 1055.833 400.537 1058.667 407.98 1061.5 408.657 1064.333 409.43 1067.167 399.57 1070 405.853 1072.833 412.137 1075.667 418.323 1078.5 408.56 1081.333 415.52 1084.167 411.653 1087 419.677 1089.833 414.07 1092.667 386.037 1095.5 408.27 1098.333 409.14 1101.167 415.81 1104 398.7 1106.833 430.02 1109.667 424.413 1112.5 409.72 1115.333 410.397 1118.167 400.537 1121 404.5 1123.833 406.433 1126.667 414.553 1129.5 405.95 1132.333 401.117 1135.167 415.81 1138 416.39 1140.833 404.597 1143.667 405.177 1146.5 407.497 1149.333 412.91 1152.167 404.693 1155 381.687 1157.833 392.707 1160.667 411.847 1163.5 401.697 1166.333 405.66 1169.167 411.75 1172 388.84 1174.833 405.563 1177.667 395.413 1180.5 415.327 1183.333 399.86 1186.167 399.57 1189 402.18 1191.833 384.297 1194.667 414.36 1197.5 406.433 1200.333 411.46 1203.167 412.62 1206 407.11 1208.833 384.973 1211.667 407.497 1214.5 399.28 1217.333 411.46 1220.167 412.233 1223 380.817 1225.833 406.917 1228.667 393.287 1231.5 388.84 1234.333 393.093 1237.167 414.747 1240 397.733 1242.833 401.31 1245.667 369.217 1248.5 340.99 1251.333 437.753 1254.167 429.44 1257 415.617 1259.833 417.357 1262.667 433.79 1265.5 442.297 1268.333 423.64 1271.167 420.353 1274 414.167 1276.833 420.74 1279.667 424.51 1282.5 404.597 1285.333 414.843 1288.167 401.213 1291 410.783 1293.833 406.917 1296.667 405.08 1299.5 416.97 1302.333 389.227 1305.167 405.853 1308 412.523 1310.833 409.527 1313.667 402.083 1316.5 406.82 1319.333 413.587 1322.167 385.553 1325 412.137 1327.833 415.23 1330.667 405.66 1333.5 400.343 1336.333 411.363 1339.167 411.75 1342 405.467 1344.833 411.75 1347.667 398.603 1350.5 399.57 1353.333 404.21 1356.167 397.347 1359 399.957 1361.833 395.607 1364.667 414.553 1367.5 401.697 1370.333 388.357 1373.167 400.633 1376 404.5 1378.833 406.53 1381.667 406.433 1384.5 398.12 1387.333 406.53 1390.167 404.597 1393 407.497 1395.833 400.923 1398.667 417.55 1401.5 400.73 1404.333 358.873 1407.167 353.847 1410 374.437 1412.833 408.657 1415.667 389.13 1418.5 390.387 1421.333 398.99 1424.167 391.74 1427 422.77 1429.833 418.227 1432.667 407.98 1435.5 401.89 1438.333 390 1441.167 409.913 1444 404.017 1446.833 373.373 1449.667 388.743 1452.5 407.497 1455.333 409.817 1458.167 393.77 1461 394.543 1463.833 392.32 1466.667 404.113 1469.5 401.213 1472.333 419.58 1475.167 387.68 1478 403.05 1480.833 407.98 1483.667 408.657 1486.5 409.14 1489.333 402.18 1492.167 398.217 1495 404.113 1497.833 407.207 1500.667 387.777 1503.5 407.207 1506.333 405.273 1509.167 408.077 1512 408.27 1514.833 405.273 1517.667 405.95 1520.5 411.75 1523.333 401.697 1526.167 401.407 1529 380.527 1531.833 400.44 1534.667 405.37 1537.5 408.947 1540.333 405.66 1543.167 396.67 1546 377.337 1548.833 407.497 1551.667 398.023 1554.5 405.95 1557.333 400.73 1560.167 412.91 1563 362.063 1565.833 424.993 1568.667 416.777 1571.5 408.85 1574.333 405.37 1577.167 401.793 1580 401.697 1582.833 418.517 1585.667 410.59 1588.5 404.5 1591.333 408.173 1594.167 410.107 1597 402.857 1599.833 401.89 1602.667 402.277 1605.5 416.003 1608.333 417.26 1611.167 414.94 1614 400.537 1616.833 408.657 1619.667 394.93 1622.5 407.303 1625.333 410.3 1628.167 392.127 1631 385.94 1633.833 402.47 1636.667 410.783 1639.5 397.637 1642.333 382.847 1645.167 388.163 1648 380.817 1650.833 401.697 1653.667 407.883 1656.5 350.753 1659.333 400.343 1662.167 409.43 1665 408.947 1667.833 417.55 1670.667 410.397 1673.5 407.593 1676.333 407.497 1679.167 411.75 1682 400.053 1684.833 381.493 1687.667 405.563 1690.5 397.927 1693.333 396.96 1696.167 214.55 1699 403.823 1701.833 407.69 1704.667 402.18 1707.5 400.537 1710.333 399.087 1713.167 411.267 1716 404.307 1718.833 409.817 1721.667 408.463 1724.5 387.487 1727.333 412.523 1730.167 398.603 1733 419.773 1735.833 419.58 1738.667 378.883 1741.5 405.273 1744.333 412.33" style="fill:none;stroke-width:1.5;clip-path:url(#graphArea)"/><polyline id="Stat_1_Animation/Total/ExtractPoseFromAnimData_decomp_playground_p3" stroke="#F60" points="50 359.55 52.833 477 55.667 477 58.5 367.96 61.333 411.557 64.167 405.563 67 341.957 69.833 301.647 72.667 340.12 75.5 376.757 78.333 374.437 81.167 369.797 84 385.553 86.833 369.797 89.667 378.787 92.5 279.51 95.333 374.63 98.167 375.79 101 361 103.833 379.077 106.667 369.41 109.5 350.27 112.333 344.663 115.167 340.41 118 340.893 120.833 363.513 123.667 350.56 126.5 361.29 129.333 350.173 132.167 365.06 135 352.493 137.833 365.447 140.667 355.297 143.5 353.073 146.333 359.937 149.167 359.357 152 351.043 154.833 327.263 157.667 362.257 160.5 361.483 163.333 341.957 166.167 340.603 169 350.947 171.833 355.78 174.667 297.103 177.5 357.907 180.333 344.083 183.167 361.967 186 350.173 188.833 340.12 191.667 379.753 194.5 389.613 197.333 384.103 200.167 379.463 203 382.267 205.833 364.673 208.667 392.03 211.5 279.027 214.333 373.76 217.167 383.137 220 370.763 222.833 386.617 225.667 394.35 228.5 365.737 231.333 391.547 234.167 372.02 237 385.65 239.833 373.663 242.667 368.83 245.5 377.337 248.333 388.163 251.167 376.08 254 367.767 256.833 376.95 259.667 366.123 262.5 375.597 265.333 366.703 268.167 369.797 271 375.403 273.833 376.273 276.667 383.04 279.5 385.843 282.333 388.743 285.167 376.757 288 214.84 290.833 386.037 293.667 395.993 296.5 399.763 299.333 360.903 302.167 398.12 305 375.887 307.833 392.707 310.667 377.917 313.5 360.13 316.333 342.827 319.167 341.667 322 335.577 324.833 340.603 327.667 360.517 330.5 360.517 333.333 354.137 336.167 360.323 339 358.003 341.833 364.673 344.667 356.07 347.5 366.317 350.333 359.26 353.167 362.643 356 355.103 358.833 370.473 361.667 369.217 364.5 356.263 367.333 360.903 370.167 358.003 373 352.3 375.833 377.53 378.667 368.153 381.5 371.827 384.333 363.9 387.167 367.863 390 345.437 392.833 366.8 395.667 355.973 398.5 334.223 401.333 368.25 404.167 359.067 407 366.8 409.833 364.867 412.667 362.063 415.5 355.2 418.333 343.793 421.167 315.083 424 360.807 426.833 311.217 429.667 341.667 432.5 368.83 435.333 356.07 438.167 363.223 441 365.737 443.833 354.523 446.667 340.12 449.5 337.413 452.333 359.647 455.167 362.837 458 343.213 460.833 344.663 463.667 356.747 466.5 346.113 469.333 357.617 472.167 354.233 475 361.483 477.833 348.24 480.667 352.88 483.5 340.507 486.333 323.687 489.167 316.533 492 348.53 494.833 326.103 497.667 321.753 500.5 338.67 503.333 348.433 506.167 335.19 509 349.013 511.833 315.76 514.667 359.937 517.5 348.047 520.333 360.903 523.167 346.597 526 358.39 528.833 359.743 531.667 352.397 534.5 350.463 537.333 331.807 540.167 325.233 543 335.48 545.833 336.543 548.667 241.713 551.5 339.443 554.333 314.987 557.167 347.66 560 353.363 562.833 370.28 565.667 358.487 568.5 362.257 571.333 380.43 574.167 334.417 577 356.167 579.833 353.17 582.667 353.653 585.5 328.037 588.333 346.983 591.167 346.79 594 360.613 596.833 363.127 599.667 361 602.5 355.103 605.333 311.99 608.167 333.933 611 343.697 613.833 357.617 616.667 357.037 619.5 337.51 622.333 363.997 625.167 356.457 628 319.53 630.833 349.497 633.667 351.623 636.5 76.607 639.333 357.617 642.167 356.457 645 355.007 647.833 315.953 650.667 345.05 653.5 351.817 656.333 348.82 659.167 351.623 662 379.947 664.833 348.24 667.667 340.893 670.5 356.65 673.333 362.837 676.167 358.583 679 360.227 681.833 367.09 684.667 348.433 687.5 345.533 690.333 353.75 693.167 352.01 696 326.877 698.833 345.823 701.667 344.47 704.5 346.597 707.333 347.467 710.167 342.633 713 354.91 715.833 353.653 718.667 344.47 721.5 345.92 724.333 353.46 727.167 350.173 730 351.237 732.833 322.043 735.667 372.503 738.5 363.997 741.333 370.183 744.167 357.133 747 363.223 749.833 349.98 752.667 381.687 755.5 351.527 758.333 293.333 761.167 314.31 764 355.49 766.833 357.423 769.667 356.747 772.5 298.553 775.333 345.92 778.167 344.76 781 348.723 783.833 340.12 786.667 331.227 789.5 329.487 792.333 330.937 795.167 348.24 798 367.863 800.833 361.193 803.667 358.97 806.5 341.763 809.333 273.42 812.167 350.947 815 351.527 817.833 332.677 820.667 324.75 823.5 312.86 826.333 324.653 829.167 346.403 832 350.947 834.833 337.607 837.667 345.533 840.5 371.73 843.333 336.543 846.167 337.027 849 357.327 851.833 367.863 854.667 344.663 857.5 335.19 860.333 327.747 863.167 363.9 866 352.107 868.833 355.103 871.667 368.83 874.5 342.73 877.333 347.177 880.167 351.817 883 330.647 885.833 351.237 888.667 352.493 891.5 288.307 894.333 361.483 897.167 352.107 900 337.607 902.833 357.713 905.667 360.613 908.5 350.367 911.333 361.58 914.167 359.55 917 351.43 919.833 351.913 922.667 330.26 925.5 344.953 928.333 358.487 931.167 347.563 934 350.463 936.833 314.31 939.667 347.563 942.5 316.533 945.333 339.153 948.167 364.287 951 341.377 953.833 353.653 956.667 350.947 959.5 336.157 962.333 357.327 965.167 360.323 968 353.073 970.833 358.39 973.667 350.56 976.5 358.873 979.333 353.17 982.167 338.767 985 355.49 987.833 352.783 990.667 348.917 993.5 346.21 996.333 333.45 999.167 366.897 1002 361.483 1004.833 354.717 1007.667 356.843 1010.5 355.49 1013.333 362.74 1016.167 365.253 1019 368.637 1021.833 358.873 1024.667 357.713 1027.5 331.227 1030.333 331.613 1033.167 344.47 1036 377.143 1038.833 376.66 1041.667 350.56 1044.5 363.127 1047.333 350.173 1050.167 336.737 1053 361.29 1055.833 334.803 1058.667 349.11 1061.5 351.43 1064.333 353.267 1067.167 320.207 1070 333.643 1072.833 322.43 1075.667 347.08 1078.5 351.527 1081.333 353.073 1084.167 338.863 1087 348.143 1089.833 373.857 1092.667 359.357 1095.5 349.4 1098.333 357.037 1101.167 375.983 1104 355.877 1106.833 356.07 1109.667 356.65 1112.5 350.077 1115.333 304.547 1118.167 372.697 1121 365.64 1123.833 360.323 1126.667 353.46 1129.5 346.307 1132.333 316.243 1135.167 323.01 1138 348.627 1140.833 340.7 1143.667 334.127 1146.5 333.353 1149.333 338.477 1152.167 326.973 1155 345.727 1157.833 320.787 1160.667 364.77 1163.5 347.273 1166.333 374.34 1169.167 361.483 1172 360.613 1174.833 358.1 1177.667 343.213 1180.5 340.41 1183.333 358.003 1186.167 350.85 1189 338.477 1191.833 339.54 1194.667 359.067 1197.5 358.487 1200.333 362.837 1203.167 327.94 1206 308.8 1208.833 355.103 1211.667 363.127 1214.5 370.28 1217.333 360.71 1220.167 341.763 1223 342.633 1225.833 338.863 1228.667 364.383 1231.5 333.257 1234.333 350.463 1237.167 332.773 1240 332.483 1242.833 358.39 1245.667 358.293 1248.5 361 1251.333 356.65 1254.167 350.173 1257 318.757 1259.833 352.3 1262.667 357.423 1265.5 350.753 1268.333 347.177 1271.167 346.693 1274 324.943 1276.833 362.74 1279.667 337.123 1282.5 353.943 1285.333 357.327 1288.167 305.707 1291 307.447 1293.833 354.33 1296.667 340.313 1299.5 352.687 1302.333 347.66 1305.167 345.63 1308 358.487 1310.833 370.667 1313.667 349.883 1316.5 356.94 1319.333 335.673 1322.167 354.137 1325 348.143 1327.833 368.057 1330.667 366.607 1333.5 364.867 1336.333 355.877 1339.167 371.053 1342 350.463 1344.833 340.99 1347.667 306.19 1350.5 330.55 1353.333 353.75 1356.167 343.987 1359 360.227 1361.833 361.967 1364.667 98.453 1367.5 353.46 1370.333 368.927 1373.167 299.423 1376 346.113 1378.833 347.563 1381.667 349.207 1384.5 319.24 1387.333 338.187 1390.167 337.317 1393 333.74 1395.833 338.573 1398.667 334.61 1401.5 328.52 1404.333 337.027 1407.167 351.14 1410 356.36 1412.833 349.883 1415.667 350.657 1418.5 346.307 1421.333 349.883 1424.167 333.933 1427 349.69 1429.833 334.417 1432.667 357.037 1435.5 344.373 1438.333 354.62 1441.167 345.92 1444 339.057 1446.833 335.963 1449.667 372.89 1452.5 365.833 1455.333 370.763 1458.167 358.487 1461 319.433 1463.833 346.693 1466.667 303.58 1469.5 348.24 1472.333 369.797 1475.167 331.517 1478 336.543 1480.833 306.48 1483.667 344.373 1486.5 353.17 1489.333 357.133 1492.167 333.45 1495 356.36 1497.833 322.43 1500.667 353.267 1503.5 349.013 1506.333 317.887 1509.167 360.517 1512 354.04 1514.833 362.837 1517.667 361 1520.5 357.617 1523.333 371.343 1526.167 332.193 1529 352.59 1531.833 342.343 1534.667 327.747 1537.5 340.603 1540.333 340.313 1543.167 362.74 1546 316.147 1548.833 356.747 1551.667 359.937 1554.5 359.26 1557.333 357.617 1560.167 368.347 1563 356.457 1565.833 350.463 1568.667 355.007 1571.5 342.923 1574.333 355.103 1577.167 370.86 1580 348.24 1582.833 352.493 1585.667 339.927 1588.5 354.813 1591.333 358.873 1594.167 354.813 1597 349.4 1599.833 358.777 1602.667 346.017 1605.5 333.547 1608.333 365.253 1611.167 361.097 1614 338.573 1616.833 358.777 1619.667 360.71 1622.5 338.767 1625.333 358.487 1628.167 358.97 1631 338.767 1633.833 340.603 1636.667 356.36 1639.5 354.233 1642.333 311.023 1645.167 245.677 1648 367.187 1650.833 329.873 1653.667 350.753 1656.5 352.493 1659.333 351.527 1662.167 354.427 1665 349.883 1667.833 354.427 1670.667 335.383 1673.5 350.657 1676.333 300.293 1679.167 343.117 1682 340.313 1684.833 352.977 1687.667 291.883 1690.5 362.933 1693.333 352.88 1696.167 361.58 1699 351.43 1701.833 346.5 1704.667 318.37 1707.5 333.257 1710.333 334.417 1713.167 330.357 1716 355.683 1718.833 362.257 1721.667 343.793 1724.5 364.963 1727.333 313.15 1730.167 355.297 1733 349.013 1735.833 337.22 1738.667 350.463 1741.5 311.797 1744.333 345.05" style="fill:none;stroke-width:1.5;clip-path:url(#graphArea)"/></g><g id="LegendPanel_decomp_playground_p3"><text x="1705" y="30" fill="#FFF" filter="url(#dropShadowFilter)" font-family="Helvetica" font-size="10" style="text-anchor:end">UE 4.25.0.csv</text><rect width="10" height="10" x="1710" y="22" fill="#F60" stroke="CSVStats.Colour" stroke-width="1" filter="url(#dropShadowFilter)"/><text x="1725" y="30" fill="silver" filter="url(#dropShadowFilter)" font-family="Helvetica" font-size="10" style="text-anchor:start">1316.57</text><text x="1705" y="46" fill="#FFF" filter="url(#dropShadowFilter)" font-family="Helvetica" font-size="10" style="text-anchor:end">ACL Plugin 1.0.0.csv</text><rect width="10" height="10" x="1710" y="38" fill="#66CDFF" stroke="CSVStats.Colour" stroke-width="1" filter="url(#dropShadowFilter)"/><text x="1725" y="46" fill="silver" filter="url(#dropShadowFilter)" font-family="Helvetica" font-size="10" style="text-anchor:start">742.68</text><text x="1725" y="62" fill="silver" filter="url(#dropShadowFilter)" font-family="Helvetica" font-size="10" style="text-anchor:start">(avg)</text></g><text x="900" y="34" fill="#FFF" font-family="Helvetica" font-size="14" style="text-anchor:middle">Playground Pixel 3 Decompression Performance (us/frame)</text>&gt;<text x="1698" y="15" fill="gray" font-family="Helvetica" font-size="7" style="text-anchor:start">CSVToSVG 2.31</text>&gt;</svg>